<svg xmlns="http://www.w3.org/2000/svg" viewBox="0 0 300 300"><defs><style>.cls-1{fill:#35c567;}.cls-2,.cls-8{fill:none;}.cls-2{stroke:#c4c4c4;stroke-width:3.44px;}.cls-3{fill:#fece66;}.cls-4{fill:#e6e5e5;}.cls-5{fill:#495057;}.cls-6{fill:#cccbca;}.cls-7{fill:#eca334;}</style></defs><title>iconoInfoPacientes</title><g id="Capa_2" data-name="Capa 2"><g id="Capa_1-2" data-name="Capa 1"><g id="iconoInfoPacientes"><g id="Grupo_2487" data-name="Grupo 2487"><path id="Trazado_3201" data-name="Trazado 3201" class="cls-1" d="M175.88,82.74c2.82,5.93,23.94-61-23.63-65.87-34,.48-42.94,18.89-52.07,39.67-1-2.09-37.49-52.34-73.9-22.43-46.64,58.7,66.41,118,66.41,118S20.51,86.48,46.74,59.84C65.81,40.51,101.51,73.4,101.51,73.4s17.65-39,41.63-36.78C172.47,39.38,174.68,80.22,175.88,82.74Z"/><path id="Trazado_2506" data-name="Trazado 2506" class="cls-2" d="M281.36,90.34H99.64V271.21a19,19,0,0,0,1.78,8.43c1.18,2.33,2.74,3.49,4.28,3.49H275.29c1.55,0,3.09-1.16,4.29-3.49a19.29,19.29,0,0,0,1.77-8.43Z"/><path id="Trazado_2507" data-name="Trazado 2507" class="cls-3" d="M285,89.67a7,7,0,0,0-1.86-4.78,6.09,6.09,0,0,0-4.46-2H101.76a6.09,6.09,0,0,0-4.46,2,7,7,0,0,0-1.85,4.78v17.11H285Z"/><g id="Grupo_2108" data-name="Grupo 2108"><rect id="Rectángulo_791" data-name="Rectángulo 791" class="cls-4" x="111.34" y="122.68" width="77.55" height="77.55"/><g id="Grupo_2107" data-name="Grupo 2107"><g id="Grupo_2106" data-name="Grupo 2106"><path id="Trazado_2509" data-name="Trazado 2509" class="cls-5" d="M150.05,173.86c-13.25,0-23.9,11.81-23.9,26.38h47.94C174.09,185.66,163.3,173.86,150.05,173.86Z"/><path id="Trazado_2510" data-name="Trazado 2510" class="cls-5" d="M164.5,155A14.38,14.38,0,1,1,150,140.58,14.37,14.37,0,0,1,164.5,155Z"/></g></g></g><rect id="Rectángulo_792" data-name="Rectángulo 792" class="cls-6" x="197.89" y="194.26" width="38.77" height="5.96"/><rect id="Rectángulo_793" data-name="Rectángulo 793" class="cls-6" x="197.89" y="182.33" width="77.55" height="5.96"/><rect id="Rectángulo_799" data-name="Rectángulo 799" class="cls-6" x="111.34" y="238.67" width="163.4" height="5.96"/><rect id="Rectángulo_800" data-name="Rectángulo 800" class="cls-6" x="111.34" y="249.94" width="163.4" height="5.96"/><rect id="Rectángulo_801" data-name="Rectángulo 801" class="cls-6" x="111.34" y="261.21" width="163.4" height="5.96"/><rect id="Rectángulo_794" data-name="Rectángulo 794" class="cls-6" x="197.89" y="170.41" width="77.55" height="5.96"/><rect id="Rectángulo_798" data-name="Rectángulo 798" class="cls-6" x="111.34" y="226.75" width="163.4" height="5.96"/><rect id="Rectángulo_795" data-name="Rectángulo 795" class="cls-6" x="197.89" y="158.47" width="77.55" height="5.97"/><rect id="Rectángulo_797" data-name="Rectángulo 797" class="cls-6" x="111.34" y="214.81" width="163.4" height="5.97"/><rect id="Rectángulo_796" data-name="Rectángulo 796" class="cls-5" x="197.19" y="122.68" width="77.55" height="17.9"/><path id="Trazado_2508" data-name="Trazado 2508" class="cls-7" d="M211.27,94.84a4.38,4.38,0,0,0-4.22-4.5H173.36a4.37,4.37,0,0,0-4.21,4.5h0a4.37,4.37,0,0,0,4.21,4.51h33.69A4.38,4.38,0,0,0,211.27,94.84Z"/></g><rect class="cls-8" width="300" height="300"/></g></g></g></svg>