<svg xmlns="http://www.w3.org/2000/svg" viewBox="0 0 300 300"><defs><style>.cls-1{fill:#f07400;}.cls-2{fill:#343b43;}.cls-3{fill:#fff;}.cls-4{fill:#495057;}.cls-5{fill:#eca334;}.cls-6{fill:#f5b540;}.cls-7{fill:#fece66;}.cls-8{fill:#ef172f;}.cls-9{fill:none;}</style></defs><title>iconoBuscadorFarmacias</title><g id="Capa_2" data-name="Capa 2"><g id="Capa_1-2" data-name="Capa 1"><g id="iconoBuscadorFarmacias"><g id="Grupo_2486" data-name="Grupo 2486"><path id="Trazado_3200" data-name="Trazado 3200" class="cls-1" d="M201.27,80.3C204,86,224.46,21.2,178.37,16.48c-32.89.47-41.6,18.3-50.44,38.43-1-2-36.32-50.71-71.59-21.73-45.19,56.87,64.33,114.34,64.33,114.34S50.74,83.91,76.16,58.11c18.47-18.73,53.06,13.14,53.06,13.14s17.1-37.81,40.33-35.64C198,38.29,200.11,77.85,201.27,80.3Z"/><g id="Grupo_2095" data-name="Grupo 2095"><g id="Grupo_2094" data-name="Grupo 2094"><g id="Grupo_1362" data-name="Grupo 1362"><path id="Trazado_1659" data-name="Trazado 1659" class="cls-2" d="M227.63,87.91H148.46a13.69,13.69,0,0,0-13.65,13.65V269.88a13.68,13.68,0,0,0,13.65,13.64h79.17a13.64,13.64,0,0,0,13.62-13.64V101.56A13.65,13.65,0,0,0,227.63,87.91Z"/><rect id="Rect치ngulo_459" data-name="Rect치ngulo 459" class="cls-3" x="142.54" y="117.49" width="91.01" height="136.47"/><path id="Rect치ngulo_460" data-name="Rect치ngulo 460" class="cls-4" d="M180.17,264.53h15.76a4.21,4.21,0,0,1,4.21,4.21h0a4.22,4.22,0,0,1-4.21,4.22H180.18a4.22,4.22,0,0,1-4.22-4.22h0a4.2,4.2,0,0,1,4.21-4.21Z"/><path id="Trazado_1660" data-name="Trazado 1660" class="cls-4" d="M191.49,102.69a3.43,3.43,0,1,1-3.42-3.43,3.43,3.43,0,0,1,3.42,3.43Z"/><path id="Trazado_1661" data-name="Trazado 1661" class="cls-2" d="M189.44,102.69a1.37,1.37,0,1,1-1.38-1.38,1.36,1.36,0,0,1,1.38,1.38Z"/></g><g id="Grupo_1368" data-name="Grupo 1368"><g id="Grupo_1366" data-name="Grupo 1366"><path id="Trazado_1664" data-name="Trazado 1664" class="cls-5" d="M161.44,162.66a13.31,13.31,0,0,0,13.31-13.32H148.13A13.31,13.31,0,0,0,161.44,162.66Z"/><path id="Trazado_1665" data-name="Trazado 1665" class="cls-6" d="M134.83,162.66a13.32,13.32,0,0,0,13.32-13.32H121.52A13.31,13.31,0,0,0,134.83,162.66Z"/><path id="Trazado_1666" data-name="Trazado 1666" class="cls-6" d="M188.05,162.66a13.31,13.31,0,0,0,13.31-13.32h-26.6A13.32,13.32,0,0,0,188.05,162.66Z"/><path id="Trazado_1667" data-name="Trazado 1667" class="cls-5" d="M214.66,162.66A13.31,13.31,0,0,0,228,149.34h-26.6A13.32,13.32,0,0,0,214.66,162.66Z"/><path id="Trazado_1668" data-name="Trazado 1668" class="cls-6" d="M241.26,162.66a13.32,13.32,0,0,0,13.32-13.32H228A13.31,13.31,0,0,0,241.26,162.66Z"/></g><g id="Grupo_1367" data-name="Grupo 1367"><path id="Trazado_1669" data-name="Trazado 1669" class="cls-7" d="M160.75,117.49h-18.2l-21,31.86h26.61Z"/><path id="Trazado_1670" data-name="Trazado 1670" class="cls-6" d="M179,117.49h-18.2l-12.62,31.86h26.61Z"/><path id="Trazado_1671" data-name="Trazado 1671" class="cls-7" d="M197.15,117.49H179l-4.2,31.86h26.6Z"/><path id="Trazado_1672" data-name="Trazado 1672" class="cls-6" d="M215.35,117.49h-18.2l4.21,31.86H228Z"/><path id="Trazado_1673" data-name="Trazado 1673" class="cls-7" d="M233.55,117.49h-18.2L228,149.35h26.62Z"/></g></g></g><g id="Grupo_1371" data-name="Grupo 1371"><path id="Trazado_1676" data-name="Trazado 1676" class="cls-8" d="M188.55,167.91A30.15,30.15,0,0,0,158.41,198a31.55,31.55,0,0,0,6.25,18.37l23.89,33.48,23.9-33.48A31.63,31.63,0,0,0,218.68,198,30.13,30.13,0,0,0,188.55,167.91Z"/><path id="Trazado_1677" data-name="Trazado 1677" class="cls-3" d="M208.75,198.05a20.2,20.2,0,1,1-20.2-20.2h0A20.18,20.18,0,0,1,208.75,198Z"/><path id="Trazado_1678" data-name="Trazado 1678" class="cls-7" d="M188.55,185.59l3.63,7.34,8.11,1.18-5.87,5.72,1.39,8.07-7.26-3.81-7.24,3.81,1.38-8.07-5.86-5.72,8.1-1.18Z"/></g></g></g><rect class="cls-9" width="300" height="300"/></g></g></g></svg>