<svg xmlns="http://www.w3.org/2000/svg" viewBox="0 0 300 300"><defs><style>.cls-1{fill:none;}.cls-2{fill:#e6e5e5;}.cls-3{fill:#ef172f;}.cls-4{fill:#fff;}.cls-5{fill:#fad97f;}</style></defs><title>iconoFarmacias</title><g id="Capa_2" data-name="Capa 2"><g id="Capa_1-2" data-name="Capa 1"><g id="iconoFarmacias"><rect class="cls-1" width="300" height="300"/><g id="Grupo_3139" data-name="Grupo 3139"><path id="Trazado_3631" data-name="Trazado 3631" class="cls-2" d="M211.68,266.83c0,9.24-27.59,16.69-61.68,16.69s-61.69-7.45-61.69-16.69S116,250.15,150,250.15,211.68,257.63,211.68,266.83Z"/><path id="Trazado_3632" data-name="Trazado 3632" class="cls-3" d="M150,16.48a92.07,92.07,0,0,0-92,92A96.3,96.3,0,0,0,77,164.6l73,102.25,73-102.26A96.39,96.39,0,0,0,242,108.51a92,92,0,0,0-92-92Z"/><path id="Trazado_3633" data-name="Trazado 3633" class="cls-4" d="M211.68,108.5A61.69,61.69,0,1,1,150,46.83h0a61.64,61.64,0,0,1,61.68,61.59Z"/><path id="Trazado_3634" data-name="Trazado 3634" class="cls-5" d="M150,70.46l11.07,22.43,24.75,3.6L167.9,114l4.23,24.64L150,127l-22.14,11.63L132.08,114l-17.9-17.46,24.74-3.6Z"/></g></g></g></g></svg>