<svg xmlns="http://www.w3.org/2000/svg" viewBox="0 0 300 300"><defs><style>.cls-1{fill:#ef172f;}.cls-2{fill:#f07400;}.cls-3{fill:#f5b540;}.cls-4{fill:#fff;}.cls-5{fill:#92deeb;}.cls-6{fill:#e3cca4;}.cls-7{fill:#2a85a6;}.cls-8{fill:none;}</style></defs><title>iconoProductosPatrocinadores</title><g id="Capa_2" data-name="Capa 2"><g id="Capa_1-2" data-name="Capa 1"><g id="iconoProductosPatrocinadores"><g id="Grupo_2485" data-name="Grupo 2485"><path id="Trazado_2436" data-name="Trazado 2436" class="cls-1" d="M201.07,79.65c2.7,5.68,23-58.5-22.67-63.17-32.56.46-41.17,18.11-49.93,38-1-2-35.95-50.19-70.86-21.51C12.89,89.3,121.29,146.18,121.29,146.18S52.08,83.23,77.23,57.68c18.29-18.53,52.52,13,52.52,13s16.92-37.42,39.92-35.28C197.79,38.06,199.91,77.22,201.07,79.65Z"/><g id="Grupo_2105" data-name="Grupo 2105"><g id="Grupo_2104" data-name="Grupo 2104"><g id="Grupo_1347" data-name="Grupo 1347"><g id="Grupo_1346" data-name="Grupo 1346"><path id="Trazado_1632" data-name="Trazado 1632" class="cls-1" d="M204.69,140.69l18.49,38.77-14.31-5.08-5.08,14.32L185.3,149.94Z"/><path id="Trazado_1633" data-name="Trazado 1633" class="cls-1" d="M166.39,140.69l-18.48,38.77,14.31-5.08,5.08,14.32,18.49-38.76Z"/></g></g><path id="Trazado_1634" data-name="Trazado 1634" class="cls-2" d="M188.13,84.89a5.09,5.09,0,0,1-5.17,0L179.2,82.4a3,3,0,0,0-4.21.84l0,.06-2.42,3.81a5.09,5.09,0,0,1-4.73,2.1l-4.45-.76a3,3,0,0,0-3.5,2.48.2.2,0,0,1,0,.07l-.66,4.45a5.08,5.08,0,0,1-3.46,3.84l-4.37,1.12a3,3,0,0,0-2.18,3.71v0l1.22,4.32a5.07,5.07,0,0,1-1.6,4.91l-3.54,2.81a3,3,0,0,0-.51,4.25l.06.06,2.87,3.47a5,5,0,0,1,.54,5.13l-2.09,4a3,3,0,0,0,1.28,4.09l.06,0,4,2a5.06,5.06,0,0,1,2.59,4.47l-.28,4.49a3.05,3.05,0,0,0,2.85,3.23h.06l4.5.19a5.08,5.08,0,0,1,4.19,3l1.57,4.21a3,3,0,0,0,3.9,1.79l.06,0,4.19-1.65a5.1,5.1,0,0,1,5.06,1.07l3.15,3.21a3,3,0,0,0,4.3.05l0-.05,3.16-3.21a5.09,5.09,0,0,1,5.06-1.07l4.19,1.65a3,3,0,0,0,3.94-1.72s0,0,0,0l1.58-4.21a5,5,0,0,1,4.18-3l4.5-.19a3,3,0,0,0,2.91-3.14v-.09L217,143.7a5.06,5.06,0,0,1,2.59-4.47l4.05-2a3,3,0,0,0,1.35-4.06l0-.06-2.09-4a5.09,5.09,0,0,1,.55-5.13l2.88-3.47a3,3,0,0,0-.38-4.25l-.08-.06-3.53-2.81a5,5,0,0,1-1.6-4.9l1.22-4.33a3,3,0,0,0-2.13-3.74l-.05,0-4.37-1.12a5.1,5.1,0,0,1-3.46-3.84L211.2,91a3,3,0,0,0-3.44-2.56h-.07l-4.45.76a5.07,5.07,0,0,1-4.72-2.1l-2.41-3.81a3.06,3.06,0,0,0-4.21-.93l-.05,0Z"/><path id="Trazado_1635" data-name="Trazado 1635" class="cls-3" d="M155.6,123.41a29.95,29.95,0,1,0,30-30.18A30.08,30.08,0,0,0,155.6,123.41Z"/><path id="Trazado_1636" data-name="Trazado 1636" class="cls-4" d="M185.53,106.81l-5.31,10.77-11.88,1.73,8.6,8.38-2,11.83,10.62-5.6,10.63,5.6-2-11.83,8.59-8.38-11.89-1.73Z"/><g id="Grupo_2102" data-name="Grupo 2102"><g id="Grupo_2098" data-name="Grupo 2098"><rect id="Rectángulo_782" data-name="Rectángulo 782" class="cls-5" x="180.48" y="63.43" width="7.34" height="14.66"/><rect id="Rectángulo_783" data-name="Rectángulo 783" class="cls-5" x="155.18" y="70.21" width="7.33" height="14.65" transform="translate(-17.49 89.77) rotate(-29.99)"/><rect id="Rectángulo_784" data-name="Rectángulo 784" class="cls-5" x="136.66" y="88.74" width="7.33" height="14.66" transform="translate(-13.03 169.58) rotate(-60.01)"/><rect id="Rectángulo_785" data-name="Rectángulo 785" class="cls-5" x="126.2" y="117.71" width="14.66" height="7.33"/><rect id="Rectángulo_786" data-name="Rectángulo 786" class="cls-5" x="132.99" y="143.03" width="14.66" height="7.33" transform="translate(-54.49 89.63) rotate(-29.95)"/><rect id="Rectángulo_787" data-name="Rectángulo 787" class="cls-5" x="224.33" y="139.36" width="7.33" height="14.65" transform="translate(-12.93 270.99) rotate(-60.05)"/><rect id="Rectángulo_788" data-name="Rectángulo 788" class="cls-5" x="227.46" y="117.71" width="14.66" height="7.33"/><rect id="Rectángulo_789" data-name="Rectángulo 789" class="cls-5" x="220.66" y="92.4" width="14.66" height="7.33" transform="translate(-17.49 126.87) rotate(-30)"/><rect id="Rectángulo_790" data-name="Rectángulo 790" class="cls-5" x="202.15" y="73.87" width="14.65" height="7.33" transform="translate(37.65 220.26) rotate(-60.03)"/></g></g></g><g id="Grupo_2103" data-name="Grupo 2103"><path id="Unión_5" data-name="Unión 5" class="cls-6" d="M179.91,251.74h0V251A26.94,26.94,0,0,0,153,224.07a8.86,8.86,0,1,1,0-17.72,44.4,44.4,0,0,1,26.91,9.05V149.91a8.86,8.86,0,0,1,17.71,0v34.41a8.86,8.86,0,0,1,17.71,0h0A8.86,8.86,0,1,1,233,184v.35h0a8.86,8.86,0,0,1,17.71,0h0v67.42H197.56a8.86,8.86,0,0,1-17.65,0Z"/><path id="Trazado_2504" data-name="Trazado 2504" class="cls-7" d="M248,283.52a7.43,7.43,0,0,0,3.67-.88,2.6,2.6,0,0,0,1.52-2.13V254a2.59,2.59,0,0,0-1.52-2.12A7.44,7.44,0,0,0,248,251H182.58a7.46,7.46,0,0,0-3.67.89A2.56,2.56,0,0,0,177.4,254v26.54a2.59,2.59,0,0,0,1.51,2.13,7.45,7.45,0,0,0,3.67.88Z"/><path id="Trazado_2505" data-name="Trazado 2505" class="cls-4" d="M239.84,261.09a4.12,4.12,0,1,1-4.12,4.11,4.11,4.11,0,0,1,4.12-4.11Z"/></g></g></g><rect class="cls-8" width="300" height="300"/></g></g></g></svg>