<svg xmlns="http://www.w3.org/2000/svg" viewBox="0 0 300 300"><defs><style>.cls-1{fill:none;}.cls-2{fill:#3f4a5a;}.cls-3{fill:#e6e5e5;}.cls-4{fill:#f8c963;}.cls-5{fill:#fad97f;}.cls-6{fill:#f5b947;}.cls-7{fill:#fff;}.cls-8{fill:#f67656;}</style></defs><title>iconoOfertas</title><g id="Capa_2" data-name="Capa 2"><g id="Capa_1-2" data-name="Capa 1"><g id="iconoOfertas"><rect class="cls-1" width="300" height="300"/><g id="Grupo_3151" data-name="Grupo 3151"><g id="Grupo_3147" data-name="Grupo 3147"><g id="Grupo_3141" data-name="Grupo 3141"><g id="Grupo_3140" data-name="Grupo 3140"><path id="Trazado_3635" data-name="Trazado 3635" class="cls-2" d="M108,81.31a7.42,7.42,0,1,0-7.42,7.42A7.42,7.42,0,0,0,108,81.31Z"/><path id="Trazado_3636" data-name="Trazado 3636" class="cls-2" d="M206.81,81.31a7.42,7.42,0,1,0-7.42,7.42A7.42,7.42,0,0,0,206.81,81.31Z"/></g><path id="Trazado_3637" data-name="Trazado 3637" class="cls-3" d="M150,16.48A52.49,52.49,0,0,0,97.51,69V81.31a3.09,3.09,0,0,0,6.18,0V69a46.31,46.31,0,0,1,92.62,0V81.32a3.08,3.08,0,1,0,6.16,0V69A52.47,52.47,0,0,0,150,16.49h0Z"/></g><g id="Grupo_3144" data-name="Grupo 3144"><rect id="Rect치ngulo_1209" data-name="Rect치ngulo 1209" class="cls-4" x="57.16" y="54.62" width="185.66" height="188.84"/><path id="Trazado_3638" data-name="Trazado 3638" class="cls-5" d="M47.76,100.4V275a8.55,8.55,0,0,0,8.54,8.57H243.65a8.57,8.57,0,0,0,8.59-8.55V100.4Z"/><g id="Grupo_3142" data-name="Grupo 3142"><path id="Trazado_3639" data-name="Trazado 3639" class="cls-6" d="M47.76,100.4H75.37V72.8Z"/><path id="Trazado_3640" data-name="Trazado 3640" class="cls-5" d="M57.16,91l18.2-18.19L57.16,54.62Z"/></g><g id="Grupo_3143" data-name="Grupo 3143"><path id="Trazado_3641" data-name="Trazado 3641" class="cls-6" d="M252.24,100.4H224.65V72.8Z"/><path id="Trazado_3642" data-name="Trazado 3642" class="cls-5" d="M242.83,91,224.65,72.81l18.18-18.19Z"/></g></g><g id="Grupo_3146" data-name="Grupo 3146"><g id="Grupo_3145" data-name="Grupo 3145"><path id="Trazado_3643" data-name="Trazado 3643" class="cls-2" d="M103.76,130.41a8.16,8.16,0,1,0-8.16,8.17A8.15,8.15,0,0,0,103.76,130.41Z"/><path id="Trazado_3644" data-name="Trazado 3644" class="cls-2" d="M212.57,130.41a8.16,8.16,0,1,0-8.17,8.17A8.17,8.17,0,0,0,212.57,130.41Z"/></g><path id="Trazado_3645" data-name="Trazado 3645" class="cls-7" d="M150,59a57.81,57.81,0,0,0-57.81,57.81v13.59a3.4,3.4,0,1,0,6.8,0V116.82A51,51,0,0,1,201,116v14.37a3.4,3.4,0,0,0,6.8.21v-13.8A57.79,57.79,0,0,0,150,59h0Z"/></g></g><g id="Grupo_3150" data-name="Grupo 3150"><path id="Trazado_3646" data-name="Trazado 3646" class="cls-8" d="M198.43,215A48.43,48.43,0,1,1,150,166.55,48.43,48.43,0,0,1,198.43,215Z"/><g id="Grupo_3149" data-name="Grupo 3149"><rect id="Rect치ngulo_1210" data-name="Rect치ngulo 1210" class="cls-7" x="120.82" y="211.4" width="58.34" height="7.17" transform="translate(-108.09 169.03) rotate(-45)"/><g id="Grupo_3148" data-name="Grupo 3148"><path id="Trazado_3647" data-name="Trazado 3647" class="cls-7" d="M162.85,239.2a11.37,11.37,0,1,1,11.36-11.37A11.38,11.38,0,0,1,162.85,239.2Zm0-15.56a4.19,4.19,0,1,0,4.18,4.2h0a4.19,4.19,0,0,0-4.18-4.19Z"/><path id="Trazado_3648" data-name="Trazado 3648" class="cls-7" d="M137.14,213.49a11.36,11.36,0,1,1,11.38-11.36A11.35,11.35,0,0,1,137.14,213.49Zm0-15.55a4.2,4.2,0,1,0,4.2,4.19h0a4.19,4.19,0,0,0-4.2-4.18Z"/></g></g></g></g></g></g></g></svg>