<svg xmlns="http://www.w3.org/2000/svg" viewBox="0 0 300 300"><defs><style>.cls-1{fill:#89006b;}.cls-2{fill:#eac19a;}.cls-3{fill:#676a70;}.cls-4{fill:#343b43;}.cls-5{fill:#504112;}.cls-6{fill:#c4c4c4;}.cls-7{fill:#f7f7f7;}.cls-8{fill:#231f20;}.cls-9{fill:#0f4864;}.cls-10{fill:#424448;}.cls-11{fill:#fff;}.cls-12{fill:#a59373;}.cls-13{fill:#ef172f;}.cls-14{fill:#1e5f77;}.cls-15{fill:#495057;}.cls-16{fill:none;}</style></defs><title>iconoSlicitudServicios</title><g id="Capa_2" data-name="Capa 2"><g id="Capa_1-2" data-name="Capa 1"><g id="iconoSlicitudServicios"><g id="Grupo_2743" data-name="Grupo 2743"><path id="Trazado_2438" data-name="Trazado 2438" class="cls-1" d="M212.51,73.49c2.44,5.12,20.72-52.8-20.46-57C162.67,16.9,154.9,32.81,147,50.81,146.14,49,114.55,5.51,83,31.4c-40.36,50.79,57.47,102.12,57.47,102.12S78.05,76.71,100.76,53.66c16.5-16.73,47.39,11.73,47.39,11.73s15.27-33.77,36-31.83C209.56,36,211.47,71.29,212.51,73.49Z"/><g id="Grupo_2556" data-name="Grupo 2556"><g id="Grupo_2555" data-name="Grupo 2555"><g id="Grupo_2554" data-name="Grupo 2554"><g id="Grupo_2553" data-name="Grupo 2553"><path id="Trazado_3258" data-name="Trazado 3258" class="cls-2" d="M152.66,226.83a244.53,244.53,0,0,0,9,48.5h8s-1.74-23.43-.84-48.5c.24-6.46.64-13,1.31-19.34v0q.31-3,.7-5.92a125.39,125.39,0,0,1,10.28-34.92H158.35s-4.82,10.8-6.08,42.19A159.19,159.19,0,0,0,152.66,226.83Z"/></g></g></g></g><g id="Grupo_2560" data-name="Grupo 2560"><g id="Grupo_2559" data-name="Grupo 2559"><g id="Grupo_2558" data-name="Grupo 2558"><g id="Grupo_2557" data-name="Grupo 2557"><path id="Trazado_3259" data-name="Trazado 3259" class="cls-2" d="M168.44,166.63l1.72,40.83v0l.82,19.35,2.05,48.5h9.19s3.46-29.07,6.16-48.5l.18-1.3c3.07-21.84,3.79-42.56,1.23-53.56a20,20,0,0,0-1.92-5.34Z"/></g></g></g></g><g id="Grupo_2564" data-name="Grupo 2564"><g id="Grupo_2563" data-name="Grupo 2563"><g id="Grupo_2562" data-name="Grupo 2562"><g id="Grupo_2561" data-name="Grupo 2561"><path id="Trazado_3260" data-name="Trazado 3260" class="cls-3" d="M152.66,226.83H188.4l.18-1.3c3.07-21.84,3.79-42.56,1.23-53.56l-1.5-5.55-30,.21s-4.82,10.79-6.08,42.18A159.37,159.37,0,0,0,152.66,226.83Z"/></g></g></g></g><g id="Grupo_2568" data-name="Grupo 2568"><g id="Grupo_2567" data-name="Grupo 2567"><g id="Grupo_2566" data-name="Grupo 2566"><g id="Grupo_2565" data-name="Grupo 2565"><path id="Trazado_3261" data-name="Trazado 3261" class="cls-4" d="M151.2,283.52a8.19,8.19,0,0,1,8.18-8.19H169.7l-1.53,8.19Z"/></g></g></g></g><g id="Grupo_2572" data-name="Grupo 2572"><g id="Grupo_2571" data-name="Grupo 2571"><g id="Grupo_2570" data-name="Grupo 2570"><g id="Grupo_2569" data-name="Grupo 2569"><path id="Trazado_3262" data-name="Trazado 3262" class="cls-5" d="M153.25,126.1H178.8V66.49A12.78,12.78,0,0,0,166,53.71h0a12.77,12.77,0,0,0-12.77,12.78h0Z"/></g></g></g></g><g id="Grupo_2576" data-name="Grupo 2576"><g id="Grupo_2575" data-name="Grupo 2575"><g id="Grupo_2574" data-name="Grupo 2574"><g id="Grupo_2573" data-name="Grupo 2573"><path id="Trazado_3263" data-name="Trazado 3263" class="cls-5" d="M174.58,102.26h0a18.73,18.73,0,0,0,18.73-18.74V75H174.58Z"/></g></g></g></g><path id="Unión_8" data-name="Unión 8" class="cls-6" d="M136.49,110.49h0v0c-2.89-3.86-1.47-8.65,1.73-12.28,7.17-8.1,11.15-12.58,11.15-12.58L151.91,89l-9.23,12.86,23.54,0-3,8.63Z"/><g id="Grupo_2585" data-name="Grupo 2585"><g id="Grupo_2584" data-name="Grupo 2584"><g id="Grupo_2583" data-name="Grupo 2583"><g id="Grupo_2582" data-name="Grupo 2582"><path id="Trazado_3265" data-name="Trazado 3265" class="cls-2" d="M151.91,89l7.54-10.63s-10.51-4.68-10.12,7.22Z"/></g></g></g></g><g id="Grupo_2602" data-name="Grupo 2602"><g id="Grupo_2589" data-name="Grupo 2589"><g id="Grupo_2588" data-name="Grupo 2588"><g id="Grupo_2587" data-name="Grupo 2587"><g id="Grupo_2586" data-name="Grupo 2586"><rect id="Rectángulo_910" data-name="Rectángulo 910" class="cls-7" x="150.6" y="77.03" width="19.76" height="9.89" transform="translate(-19.23 95.35) rotate(-31.31)"/></g></g></g></g><g id="Grupo_2593" data-name="Grupo 2593"><g id="Grupo_2592" data-name="Grupo 2592"><g id="Grupo_2591" data-name="Grupo 2591"><g id="Grupo_2590" data-name="Grupo 2590"><rect id="Rectángulo_911" data-name="Rectángulo 911" class="cls-8" x="153.04" y="76.95" width="15.14" height="9.89" transform="translate(-19.16 95.48) rotate(-31.34)"/></g></g></g></g><g id="Grupo_2597" data-name="Grupo 2597"><g id="Grupo_2596" data-name="Grupo 2596"><g id="Grupo_2595" data-name="Grupo 2595"><g id="Grupo_2594" data-name="Grupo 2594"><rect id="Rectángulo_912" data-name="Rectángulo 912" class="cls-9" x="167.74" y="76.34" width="0.29" height="2.26" transform="translate(-15.8 98.61) rotate(-31.34)"/></g></g></g></g><g id="Grupo_2601" data-name="Grupo 2601"><g id="Grupo_2600" data-name="Grupo 2600"><g id="Grupo_2599" data-name="Grupo 2599"><g id="Grupo_2598" data-name="Grupo 2598"><rect id="Rectángulo_913" data-name="Rectángulo 913" class="cls-9" x="152.53" y="85.44" width="1.31" height="2.01" transform="translate(-22.61 92.21) rotate(-31.32)"/></g></g></g></g></g><g id="Grupo_2610" data-name="Grupo 2610"><g id="Grupo_2609" data-name="Grupo 2609"><g id="Grupo_2608" data-name="Grupo 2608"><g id="Grupo_2607" data-name="Grupo 2607"><path id="Trazado_3267" data-name="Trazado 3267" class="cls-6" d="M156.72,171.36l4,1.29,4.78-6.07,8.54,7,16.36-6.6-2.95-17.32,5.84-16.15,2.76-27.37-12-3.59-14-.66H153.18l6.26,48.84Z"/></g></g></g></g><g id="Grupo_2614" data-name="Grupo 2614"><g id="Grupo_2613" data-name="Grupo 2613"><g id="Grupo_2612" data-name="Grupo 2612"><g id="Grupo_2611" data-name="Grupo 2611"><rect id="Rectángulo_914" data-name="Rectángulo 914" class="cls-10" x="182.12" y="146.71" width="1.15" height="9.58" transform="translate(-48.44 205.44) rotate(-52.8)"/></g></g></g></g><g id="Grupo_2618" data-name="Grupo 2618"><g id="Grupo_2617" data-name="Grupo 2617"><g id="Grupo_2616" data-name="Grupo 2616"><g id="Grupo_2615" data-name="Grupo 2615"><rect id="Rectángulo_915" data-name="Rectángulo 915" class="cls-10" x="184.01" y="144.51" width="1.15" height="8.32" transform="translate(-52.38 144.29) rotate(-37.79)"/></g></g></g></g><g id="Grupo_2622" data-name="Grupo 2622"><g id="Grupo_2621" data-name="Grupo 2621"><g id="Grupo_2620" data-name="Grupo 2620"><g id="Grupo_2619" data-name="Grupo 2619"><path id="Trazado_3268" data-name="Trazado 3268" class="cls-10" d="M167.51,133.15,187.31,118l-4.9-3.82,6-1.35-10.8-15.68-16.32,14.49,3.19,1.55-4.22,2.61ZM185.43,118,168,131.33l-6.33-15,5.17-3.19-3.53-1.71,14-12.48,9.1,13.21-6.66,1.51Z"/></g></g></g></g><g id="Grupo_2626" data-name="Grupo 2626"><g id="Grupo_2625" data-name="Grupo 2625"><g id="Grupo_2624" data-name="Grupo 2624"><g id="Grupo_2623" data-name="Grupo 2623"><path id="Trazado_3269" data-name="Trazado 3269" class="cls-11" d="M184,102.52s-3.36,12.88-16.25,29.71a52.4,52.4,0,0,1,2.35-30.36Z"/></g></g></g></g><g id="Grupo_2630" data-name="Grupo 2630"><g id="Grupo_2629" data-name="Grupo 2629"><g id="Grupo_2628" data-name="Grupo 2628"><g id="Grupo_2627" data-name="Grupo 2627"><path id="Trazado_3270" data-name="Trazado 3270" class="cls-11" d="M184,102.52l4.52,7H162.45l7.65-7.64Z"/></g></g></g></g><g id="Grupo_2634" data-name="Grupo 2634"><g id="Grupo_2633" data-name="Grupo 2633"><g id="Grupo_2632" data-name="Grupo 2632"><g id="Grupo_2631" data-name="Grupo 2631"><path id="Trazado_3271" data-name="Trazado 3271" class="cls-2" d="M170.11,102.53s-.41,2.31,4.71,2.31a20.48,20.48,0,0,0,9.19-2.31V87.61h-13.9Z"/></g></g></g></g><g id="Grupo_2638" data-name="Grupo 2638"><g id="Grupo_2637" data-name="Grupo 2637"><g id="Grupo_2636" data-name="Grupo 2636"><g id="Grupo_2635" data-name="Grupo 2635"><path id="Trazado_3272" data-name="Trazado 3272" class="cls-12" d="M170.1,100.51V91.18h12.6A13.78,13.78,0,0,1,170.1,100.51Z"/></g></g></g></g><g id="Grupo_2642" data-name="Grupo 2642"><g id="Grupo_2641" data-name="Grupo 2641"><g id="Grupo_2640" data-name="Grupo 2640"><g id="Grupo_2639" data-name="Grupo 2639"><path id="Trazado_3273" data-name="Trazado 3273" class="cls-2" d="M186.64,73.71v7.94H184v11s-8.68,7.62-16.83,3.82a10.21,10.21,0,0,1-5.77-9.3V73.71A13,13,0,0,1,163,67.38a12.29,12.29,0,0,1,10.75-6.44h.46A12.58,12.58,0,0,1,186.64,73.71Z"/></g></g></g></g><g id="Grupo_2646" data-name="Grupo 2646"><g id="Grupo_2645" data-name="Grupo 2645"><g id="Grupo_2644" data-name="Grupo 2644"><g id="Grupo_2643" data-name="Grupo 2643"><path id="Trazado_3274" data-name="Trazado 3274" class="cls-5" d="M193.32,72.89v7.22a21.88,21.88,0,0,1-5.65.41,7,7,0,0,1-7.56-2.85l0-3.58c0-5.42-7.84.93-7.48-7.56l-9.56,0c2-4.82,5.44-8.26,15.1-8.26a14.63,14.63,0,0,1,15.09,14.15C193.32,72.6,193.32,72.74,193.32,72.89Z"/></g></g></g></g><g id="Grupo_2650" data-name="Grupo 2650"><g id="Grupo_2649" data-name="Grupo 2649"><g id="Grupo_2648" data-name="Grupo 2648"><g id="Grupo_2647" data-name="Grupo 2647"><path id="Rectángulo_916" data-name="Rectángulo 916" class="cls-2" d="M184.66,86.63h-2.49V79.4a2.5,2.5,0,0,1,2.49-2.5h0a2.47,2.47,0,0,1,2.47,2.47h0v4.79a2.46,2.46,0,0,1-2.47,2.47Z"/></g></g></g></g><g id="Grupo_2654" data-name="Grupo 2654"><g id="Grupo_2653" data-name="Grupo 2653"><g id="Grupo_2652" data-name="Grupo 2652"><g id="Grupo_2651" data-name="Grupo 2651"><path id="Trazado_3275" data-name="Trazado 3275" class="cls-12" d="M166.89,85.33V84.17a2.11,2.11,0,0,1-2.12-2.11v-.31h-1.16v.31A3.28,3.28,0,0,0,166.89,85.33Z"/></g></g></g></g><g id="Grupo_2658" data-name="Grupo 2658"><g id="Grupo_2657" data-name="Grupo 2657"><g id="Grupo_2656" data-name="Grupo 2656"><g id="Grupo_2655" data-name="Grupo 2655"><path id="Trazado_3276" data-name="Trazado 3276" class="cls-11" d="M166.24,157.82l8.06,15.75-8.77-7-4.79,6.07Z"/></g></g></g></g><g id="Grupo_2662" data-name="Grupo 2662"><g id="Grupo_2661" data-name="Grupo 2661"><g id="Grupo_2660" data-name="Grupo 2660"><g id="Grupo_2659" data-name="Grupo 2659"><path id="Trazado_3277" data-name="Trazado 3277" class="cls-2" d="M184,102.53l-11.64,8.94-2.24-8.68Z"/></g></g></g></g><g id="Grupo_2666" data-name="Grupo 2666"><g id="Grupo_2665" data-name="Grupo 2665"><g id="Grupo_2664" data-name="Grupo 2664"><g id="Grupo_2663" data-name="Grupo 2663"><path id="Trazado_3278" data-name="Trazado 3278" class="cls-10" d="M174,174.29l13.59-5-.41-1.08-12.62,4.69-8.65-17-5.55,16-3.48-1.12-.35,1.1,4.55,1.46,5-14.56Z"/></g></g></g></g><g id="Grupo_2670" data-name="Grupo 2670"><g id="Grupo_2669" data-name="Grupo 2669"><g id="Grupo_2668" data-name="Grupo 2668"><g id="Grupo_2667" data-name="Grupo 2667"><path id="Trazado_3279" data-name="Trazado 3279" class="cls-10" d="M166.15,158.8l1-.55-2.41-4.48V137.16l3.45-4.57-.92-.7-3.69,4.89v17.28Z"/></g></g></g></g><g id="Grupo_2674" data-name="Grupo 2674"><g id="Grupo_2673" data-name="Grupo 2673"><g id="Grupo_2672" data-name="Grupo 2672"><g id="Grupo_2671" data-name="Grupo 2671"><path id="Trazado_3280" data-name="Trazado 3280" class="cls-9" d="M174.48,112.59l3.92-2.49h10.13V109H178.07l-4.2,2.67Z"/></g></g></g></g><g id="Grupo_2678" data-name="Grupo 2678"><g id="Grupo_2677" data-name="Grupo 2677"><g id="Grupo_2676" data-name="Grupo 2676"><g id="Grupo_2675" data-name="Grupo 2675"><path id="Trazado_3281" data-name="Trazado 3281" class="cls-9" d="M169.89,111.67l1.07-.42-.9-2.31h-7.6v1.16h6.81Z"/></g></g></g></g><g id="Grupo_2682" data-name="Grupo 2682"><g id="Grupo_2681" data-name="Grupo 2681"><g id="Grupo_2680" data-name="Grupo 2680"><g id="Grupo_2679" data-name="Grupo 2679"><path id="Trazado_3282" data-name="Trazado 3282" class="cls-10" d="M167.31,141.88a1.15,1.15,0,1,0,1.15-1.15,1.14,1.14,0,0,0-1.15,1.15Z"/></g></g></g></g><g id="Grupo_2686" data-name="Grupo 2686"><g id="Grupo_2685" data-name="Grupo 2685"><g id="Grupo_2684" data-name="Grupo 2684"><g id="Grupo_2683" data-name="Grupo 2683"><path id="Trazado_3283" data-name="Trazado 3283" class="cls-10" d="M167.45,151.5a1.15,1.15,0,1,0,1.15-1.15,1.15,1.15,0,0,0-1.15,1.15Z"/></g></g></g></g><g id="Grupo_2690" data-name="Grupo 2690"><g id="Grupo_2689" data-name="Grupo 2689"><g id="Grupo_2688" data-name="Grupo 2688"><g id="Grupo_2687" data-name="Grupo 2687"><path id="Trazado_3284" data-name="Trazado 3284" class="cls-6" d="M196.07,106.15A224.91,224.91,0,0,1,204,153.58l-8.27.81-6.74-42.14Z"/></g></g></g></g><g id="Grupo_2694" data-name="Grupo 2694"><g id="Grupo_2693" data-name="Grupo 2693"><g id="Grupo_2692" data-name="Grupo 2692"><g id="Grupo_2691" data-name="Grupo 2691"><rect id="Rectángulo_917" data-name="Rectángulo 917" class="cls-10" x="190.81" y="121.48" width="1.15" height="12.09" transform="translate(-17.78 31.93) rotate(-9.11)"/></g></g></g></g><g id="Grupo_2698" data-name="Grupo 2698"><g id="Grupo_2697" data-name="Grupo 2697"><g id="Grupo_2696" data-name="Grupo 2696"><g id="Grupo_2695" data-name="Grupo 2695"><rect id="Rectángulo_918" data-name="Rectángulo 918" class="cls-13" x="185.85" y="139.53" width="37.34" height="24.86"/></g></g></g></g><g id="Grupo_2706" data-name="Grupo 2706"><g id="Grupo_2705" data-name="Grupo 2705"><g id="Grupo_2704" data-name="Grupo 2704"><g id="Grupo_2703" data-name="Grupo 2703"><rect id="Rectángulo_919" data-name="Rectángulo 919" class="cls-14" x="190.07" y="123.51" width="4.37" height="1.15" transform="translate(-9.62 231.81) rotate(-60.92)"/></g></g></g></g><g id="Grupo_2710" data-name="Grupo 2710"><g id="Grupo_2709" data-name="Grupo 2709"><g id="Grupo_2708" data-name="Grupo 2708"><g id="Grupo_2707" data-name="Grupo 2707"><path id="Trazado_3286" data-name="Trazado 3286" class="cls-15" d="M163.72,283.52a8.19,8.19,0,0,1,8.19-8.19h10.32v8.19Z"/></g></g></g></g><g id="Grupo_2714" data-name="Grupo 2714"><g id="Grupo_2713" data-name="Grupo 2713"><g id="Grupo_2712" data-name="Grupo 2712"><g id="Grupo_2711" data-name="Grupo 2711"><path id="Trazado_3287" data-name="Trazado 3287" class="cls-9" d="M167,92.8c5.09,0,4.47-3.8,4.47-3.8H167Z"/></g></g></g></g><path id="Trazado_1936" data-name="Trazado 1936" class="cls-4" d="M209.15,224.32H207v-3a2.23,2.23,0,0,0-.39-1.3,1.14,1.14,0,0,0-.93-.54H196a1.14,1.14,0,0,0-.93.54,2.16,2.16,0,0,0-.39,1.3v3h-2.17v-3a6,6,0,0,1,1-3.44,3.06,3.06,0,0,1,2.46-1.42h9.62a3,3,0,0,1,2.46,1.42,6,6,0,0,1,1,3.44Z"/><rect id="Rectángulo_598" data-name="Rectángulo 598" class="cls-4" x="181.22" y="222.28" width="7.1" height="1.58"/><rect id="Rectángulo_938" data-name="Rectángulo 938" class="cls-4" x="212.02" y="222.28" width="7.1" height="1.58"/><g id="Grupo_2715" data-name="Grupo 2715"><path id="Trazado_1937" data-name="Trazado 1937" class="cls-4" d="M226.71,280.69a3.69,3.69,0,0,1-.53,2,1.55,1.55,0,0,1-1.28.82H177.27a1.55,1.55,0,0,1-1.28-.82,3.69,3.69,0,0,1-.53-2V239.9H226.7Z"/><path id="Trazado_1938" data-name="Trazado 1938" class="cls-15" d="M226.71,237a21,21,0,0,1-3,11.2,8.9,8.9,0,0,1-7.25,4.65H185.71a8.89,8.89,0,0,1-7.24-4.65,21,21,0,0,1-3-11.2v-9.09a3.73,3.73,0,0,1,.53-2,1.6,1.6,0,0,1,1.28-.82h47.64a1.6,1.6,0,0,1,1.28.82,3.73,3.73,0,0,1,.53,2Z"/><rect id="Rectángulo_600" data-name="Rectángulo 600" class="cls-11" x="197.96" y="248.54" width="6.25" height="10.7"/><rect id="Rectángulo_601" data-name="Rectángulo 601" class="cls-4" x="197.96" y="224.8" width="6.25" height="22.39"/><rect id="Rectángulo_602" data-name="Rectángulo 602" class="cls-15" x="197.96" y="261.1" width="6.25" height="22.39"/></g><rect id="Rectángulo_603" data-name="Rectángulo 603" class="cls-4" x="183.09" y="181.94" width="3.35" height="39.36"/><rect id="Rectángulo_937" data-name="Rectángulo 937" class="cls-4" x="213.89" y="181.94" width="3.35" height="39.36"/><path id="Rectángulo_605" data-name="Rectángulo 605" class="cls-4" d="M182.88,177.22h33.25a5.62,5.62,0,0,1,5.62,5.63H178.89v-1.64A4,4,0,0,1,182.88,177.22Z"/><path id="Unión_9" data-name="Unión 9" class="cls-11" d="M201.13,160.9v-5.36h-5.36v-6.82h5.36v-5.36H208v5.36h5.36v6.82H208v5.36Z"/><g id="Grupo_2702" data-name="Grupo 2702"><g id="Grupo_2701" data-name="Grupo 2701"><g id="Grupo_2700" data-name="Grupo 2700"><g id="Grupo_2699" data-name="Grupo 2699"><path id="Trazado_3285" data-name="Trazado 3285" class="cls-2" d="M204.44,156.09h4.91v7.25a4.25,4.25,0,0,1-4.25,4.26h-3.67a4.25,4.25,0,0,1-4.25-4.26h0a7.25,7.25,0,0,1,7.26-7.25Z"/></g></g></g></g></g><rect class="cls-16" width="300" height="300"/></g></g></g></svg>