<svg xmlns="http://www.w3.org/2000/svg" viewBox="0 0 300 300"><defs><style>.cls-1{fill:none;}.cls-2{fill:#343b43;}.cls-3{fill:#495057;}.cls-4{fill:#fff;}</style></defs><title>iconoSolicitudVisita</title><g id="Capa_2" data-name="Capa 2"><g id="Capa_1-2" data-name="Capa 1"><g id="iconoSolicitudVisita"><rect class="cls-1" width="300" height="300"/><g id="Grupo_2907" data-name="Grupo 2907"><path id="Trazado_1936" data-name="Trazado 1936" class="cls-2" d="M170.22,134.85h-5.43v-7.57a5.59,5.59,0,0,0-1-3.27,2.91,2.91,0,0,0-2.35-1.37H137.3A2.91,2.91,0,0,0,135,124a5.59,5.59,0,0,0-1,3.27v7.57h-5.43v-7.57a14.85,14.85,0,0,1,2.56-8.64,7.69,7.69,0,0,1,6.2-3.58h24.16a7.69,7.69,0,0,1,6.2,3.58,14.92,14.92,0,0,1,2.56,8.64Z"/><rect id="Rectángulo_598" data-name="Rectángulo 598" class="cls-2" x="100.07" y="129.73" width="17.85" height="3.98"/><rect id="Rectángulo_938" data-name="Rectángulo 938" class="cls-2" x="177.47" y="129.73" width="17.85" height="3.98"/><g id="Grupo_2715" data-name="Grupo 2715"><path id="Trazado_1937" data-name="Trazado 1937" class="cls-2" d="M214.39,276.49a9.34,9.34,0,0,1-1.33,5,4,4,0,0,1-3.22,2.06H90.16a4,4,0,0,1-3.22-2.06,9.34,9.34,0,0,1-1.33-5V174H214.39Z"/><path id="Trazado_1938" data-name="Trazado 1938" class="cls-3" d="M214.39,166.66a52.61,52.61,0,0,1-7.55,28.17c-5,7.78-11.62,11.67-18.21,11.67H111.37c-6.59,0-13.19-3.89-18.21-11.67a52.61,52.61,0,0,1-7.55-28.17V143.81a9.28,9.28,0,0,1,1.33-5,3.92,3.92,0,0,1,3.22-2.06H209.84a3.92,3.92,0,0,1,3.22,2.06,9.28,9.28,0,0,1,1.33,5Z"/><rect id="Rectángulo_600" data-name="Rectángulo 600" class="cls-4" x="142.15" y="195.7" width="15.71" height="26.89"/><rect id="Rectángulo_601" data-name="Rectángulo 601" class="cls-2" x="142.15" y="136.05" width="15.71" height="56.26"/><rect id="Rectángulo_602" data-name="Rectángulo 602" class="cls-3" x="142.15" y="227.26" width="15.71" height="56.26"/></g><rect id="Rectángulo_603" data-name="Rectángulo 603" class="cls-2" x="104.78" y="28.35" width="8.42" height="98.91"/><rect id="Rectángulo_937" data-name="Rectángulo 937" class="cls-2" x="182.18" y="28.35" width="8.42" height="98.91"/><path id="Rectángulo_605" data-name="Rectángulo 605" class="cls-2" d="M104.24,16.48h83.52a14.16,14.16,0,0,1,14.17,14.16H94.21V26.5a10,10,0,0,1,10-10Z"/></g></g></g></g></svg>