<svg xmlns="http://www.w3.org/2000/svg" viewBox="0 0 300 300"><defs><style>.cls-1{fill:#ef172f;}.cls-2{fill:#e4e5e7;}.cls-3{fill:#cccbca;}.cls-4{fill:#43d3e8;}.cls-5{fill:#f96232;}.cls-6{fill:#fff;}.cls-7{fill:#495057;}.cls-8{fill:#343b43;}.cls-9{fill:#58b4d9;}.cls-10{fill:#8fdef6;}.cls-11{fill:#e6e5e5;}.cls-12{fill:none;}</style></defs><title>iconoFarmacovigilancia</title><g id="Capa_2" data-name="Capa 2"><g id="Capa_1-2" data-name="Capa 1"><g id="iconoFarmacovigilancia"><g id="Grupo_2745" data-name="Grupo 2745"><path id="Trazado_3203" data-name="Trazado 3203" class="cls-1" d="M191.21,94c3.08,6.49,26.21-66.81-25.89-72.15-37.19.53-47,20.69-57,43.44C107.2,63,67.23,8,27.36,40.76-23.73,105.05,100.09,170,100.09,170S21,98.12,49.76,68.94c20.89-21.17,60,14.85,60,14.85s19.33-42.74,45.59-40.29C187.47,46.53,189.89,91.26,191.21,94Z"/><g id="Grupo_2735" data-name="Grupo 2735"><path id="Intersección_2" data-name="Intersección 2" class="cls-2" d="M97.77,159.87H229.54a65.89,65.89,0,0,0-131.77,0Z"/><rect id="Rectángulo_933" data-name="Rectángulo 933" class="cls-3" x="98.24" y="157.95" width="131.22" height="7.46"/><g id="Grupo_2734" data-name="Grupo 2734"><path id="Intersección_1" data-name="Intersección 1" class="cls-4" d="M97.77,164.74H229.54a65.89,65.89,0,0,1-131.77,0Z"/><g id="Grupo_2730" data-name="Grupo 2730"><path id="Trazado_3308" data-name="Trazado 3308" class="cls-5" d="M176,251.58a29.6,29.6,0,0,0,41.85,0l31.38-31.39-41.85-41.84L176,209.73a29.59,29.59,0,0,0,0,41.85Z"/><path id="Trazado_3312" data-name="Trazado 3312" class="cls-2" d="M276.33,151.22a29.59,29.59,0,0,0-41.84,0L203.1,182.61,245,224.45l31.38-31.38A29.59,29.59,0,0,0,276.33,151.22Z"/><path id="Trazado_3309" data-name="Trazado 3309" class="cls-6" d="M182.84,244.7a19.89,19.89,0,0,1,0-28.13l5.26,5.26a12.46,12.46,0,0,0,0,17.6Z"/></g><g id="Grupo_2721" data-name="Grupo 2721"><rect id="Rectángulo_932" data-name="Rectángulo 932" class="cls-7" x="86.1" y="224.65" width="10.17" height="9.13" transform="translate(-143.01 151.73) rotate(-50)"/><g id="Grupo_2720" data-name="Grupo 2720"><path id="Trazado_3290" data-name="Trazado 3290" class="cls-8" d="M154.84,153.34a48.05,48.05,0,1,0,5.93,67.7h0a48.06,48.06,0,0,0-5.93-67.7Z"/><path id="Trazado_3291" data-name="Trazado 3291" class="cls-9" d="M99.24,219.62a38.45,38.45,0,1,1,54.18-4.74,38.46,38.46,0,0,1-54.18,4.74Z"/><path id="Trazado_3292" data-name="Trazado 3292" class="cls-10" d="M104.17,213.73a30.78,30.78,0,1,1,43.37-3.79,30.79,30.79,0,0,1-43.37,3.79Z"/><path id="Trazado_3293" data-name="Trazado 3293" class="cls-6" d="M128.06,193.6a5.36,5.36,0,1,1-.66-7.55,5.35,5.35,0,0,1,.66,7.55Z"/><path id="Trazado_3294" data-name="Trazado 3294" class="cls-6" d="M131.17,174.81a12,12,0,1,1-1.49-17h0A12,12,0,0,1,131.17,174.81Z"/></g><path id="Trazado_3295" data-name="Trazado 3295" class="cls-8" d="M92,242.19,64.54,274.93a9,9,0,0,1-13.76-11.54l27.48-32.75Z"/><path id="Trazado_3296" data-name="Trazado 3296" class="cls-11" d="M92,242.18,78.27,230.64l.7-.84a3.2,3.2,0,0,1,4.51-.41h0l8.85,7.43a3.2,3.2,0,0,1,.39,4.51h0Z"/></g></g></g></g><rect class="cls-12" width="300" height="300"/></g></g></g></svg>