<svg xmlns="http://www.w3.org/2000/svg" viewBox="0 0 300 300"><defs><style>.cls-1{fill:#f07400;}.cls-2{fill:#f67656;}.cls-3{fill:#e66847;}.cls-4{fill:#d65a38;}.cls-5{fill:#efefef;}.cls-6{fill:#d9d8d7;}.cls-7{fill:#3f4a5a;}.cls-8{fill:#262e37;}.cls-9{fill:#fff;}.cls-10{fill:#9de8f7;}.cls-11{fill:#333c49;}.cls-12{fill:none;}</style></defs><title>iconoCalculadoras</title><g id="Capa_2" data-name="Capa 2"><g id="Capa_1-2" data-name="Capa 1"><g id="iconoCalculadoras"><g id="Grupo_2856" data-name="Grupo 2856"><path id="Trazado_3204" data-name="Trazado 3204" class="cls-1" d="M191.88,89.16c3.09,6.52,26.31-67.06-26-72.42-37.33.53-47.2,20.77-57.24,43.61-1.1-2.3-41.22-57.54-81.25-24.66-51.27,64.53,73,129.76,73,129.76S21.06,93.27,49.9,64c21-21.25,60.21,14.91,60.21,14.91S129.51,36,155.88,38.44C188.13,41.49,190.56,86.39,191.88,89.16Z"/><g id="Grupo_2855" data-name="Grupo 2855"><g id="Grupo_2841" data-name="Grupo 2841"><rect id="Rectángulo_1008" data-name="Rectángulo 1008" class="cls-2" x="267.66" y="161.83" width="5.77" height="105.65"/><rect id="Rectángulo_1009" data-name="Rectángulo 1009" class="cls-3" x="273.43" y="161.83" width="5.78" height="105.65"/><rect id="Rectángulo_1010" data-name="Rectángulo 1010" class="cls-4" x="279.22" y="161.83" width="5.78" height="105.65"/><path id="Trazado_3394" data-name="Trazado 3394" class="cls-5" d="M285,161.83l-5.8-10h-5.75l-5.79,10Z"/><path id="Trazado_3395" data-name="Trazado 3395" class="cls-6" d="M285,161.83h-5.78l-1.93-10h1.91Z"/><path id="Trazado_3396" data-name="Trazado 3396" class="cls-7" d="M279.2,151.81l-2.88-5-2.88,5Z"/><rect id="Rectángulo_1011" data-name="Rectángulo 1011" class="cls-6" x="279.21" y="267.48" width="5.78" height="5.77"/><rect id="Rectángulo_1012" data-name="Rectángulo 1012" class="cls-5" x="267.66" y="267.48" width="11.55" height="5.77"/><path id="Trazado_3397" data-name="Trazado 3397" class="cls-8" d="M285,274.6v-1.35H279.2v1.35a8.63,8.63,0,0,1-2.52,6.11,8.49,8.49,0,0,1-3.26,2A8.66,8.66,0,0,0,285,274.6Z"/><path id="Trazado_3398" data-name="Trazado 3398" class="cls-7" d="M279.21,274.6v-1.35H267.66v1.35a8.68,8.68,0,0,0,5.77,8.15,8.38,8.38,0,0,0,3.25-2A8.64,8.64,0,0,0,279.21,274.6Z"/></g><g id="Grupo_2854" data-name="Grupo 2854"><path id="Trazado_3399" data-name="Trazado 3399" class="cls-7" d="M112.46,283.25a6.73,6.73,0,0,1-6.72-6.72V167.62H256.07V276.54a6.72,6.72,0,0,1-6.72,6.72Z"/><g id="Grupo_2852" data-name="Grupo 2852"><g id="Grupo_2842" data-name="Grupo 2842"><path id="Rectángulo_1013" data-name="Rectángulo 1013" class="cls-2" d="M188,179.18h20.61a1.26,1.26,0,0,1,1.25,1.26h0v20.62a1.25,1.25,0,0,1-1.25,1.25H188a1.25,1.25,0,0,1-1.26-1.26h0v-20.6a1.26,1.26,0,0,1,1.26-1.27Z"/></g><g id="Grupo_2843" data-name="Grupo 2843"><rect id="Rectángulo_1014" data-name="Rectángulo 1014" class="cls-9" x="117.32" y="213.87" width="23.13" height="23.14" rx="1.26"/></g><g id="Grupo_2844" data-name="Grupo 2844"><path id="Rectángulo_1015" data-name="Rectángulo 1015" class="cls-9" d="M153.27,213.87h20.61a1.26,1.26,0,0,1,1.26,1.26h0v20.62a1.27,1.27,0,0,1-1.26,1.26H153.27a1.27,1.27,0,0,1-1.26-1.26h0V215.13a1.27,1.27,0,0,1,1.26-1.26Z"/></g><g id="Grupo_2845" data-name="Grupo 2845"><rect id="Rectángulo_1016" data-name="Rectángulo 1016" class="cls-9" x="117.32" y="248.57" width="23.13" height="23.13" rx="1.26"/></g><g id="Grupo_2846" data-name="Grupo 2846"><path id="Rectángulo_1017" data-name="Rectángulo 1017" class="cls-9" d="M153.27,248.57h20.61a1.26,1.26,0,0,1,1.26,1.25h0v20.62a1.27,1.27,0,0,1-1.26,1.26H153.27a1.26,1.26,0,0,1-1.26-1.26h0V249.83a1.26,1.26,0,0,1,1.26-1.26Z"/></g><g id="Grupo_2847" data-name="Grupo 2847"><rect id="Rectángulo_1018" data-name="Rectángulo 1018" class="cls-9" x="221.39" y="179.18" width="23.13" height="23.13" rx="1.26"/></g><g id="Grupo_2848" data-name="Grupo 2848"><path id="Rectángulo_1019" data-name="Rectángulo 1019" class="cls-9" d="M188,213.87h20.61a1.25,1.25,0,0,1,1.25,1.26h0v20.62a1.26,1.26,0,0,1-1.26,1.26H188a1.26,1.26,0,0,1-1.26-1.26h0V215.13a1.26,1.26,0,0,1,1.26-1.26Z"/></g><g id="Grupo_2849" data-name="Grupo 2849"><rect id="Rectángulo_1020" data-name="Rectángulo 1020" class="cls-9" x="221.39" y="213.87" width="23.13" height="23.14" rx="1.26"/></g><g id="Grupo_2850" data-name="Grupo 2850"><path id="Rectángulo_1021" data-name="Rectángulo 1021" class="cls-9" d="M188,248.57h20.61a1.25,1.25,0,0,1,1.25,1.25h0v20.62a1.26,1.26,0,0,1-1.25,1.26H188a1.26,1.26,0,0,1-1.26-1.27h0v-20.6a1.25,1.25,0,0,1,1.26-1.26Z"/></g><g id="Grupo_2851" data-name="Grupo 2851"><rect id="Rectángulo_1022" data-name="Rectángulo 1022" class="cls-9" x="221.39" y="248.57" width="23.13" height="23.13" rx="1.26"/></g></g><rect id="Rectángulo_1023" data-name="Rectángulo 1023" class="cls-9" x="105.75" y="161.84" width="150.33" height="5.78"/><path id="Trazado_3400" data-name="Trazado 3400" class="cls-7" d="M105.75,161.83V110.74a6.74,6.74,0,0,1,6.73-6.72H249.36a6.74,6.74,0,0,1,6.73,6.72v51.09Z"/><rect id="Rectángulo_1024" data-name="Rectángulo 1024" class="cls-10" x="117.32" y="115.57" width="127.2" height="34.7" rx="1.26"/><g id="Grupo_2853" data-name="Grupo 2853"><rect id="Rectángulo_1025" data-name="Rectángulo 1025" class="cls-8" x="117.32" y="182.08" width="57.82" height="17.35"/><rect id="Rectángulo_1026" data-name="Rectángulo 1026" class="cls-11" x="120.2" y="184.97" width="52.04" height="11.57"/><rect id="Rectángulo_1027" data-name="Rectángulo 1027" class="cls-8" x="153.94" y="184.97" width="2.88" height="11.57"/><rect id="Rectángulo_1028" data-name="Rectángulo 1028" class="cls-8" x="135.62" y="184.97" width="2.89" height="11.57"/></g></g></g></g><rect class="cls-12" width="300" height="300"/></g></g></g></svg>