<svg xmlns="http://www.w3.org/2000/svg" xmlns:xlink="http://www.w3.org/1999/xlink" viewBox="0 0 321.15 266.5"><defs><style>.cls-1{fill:#c3c3c3;}.cls-2{fill:#eac19a;}.cls-3{fill:#77532d;}.cls-4,.cls-53{fill:#fff;}.cls-5{fill:#ced2da;}.cls-6{fill:#171a1b;}.cls-7{fill:#e4e4e4;}.cls-8{fill:#efefef;}.cls-9{fill:#e5bc9a;}.cls-10{fill:#edb68a;}.cls-11{fill:#e2b48f;}.cls-12{fill:#686864;}.cls-13{fill:#6fa558;}.cls-14{fill:#464648;}.cls-15{fill:#333;}.cls-16{fill:#222423;}.cls-17{fill:url(#Degradado_sin_nombre_5);}.cls-18{fill:#e9b98b;}.cls-19{fill:url(#Degradado_sin_nombre_5-2);}.cls-20{fill:#0c073d;}.cls-21{fill:#4c2e46;}.cls-22{fill:#2d1b2b;}.cls-23{fill:#fece66;}.cls-24{fill:#f07400;}.cls-25{fill:url(#Degradado_sin_nombre_5-3);}.cls-26{fill:url(#Degradado_sin_nombre_6);}.cls-27{fill:url(#Degradado_sin_nombre_5-4);}.cls-28{fill:url(#Degradado_sin_nombre_6-2);}.cls-29{fill:#faa085;}.cls-30{fill:#522921;}.cls-31{fill:#282f39;}.cls-32{fill:#363e49;}.cls-33{fill:#3b4551;}.cls-34{fill:#f0856b;}.cls-35{fill:#7d251b;}.cls-36{fill:#e45559;}.cls-37{fill:#111;opacity:0.05;}.cls-37,.cls-53,.cls-54{isolation:isolate;}.cls-38{fill:#300000;}.cls-39{fill:#c61818;}.cls-40{fill:#f22020;}.cls-41{opacity:0.46;}.cls-42{fill:#e51f1f;}.cls-43{opacity:0.25;}.cls-44{fill:#a31111;}.cls-45{opacity:0.61;}.cls-46{fill:#a50a0a;}.cls-47{fill:#ba1717;}.cls-48{opacity:0.63;}.cls-49{opacity:0.5;}.cls-50{fill:#ff5a5a;}.cls-51{opacity:0.19;}.cls-52{opacity:0.12;}.cls-53{opacity:0.31;}.cls-54{fill:#a50000;opacity:0.47;}.cls-55{fill:#c90505;}.cls-56{fill:#3d0000;}.cls-57{fill:#a1e2ff;}.cls-58{fill:#c7f1ff;}.cls-59{fill:#ff534a;}.cls-60{fill:#ef3f3a;}.cls-61{fill:#773c01;}.cls-62{fill:#89006b;}.cls-63{fill:#ef172f;}.cls-64{fill:#009fd0;}.cls-65{fill:#35c567;}.cls-66{fill:#2a85a6;}.cls-67{fill:#424448;}</style><linearGradient id="Degradado_sin_nombre_5" x1="-847.82" y1="184.47" x2="-846.82" y2="184.47" gradientTransform="matrix(1.55, 0, 0, -1.55, 1459.46, 339.33)" gradientUnits="userSpaceOnUse"><stop offset="0" stop-color="#eac19a"/><stop offset="0.67" stop-color="#feb088"/><stop offset="0.91" stop-color="#fba98b"/><stop offset="1" stop-color="#f9a48e"/></linearGradient><linearGradient id="Degradado_sin_nombre_5-2" x1="-847.99" y1="184.47" x2="-846.99" y2="184.47" gradientTransform="matrix(1.55, 0, 0, -1.55, 1468.34, 339.33)" xlink:href="#Degradado_sin_nombre_5"/><linearGradient id="Degradado_sin_nombre_5-3" x1="-1119.8" y1="245.71" x2="-1119.83" y2="245.37" gradientTransform="matrix(3.55, 0, 0, -2.83, 4104.06, 791.41)" xlink:href="#Degradado_sin_nombre_5"/><linearGradient id="Degradado_sin_nombre_6" x1="-747.55" y1="24.98" x2="-747.6" y2="24.64" gradientTransform="matrix(1.23, 0, 0, -1.23, 1029.7, 251.67)" gradientUnits="userSpaceOnUse"><stop offset="0" stop-color="#e9b98b"/><stop offset="0.67" stop-color="#feb088"/><stop offset="0.91" stop-color="#fba98b"/><stop offset="1" stop-color="#f9a48e"/></linearGradient><linearGradient id="Degradado_sin_nombre_5-4" x1="-1118.22" y1="245.71" x2="-1118.19" y2="245.37" gradientTransform="matrix(3.55, 0, 0, -2.83, 4113.89, 791.9)" xlink:href="#Degradado_sin_nombre_5"/><linearGradient id="Degradado_sin_nombre_6-2" x1="-715.95" y1="24.98" x2="-715.9" y2="24.64" gradientTransform="matrix(1.23, 0, 0, -1.23, 1039.27, 252.16)" xlink:href="#Degradado_sin_nombre_6"/></defs><title>imgbottomHome</title><g id="Capa_2" data-name="Capa 2"><g id="Capa_1-2" data-name="Capa 1"><g id="Grupo_2741" data-name="Grupo 2741"><path id="Trazado_2924" data-name="Trazado 2924" class="cls-1" d="M55.62,144.36c-2.87-2.5-46.24-33-42.33,6.48.52,5.26.6,8.84,2.6,22.7,0,.1-1.23,47.1-1.23,47.1H45.12l-1.41-43.22c.8-4.27.44-10.14,2.49-13.84C49.79,157.1,58.86,147.17,55.62,144.36Z"/><path id="Trazado_2925" data-name="Trazado 2925" class="cls-2" d="M47.94,219.34H17.49V176.1l29-2.56Z"/><rect id="Rectángulo_838" data-name="Rectángulo 838" class="cls-3" x="62.36" width="144.99" height="196.52" rx="3"/><rect id="Rectángulo_839" data-name="Rectángulo 839" class="cls-4" x="72.01" y="12.05" width="125.71" height="173.05"/><path id="Trazado_2926" data-name="Trazado 2926" class="cls-5" d="M157.1,2.81H112.63A6.56,6.56,0,0,0,106,9.27V21.16a6.56,6.56,0,0,0,6.62,6.46H157.1a6.56,6.56,0,0,0,6.61-6.46V9.27A6.56,6.56,0,0,0,157.1,2.81Zm3.7,17a5.61,5.61,0,0,1-5.66,5.52H114.58a5.61,5.61,0,0,1-5.66-5.52V10.66a5.61,5.61,0,0,1,5.66-5.52h40.56a5.61,5.61,0,0,1,5.66,5.52Z"/><path id="Rectángulo_840" data-name="Rectángulo 840" class="cls-6" d="M112.57,23.76h44.58a2.16,2.16,0,0,1,2.16,2.15h0a2.16,2.16,0,0,1-2.16,2.16H112.57a2.16,2.16,0,0,1-2.15-2.16h0A2.15,2.15,0,0,1,112.57,23.76Z"/><rect id="Rectángulo_841" data-name="Rectángulo 841" class="cls-6" x="110.42" y="2.8" width="48.89" height="4.67" rx="1.75"/><g id="Grupo_2278" data-name="Grupo 2278"><rect id="Rectángulo_842" data-name="Rectángulo 842" class="cls-1" y="196.44" width="9.71" height="70.06"/><rect id="Rectángulo_843" data-name="Rectángulo 843" class="cls-7" x="6.47" y="188.01" width="52.49" height="10.37"/><rect id="Rectángulo_844" data-name="Rectángulo 844" class="cls-1" x="53.13" y="188.01" width="5.51" height="10.37"/><rect id="Rectángulo_845" data-name="Rectángulo 845" class="cls-8" x="2.92" y="192.23" width="59.92" height="74.27"/><rect id="Rectángulo_846" data-name="Rectángulo 846" class="cls-7" x="53.13" y="192.23" width="9.71" height="74.27"/><g id="Grupo_2272" data-name="Grupo 2272"><path id="Trazado_2931" data-name="Trazado 2931" class="cls-1" d="M58,207.17a3.7,3.7,0,1,0,3.7,3.71,3.7,3.7,0,0,0-3.7-3.71Zm-1.69,4.34a.64.64,0,0,1-.64-.64.64.64,0,0,1,.64-.63.63.63,0,0,1,.63.63h0a.63.63,0,0,1-.63.63Zm3.39,0a.64.64,0,0,1-.64-.64.64.64,0,0,1,.64-.63.63.63,0,0,1,.63.63h0a.63.63,0,0,1-.63.63Z"/></g><g id="Grupo_2273" data-name="Grupo 2273"><path id="Trazado_2932" data-name="Trazado 2932" class="cls-4" d="M57.84,207.13a3.56,3.56,0,1,0,3.56,3.56h0A3.56,3.56,0,0,0,57.84,207.13Zm-1.63,4.17a.62.62,0,0,1-.61-.61.61.61,0,0,1,.61-.61.61.61,0,0,1,.61.61h0a.61.61,0,0,1-.61.61Zm3.26,0a.61.61,0,0,1-.61-.61.61.61,0,0,1,1.22,0,.61.61,0,0,1-.61.61Z"/></g><g id="Grupo_2274" data-name="Grupo 2274"><path id="Trazado_2933" data-name="Trazado 2933" class="cls-1" d="M58,220.53a3.7,3.7,0,1,0,3.7,3.7,3.7,3.7,0,0,0-3.7-3.7Zm-1.69,4.34a.63.63,0,0,1-.63-.63.64.64,0,0,1,.63-.64.64.64,0,0,1,.64.64.64.64,0,0,1-.64.63Zm3.39,0a.64.64,0,0,1-.64-.63.64.64,0,0,1,.64-.64.64.64,0,0,1,.63.64.63.63,0,0,1-.63.63Z"/></g><g id="Grupo_2275" data-name="Grupo 2275"><path id="Trazado_2934" data-name="Trazado 2934" class="cls-4" d="M57.87,220.49a3.56,3.56,0,1,0,3.56,3.56,3.56,3.56,0,0,0-3.56-3.56Zm-1.63,4.17a.61.61,0,0,1,0-1.22.61.61,0,0,1,.61.61h0a.61.61,0,0,1-.61.61Zm3.26,0a.61.61,0,1,1,.61-.61h0A.61.61,0,0,1,59.5,224.66Z"/></g><g id="Grupo_2276" data-name="Grupo 2276"><path id="Trazado_2935" data-name="Trazado 2935" class="cls-1" d="M58,235a3.7,3.7,0,1,0,3.7,3.7A3.7,3.7,0,0,0,58,235Zm-1.69,4.33a.63.63,0,0,1-.63-.63.64.64,0,0,1,.63-.64.64.64,0,0,1,.64.64.64.64,0,0,1-.64.63Zm3.39,0a.64.64,0,0,1-.64-.63.64.64,0,0,1,.64-.64.64.64,0,0,1,.63.64.63.63,0,0,1-.63.63Z"/></g><g id="Grupo_2277" data-name="Grupo 2277"><path id="Trazado_2936" data-name="Trazado 2936" class="cls-4" d="M57.87,235a3.56,3.56,0,1,0,3.56,3.56A3.56,3.56,0,0,0,57.87,235Zm-1.63,4.17a.61.61,0,0,1-.61-.61.62.62,0,0,1,.61-.61.61.61,0,0,1,.61.61.6.6,0,0,1-.6.61Zm3.26,0a.61.61,0,0,1-.61-.61.61.61,0,1,1,1.22,0A.61.61,0,0,1,59.5,239.13Z"/></g></g><g id="Grupo_2279" data-name="Grupo 2279"><path id="Trazado_2937" data-name="Trazado 2937" class="cls-9" d="M63,102.79c-5.81,5.63-7.19,10-15.25,6.12-4.14-2,.42-10.41,4.86-15.33s11.7-10.27,15.33-7.52C73,89.88,67.77,98.17,63,102.79Z"/><path id="Trazado_2938" data-name="Trazado 2938" class="cls-9" d="M50.07,121.85c-4.39,10.93-2.13,27.53-13.12,16.52-4.38-4.38-5.28-10.53,0-21.06S49.31,94.64,54.75,96.83C65.1,101,54.22,111.48,50.07,121.85Z"/><path id="Trazado_2939" data-name="Trazado 2939" class="cls-10" d="M61.87,91.27a8.84,8.84,0,0,0,2-2.07c-.46-1.77-.9-2.33-2.56-3.61a7.6,7.6,0,0,0-2.5,1.32,19.87,19.87,0,0,0-6.14,6.72,3.88,3.88,0,0,0,.31.26C55.51,95.78,57.62,95,61.87,91.27Z"/></g><path id="Trazado_2940" data-name="Trazado 2940" class="cls-2" d="M19.13,129c-3.26,5.17-4.32,5.53-4.32,15.6,0,3.83,1.09,19.57,2.39,31.43,5.85,3.18,22.41.56,29,1.65,1.3-4.33.52-11.17,4.43-13.9,3.13-2.19,5-3.51,8-5.83,1.63-1.26,3-4,4.2-5.62,2.07-2.72,5.12-7.82,4.28-8.18a81.84,81.84,0,0,0-14.46-4.25c-4.72-.53-8.31-2.17-7.48-15.26.16-2.56-4.17-16.56-5.32-17.23-.74-.44-2.41.66-4.83,2.88C33.46,111.76,26.9,116.72,19.13,129Z"/><g id="Grupo_2285" data-name="Grupo 2285"><path id="Trazado_2958" data-name="Trazado 2958" class="cls-2" d="M58.09,128.67c-11.67,11.1-13.14,19.25-11.35,22.8,2,3.9,13.7,11.41,21.93-9,5.1-12.67,21.11-23.48,7.71-28.8C71.45,111.67,67.09,120.12,58.09,128.67Z"/><path id="Trazado_2959" data-name="Trazado 2959" class="cls-10" d="M70.92,125.36c2.07,1.65,5.72.41,8.15-2.75a8.33,8.33,0,0,0,.54-.78,7.56,7.56,0,0,0-2.69-4.28,7.33,7.33,0,0,0-4.75-1.61,8.57,8.57,0,0,0-.61.72C69.13,119.83,68.85,123.72,70.92,125.36Z"/><path id="Trazado_2960" data-name="Trazado 2960" class="cls-11" d="M64,126.36s.17,0,.47,0a4.15,4.15,0,0,1,.54,0c.22,0,.44.09.69.15a7.13,7.13,0,0,1,.78.26,8.93,8.93,0,0,1,.84.37c.28.14.56.3.85.48s.56.36.83.57a7.92,7.92,0,0,1,.77.64c.25.22.48.45.7.68a9,9,0,0,1,.58.7l.26.34.21.34c.12.2.23.4.33.61a4.46,4.46,0,0,1,.22.5,4.67,4.67,0,0,1,.14.45l-.38-.27c-.11-.1-.26-.2-.42-.32s-.33-.26-.53-.4l-1.3-1-.72-.55-.75-.57c-.25-.2-.5-.37-.75-.56l-.73-.55-1.3-1-1-.69C64.11,126.47,64,126.36,64,126.36Z"/><path id="Trazado_2961" data-name="Trazado 2961" class="cls-11" d="M61.44,130h.47l.54.06c.21,0,.44.09.69.15a5.48,5.48,0,0,1,.78.26,7.91,7.91,0,0,1,.84.37c.28.14.56.3.85.47s.56.37.83.57a9.68,9.68,0,0,1,.77.64,9.13,9.13,0,0,1,.7.69,8,8,0,0,1,.58.7l.25.34.22.33c.12.2.23.4.33.61s.15.33.22.5.14.45.14.45l-.38-.27-.42-.31c-.16-.12-.33-.26-.53-.4l-1.3-1-.72-.55-.75-.56c-.24-.2-.5-.38-.75-.57l-.73-.54-1.3-1-.94-.69C61.58,130.11,61.44,130,61.44,130Z"/></g><g id="Grupo_2286" data-name="Grupo 2286"><path id="Trazado_2962" data-name="Trazado 2962" class="cls-2" d="M56.46,104.09c-4.8,3.23-8.28,7-13.78,1.58-2.83-2.8,2.92-9.06,7.72-12.28s12-6.1,14.19-2.78C67.7,95.24,61.26,100.88,56.46,104.09Z"/><path id="Trazado_2963" data-name="Trazado 2963" class="cls-2" d="M48.61,117.44c-5.35,13.47-10.75,16-14.71,14.22-4.83-2.21-4.31-11-.1-19.12s12.6-18.72,17.08-16.4C59.4,100.58,52,109,48.61,117.44Z"/><path id="Trazado_2964" data-name="Trazado 2964" class="cls-10" d="M58,94.28a8.81,8.81,0,0,0,2.34-1.4,5,5,0,0,0-1.09-3.95,6.87,6.87,0,0,0-2.56.58,20,20,0,0,0-7.37,4.61,2.58,2.58,0,0,0,.18.32C51.14,96.81,53.19,96.66,58,94.28Z"/></g><path id="Trazado_3039" data-name="Trazado 3039" class="cls-1" d="M208.65,212l31.63,54.49h11l-34.4-59.26Z"/><path id="Trazado_3040" data-name="Trazado 3040" class="cls-7" d="M221,208.16l44.24-25.83-5.08-8.77-44.25,25.83Z"/><path id="Trazado_3041" data-name="Trazado 3041" class="cls-1" d="M221.23,208l4.64-2.71-5.08-8.77-4.64,2.71Z"/><path id="Trazado_3043" data-name="Trazado 3043" class="cls-7" d="M214.67,204.87l35.76,61.63h11.48l-38.66-66.64Z"/><g id="Grupo_2302" data-name="Grupo 2302"><path id="Trazado_3044" data-name="Trazado 3044" class="cls-1" d="M224.82,220a3.61,3.61,0,1,0,1.3-4.95,3.6,3.6,0,0,0-1.3,4.95Zm4-2.34a.63.63,0,0,1,.22-.85.62.62,0,0,1,.63,1.07h0a.63.63,0,0,1-.85-.22ZM226,219.37a.61.61,0,0,1,.22-.85.62.62,0,1,1,.62,1.07h0a.62.62,0,0,1-.84-.22Z"/></g><g id="Grupo_2303" data-name="Grupo 2303"><path id="Trazado_3045" data-name="Trazado 3045" class="cls-4" d="M224.94,219.76A3.48,3.48,0,1,0,226.2,215a3.48,3.48,0,0,0-1.26,4.76Zm3.86-2.25a.6.6,0,0,1,1-.61.61.61,0,0,1-.22.82h0a.6.6,0,0,1-.82-.21Zm-2.74,1.6a.6.6,0,1,1,.82.21h0a.6.6,0,0,1-.82-.21Z"/></g><g id="Grupo_2304" data-name="Grupo 2304"><path id="Trazado_3046" data-name="Trazado 3046" class="cls-1" d="M231.34,231.36a3.62,3.62,0,1,0,1.3-5,3.62,3.62,0,0,0-1.3,5Zm4-2.34a.62.62,0,0,1,1.07-.63.62.62,0,0,1-.23.85h0a.62.62,0,0,1-.84-.22Zm-2.86,1.66a.61.61,0,0,1,.23-.84.6.6,0,0,1,.84.22.61.61,0,0,1-.22.85h0A.62.62,0,0,1,232.5,230.68Z"/></g><g id="Grupo_2305" data-name="Grupo 2305"><path id="Trazado_3047" data-name="Trazado 3047" class="cls-4" d="M231.47,231.08a3.48,3.48,0,1,0,1.25-4.77,3.48,3.48,0,0,0-1.25,4.77Zm3.86-2.26a.59.59,0,0,1,.21-.82.6.6,0,0,1,.61,1h0a.6.6,0,0,1-.82-.22Zm-2.75,1.6a.6.6,0,0,1,1-.61.6.6,0,0,1-.21.82h0a.61.61,0,0,1-.82-.21Z"/></g><g id="Grupo_2310" data-name="Grupo 2310"><path id="Trazado_3050" data-name="Trazado 3050" class="cls-12" d="M94.87,123.53H89.4A4.45,4.45,0,0,1,85,119.08v-5.47a4.45,4.45,0,0,1,4.45-4.45h5.47a4.45,4.45,0,0,1,4.45,4.45v5.47A4.45,4.45,0,0,1,94.87,123.53ZM89.4,111a2.66,2.66,0,0,0-2.66,2.66v5.47a2.67,2.67,0,0,0,2.66,2.66h5.47a2.67,2.67,0,0,0,2.66-2.66v-5.47A2.66,2.66,0,0,0,94.87,111Z"/></g><g id="Grupo_2311" data-name="Grupo 2311"><path id="Trazado_3051" data-name="Trazado 3051" class="cls-12" d="M94.87,143.78H89.4A4.46,4.46,0,0,1,85,139.32v-5.46a4.46,4.46,0,0,1,4.45-4.46h5.47a4.46,4.46,0,0,1,4.45,4.46v5.46A4.46,4.46,0,0,1,94.87,143.78ZM89.4,131.2a2.66,2.66,0,0,0-2.66,2.66v5.46A2.66,2.66,0,0,0,89.4,142h5.47a2.66,2.66,0,0,0,2.66-2.66v-5.46a2.66,2.66,0,0,0-2.66-2.66Z"/></g><g id="Grupo_2312" data-name="Grupo 2312"><path id="Trazado_3052" data-name="Trazado 3052" class="cls-12" d="M94.87,164.27H89.4A4.46,4.46,0,0,1,85,159.81v-5.46a4.45,4.45,0,0,1,4.45-4.46h5.47a4.45,4.45,0,0,1,4.45,4.46v5.46A4.46,4.46,0,0,1,94.87,164.27ZM89.4,151.68a2.66,2.66,0,0,0-2.66,2.66v5.47a2.66,2.66,0,0,0,2.66,2.65h5.47a2.66,2.66,0,0,0,2.66-2.65v-5.47a2.66,2.66,0,0,0-2.66-2.66Z"/></g><g id="Grupo_2313" data-name="Grupo 2313"><path id="Rectángulo_852" data-name="Rectángulo 852" class="cls-13" d="M91,113.22l2,4.9a1.06,1.06,0,0,1-.59,1.39h0a1.06,1.06,0,0,1-1.38-.59L89,114a1.06,1.06,0,0,1,.58-1.39h0a1.06,1.06,0,0,1,1.38.58Z"/><path id="Trazado_3053" data-name="Trazado 3053" class="cls-13" d="M92.82,119.27l8.05-8a1.07,1.07,0,0,0,0-1.52h0a1.06,1.06,0,0,0-1.51,0l-8,8.05a1.06,1.06,0,0,0,0,1.51h0A1.06,1.06,0,0,0,92.82,119.27Z"/></g><g id="Grupo_2314" data-name="Grupo 2314"><path id="Rectángulo_853" data-name="Rectángulo 853" class="cls-13" d="M91.7,134.08l2,4.9a1.06,1.06,0,0,1-.58,1.38h0a1.07,1.07,0,0,1-1.39-.58l-2-4.9a1.08,1.08,0,0,1,.58-1.39h0a1.06,1.06,0,0,1,1.39.59Z"/><path id="Trazado_3054" data-name="Trazado 3054" class="cls-13" d="M93.54,140.13l8-8a1.06,1.06,0,0,0,0-1.51h0a1.06,1.06,0,0,0-1.51,0l-8,8a1.09,1.09,0,0,0,0,1.52h0A1.09,1.09,0,0,0,93.54,140.13Z"/></g><g id="Grupo_2315" data-name="Grupo 2315"><path id="Rectángulo_854" data-name="Rectángulo 854" class="cls-13" d="M92,154.21l2,4.9a1.06,1.06,0,0,1-.58,1.38h0a1.08,1.08,0,0,1-1.39-.58l-2-4.9a1.06,1.06,0,0,1,.58-1.38h0a1.06,1.06,0,0,1,1.39.58Z"/><path id="Trazado_3055" data-name="Trazado 3055" class="cls-13" d="M93.88,160.26l8-8a1.06,1.06,0,0,0,0-1.51h0a1.06,1.06,0,0,0-1.51,0h0l-8,8a1.09,1.09,0,0,0,0,1.52h0A1.09,1.09,0,0,0,93.88,160.26Z"/></g><g id="Grupo_2316" data-name="Grupo 2316"><rect id="Rectángulo_855" data-name="Rectángulo 855" class="cls-12" x="105.16" y="115.37" width="73.34" height="4.58"/><rect id="Rectángulo_856" data-name="Rectángulo 856" class="cls-12" x="105.16" y="135.02" width="73.34" height="4.58"/><rect id="Rectángulo_857" data-name="Rectángulo 857" class="cls-12" x="105.16" y="154.66" width="73.34" height="4.58"/></g><g id="Grupo_2284" data-name="Grupo 2284"><path id="Trazado_2941" data-name="Trazado 2941" class="cls-2" d="M239.53,233.22l28.21-11.51-16.34-40-27.8,8.57Z"/><g id="Grupo_2280" data-name="Grupo 2280"><path id="Trazado_2942" data-name="Trazado 2942" class="cls-9" d="M190,136c7.92-1.73,18-3.43,15-12.56-1.42-4.37-10.32-2.17-16.88-1.2s-15,4.06-14.75,8.6C173.68,137.13,183.47,137.38,190,136Z"/><path id="Trazado_2943" data-name="Trazado 2943" class="cls-9" d="M213,135.75c11.53,2.4,28.84,23.07,25.75,7.82-1.22-6.07-8.25-16.18-19.34-20.16-11.5-4.13-28.65-3.36-29.83,2.39C187.31,136.73,202.05,133.47,213,135.75Z"/><path id="Trazado_2944" data-name="Trazado 2944" class="cls-10" d="M181,128.65a9.35,9.35,0,0,1-2.82.5c-1.22-1.37-1.44-2.05-1.59-4.14a7.47,7.47,0,0,1,2.48-1.34,19.92,19.92,0,0,1,9-1.41c0,.14,0,.27.05.41C188.27,125.85,186.48,127.19,181,128.65Z"/></g><path id="Trazado_2945" data-name="Trazado 2945" class="cls-2" d="M229.36,133.3c5,3.55,9.58,8.93,13.38,18.26,1.45,3.55,6.38,18.53,9.66,30-4.21,5.15-20.53,9-26.2,12.48-2.83-3.52-4.7-10.15-9.36-11.2-3.73-.85-6-1.36-9.64-2.37a17.33,17.33,0,0,1-6-3.61c-5-4.48-6.71-4.16-6.7-10.64,0-8.6,9.08-3.42,11.44-4.71,4.16-2.28,8.44-8.69,2.73-20.49-1.12-2.31-4-13.38-3.16-14.44C206,125.91,217.51,124.84,229.36,133.3Z"/><g id="Grupo_2281" data-name="Grupo 2281"><path id="Trazado_2946" data-name="Trazado 2946" class="cls-2" d="M192.2,135.42c5.62-1.32,10.78-1.27,10.54-9-.13-4-8.62-4-14.25-2.71s-12.62,4.6-11.7,8.5C178.06,137.61,186.57,136.74,192.2,135.42Z"/><path id="Trazado_2947" data-name="Trazado 2947" class="cls-2" d="M207.31,138.76c13.51,5.26,23.82,7.23,25.19,3.09,1.67-5-9.89-14.84-18.69-17.27s-22.29-3.52-23.64,1.34C187.62,135.17,198.81,135.45,207.31,138.76Z"/><path id="Trazado_2948" data-name="Trazado 2948" class="cls-10" d="M184,129.88a9.17,9.17,0,0,1-2.62.76,5,5,0,0,1-2.15-3.49,6.86,6.86,0,0,1,2.17-1.48,20,20,0,0,1,8.4-2.26c0,.12.07.24.11.36C190.49,126.56,189,128,184,129.88Z"/></g><g id="Grupo_2282" data-name="Grupo 2282"><rect id="Rectángulo_847" data-name="Rectángulo 847" class="cls-14" x="252.49" y="149.63" width="6.07" height="12.68" rx="2.44" transform="translate(48.75 372.45) rotate(-77.71)"/><path id="Trazado_2949" data-name="Trazado 2949" class="cls-15" d="M257.37,151l-76.79-16.73-2.14,9.86,76.79,16.73a2,2,0,0,0,2.35-1.52l1.3-6A2,2,0,0,0,257.37,151Z"/><path id="Trazado_2950" data-name="Trazado 2950" class="cls-15" d="M181.29,135.67l-5.07-1.1a1.18,1.18,0,0,0-1.41.9l-1.21,5.58a1.2,1.2,0,0,0,.9,1.42l5.07,1.1Z"/><path id="Trazado_2951" data-name="Trazado 2951" class="cls-12" d="M171.46,137.66c.2-.9.31-1.64-2.1-2.16s-5.78-.7-6,.2,2.85,2.53,5.27,3.05S171.26,138.56,171.46,137.66Z"/><path id="Trazado_2952" data-name="Trazado 2952" class="cls-15" d="M176.28,136.17l-5.07-1.1a1.19,1.19,0,0,0-1.41.91l-.55,2.53a1.19,1.19,0,0,0,.91,1.41l5.07,1.1Z"/><path id="Trazado_2953" data-name="Trazado 2953" class="cls-16" d="M257.86,152.72l-77.57-16.89-.5,2.32L257.35,155a1.18,1.18,0,0,0,1.41-.9h0a1.19,1.19,0,0,0-.9-1.42Z"/><path id="Rectángulo_848" data-name="Rectángulo 848" class="cls-14" d="M219.63,155.78,251,162.63h0l-.46,2.12h0l-31.42-6.85a1.09,1.09,0,0,1-.83-1.29h0a1.09,1.09,0,0,1,1.3-.83Z"/><rect id="Rectángulo_849" data-name="Rectángulo 849" class="cls-14" x="244.83" y="156.41" width="14.87" height="2.18" transform="translate(44.64 370.42) rotate(-77.7)"/><rect id="Rectángulo_850" data-name="Rectángulo 850" class="cls-14" x="238.1" y="152.53" width="10.09" height="1.09" transform="translate(41.8 358.04) rotate(-77.7)"/></g><g id="Grupo_2283" data-name="Grupo 2283"><path id="Trazado_2954" data-name="Trazado 2954" class="cls-2" d="M200.4,149.46c12.24,10.48,14.12,18.54,12.53,22.18-1.76,4-13.1,12.11-22.38-7.89-5.75-12.39-22.3-22.34-9.2-28.36C186.17,133.18,191,141.38,200.4,149.46Z"/><path id="Trazado_2955" data-name="Trazado 2955" class="cls-10" d="M187.42,146.83c-2,1.75-5.7.71-8.29-2.33-.21-.24-.4-.49-.58-.74a7.56,7.56,0,0,1,2.47-4.43,7.35,7.35,0,0,1,4.66-1.85,8.43,8.43,0,0,1,.64.69C188.92,141.2,189.41,145.08,187.42,146.83Z"/><path id="Trazado_2956" data-name="Trazado 2956" class="cls-11" d="M194.4,147.46a4,4,0,0,1-.37.29l-.91.74-1.25,1-.7.59-.72.59-.72.6-.7.59-1.24,1-.51.43c-.15.13-.3.24-.4.34l-.36.3a4.19,4.19,0,0,1,.12-.46,5.17,5.17,0,0,1,.18-.51q.13-.31.3-.63l.2-.34.24-.36c.17-.25.35-.49.54-.73s.43-.49.66-.72l.74-.68c.26-.21.53-.41.8-.61a9.29,9.29,0,0,1,.83-.51,6.92,6.92,0,0,1,.81-.42c.27-.12.53-.21.77-.3a4.06,4.06,0,0,1,.68-.18,5,5,0,0,1,.54-.09Z"/><path id="Trazado_2957" data-name="Trazado 2957" class="cls-11" d="M197.12,151a4,4,0,0,1-.37.29l-.91.75-1.25,1-.7.59-.71.6-.72.6-.7.58-1.25,1-.5.43c-.15.13-.3.24-.4.34a4.19,4.19,0,0,1-.37.29s0-.17.12-.45a3.84,3.84,0,0,1,.19-.51,6.09,6.09,0,0,1,.3-.63l.2-.35.23-.35a8.72,8.72,0,0,1,.55-.73,7.4,7.4,0,0,1,.66-.72c.23-.23.48-.46.74-.68s.53-.42.8-.61a9.31,9.31,0,0,1,.82-.52,9,9,0,0,1,.82-.41,5.79,5.79,0,0,1,.77-.3,5.85,5.85,0,0,1,.67-.19l.55-.08Z"/></g></g><path id="Trazado_3042" data-name="Trazado 3042" class="cls-8" d="M321.15,266.5l-56-91.13-50.51,29.49,35.76,61.64Z"/><g id="Grupo_2739" data-name="Grupo 2739"><g id="Grupo_2736" data-name="Grupo 2736"><path id="Trazado_3056" data-name="Trazado 3056" class="cls-17" d="M130.8,52.42a.78.78,0,1,1-.93-.58.77.77,0,0,1,.93.58Z"/><path id="Trazado_3057" data-name="Trazado 3057" class="cls-18" d="M130.44,52.51a.4.4,0,0,1-.3.48.39.39,0,0,1-.48-.29.4.4,0,0,1,.29-.48h0A.42.42,0,0,1,130.44,52.51Z"/><path id="Trazado_3058" data-name="Trazado 3058" class="cls-19" d="M139.65,52.42a.78.78,0,1,1-.94-.58.78.78,0,0,1,.94.58Z"/><path id="Trazado_3059" data-name="Trazado 3059" class="cls-18" d="M139.28,52.51a.4.4,0,0,1-.3.48.39.39,0,0,1-.48-.29.4.4,0,0,1,.29-.48h0A.42.42,0,0,1,139.28,52.51Z"/><path id="Trazado_3060" data-name="Trazado 3060" class="cls-20" d="M125.05,71.75s-.56,14.75,3.4,21c4.07.24,4.53-.3,4.53-.3s1-11.89,1-12.58h.73c0,.7,1,12.58,1,12.58s.46.53,4.53.3c4-6.25,3.41-21,3.41-21Z"/><path id="Trazado_3061" data-name="Trazado 3061" class="cls-21" d="M127,89.52a5.29,5.29,0,0,0,1.77.23,4,4,0,0,0,3.64-3.31c.46-2.38,0-4.63.79-6.88.27-.6,1.13-.66,1.86-.46.26,0,.4.33.46.6.86,2.58.06,7.4,4.1,6.68,1.19-.27,1.65-1.66,1.79-2.72.38-4-.67-7.91-.31-11.9H125S124.64,82.49,127,89.52Z"/><path id="Trazado_3062" data-name="Trazado 3062" class="cls-22" d="M141.39,83.66c-.14,1.06-.61,2.45-1.79,2.71-4,.73-3.24-4.1-4.1-6.68-.07-.26-.2-.6-.46-.6-.73-.2-1.59-.13-1.86.47-.79,2.24-.33,4.5-.79,6.87a3.94,3.94,0,0,1-3.64,3.31,5.28,5.28,0,0,1-1.77-.22,14.71,14.71,0,0,0,1.47,3.23c4.07.23,4.53-.3,4.53-.3s1-11.89,1-12.59h.73c0,.7,1,12.59,1,12.59s.46.53,4.53.3c4-6.25,3.41-21,3.41-21h-2.55C140.72,75.74,141.77,79.67,141.39,83.66Z"/><path id="Trazado_3063" data-name="Trazado 3063" class="cls-23" d="M145.44,63.24a1.76,1.76,0,0,1-.81.2h0V74.5a6,6,0,0,1-1.18.6,17.47,17.47,0,0,1-3.77,1,36.69,36.69,0,0,1-10.67,0,17.6,17.6,0,0,1-3.77-1,6.55,6.55,0,0,1-1.18-.6V63.08a1.75,1.75,0,0,1-1.57-1.66l.47-1a9.84,9.84,0,0,1,.58-1,12.18,12.18,0,0,1,1.36-1.68l.2-.2h0a9.83,9.83,0,0,1,.88-.83l.1-.1.12-.1.13-.09.12-.09.13-.09.15-.1.09-.06L127,56l.1-.07.42-.25.18-.1.24-.14.24-.12h0l.18-.09.29-.14.23-.1c.35-.15.7-.29,1.06-.41a13.77,13.77,0,0,1,9.05.07c.29.1.57.22.85.34l.26.12.22.1.09,0,.11,0,.15.08.07,0,.15.08.57.33h0l.06,0,.17.11,0,0,.16.1.09.06.11.07.4.29.11.09.26.2.16.13h0l0,0,.09.08,0,0,.14.12,0,0,.15.14h0l.1.1.19.18c.12.11.23.23.34.35l.08.08.11.13.07.07c.22.24.42.49.62.74.05.08.11.15.16.22l.25.36.07.1.07.11h0l.07.11.08.12c.05.08.09.16.14.23l.06.1c.09.15.17.31.25.46h0l0,0a1.2,1.2,0,0,1,.13.31A1.77,1.77,0,0,1,145.44,63.24Z"/><path id="Trazado_3064" data-name="Trazado 3064" class="cls-24" d="M122.49,61.42a1.76,1.76,0,0,0,1.57,1.66V74.5a6.55,6.55,0,0,0,1.18.6,17.6,17.6,0,0,0,3.77,1,36.69,36.69,0,0,0,10.67,0,16.91,16.91,0,0,0,3.77-1,5.47,5.47,0,0,0,1.18-.6v-11h0a1.78,1.78,0,0,0,1.76-1.77,2.08,2.08,0,0,0-.07-.5,2.88,2.88,0,0,0-.13-.31l0,0h0l-.25-.47-.06-.1a1.76,1.76,0,0,1-.14-.23l-.08-.12a1,1,0,0,1-.08-.11h0l-.07-.11-.06-.1-.25-.35L145,59c-.19-.26-.4-.5-.61-.74l-.07-.08-.12-.13-.07-.08-.34-.35-.19-.18-.11-.1h0l-.15-.14,0,0-.14-.12-.05,0L143,57l0,0a7.25,7.25,0,0,0-2.15,1.4,3.65,3.65,0,0,0-1.14,2.49,7.78,7.78,0,0,0,.28,2.54c.6,2.44,2.05,4.76,1.52,7.27s-3.1,3.79-5.49,4.19c-3.5.6-6.07-.62-6.94-1.61-2.15-2.43-2-7.27-1.12-9.79a3.91,3.91,0,0,0,.16-2.09,4.15,4.15,0,0,0-.54-1.39,5.77,5.77,0,0,0-2.68-2.2h0a12.27,12.27,0,0,0-1.36,1.69c-.21.32-.4.65-.58,1Z"/><path id="Trazado_3065" data-name="Trazado 3065" class="cls-24" d="M139,54.62c-.21,3.25-2.15,5.79-4.52,5.79s-4.33-2.58-4.52-5.86A13.8,13.8,0,0,1,139,54.62Z"/><g id="Grupo_2321" data-name="Grupo 2321"><ellipse id="Elipse_26" data-name="Elipse 26" class="cls-25" cx="129.33" cy="75.69" rx="1.78" ry="1.41"/><path id="Trazado_3067" data-name="Trazado 3067" class="cls-26" d="M129.17,73.73a.61.61,0,0,0-.26.83.63.63,0,0,0,.84.26.62.62,0,0,0-.58-1.09Z"/></g><g id="Grupo_2716" data-name="Grupo 2716"><ellipse id="Elipse_26-2" data-name="Elipse 26-2" class="cls-27" cx="139.16" cy="76.18" rx="1.78" ry="1.41"/><path id="Trazado_3067-2" data-name="Trazado 3067-2" class="cls-28" d="M139.32,74.22a.62.62,0,1,1-.83.26.61.61,0,0,1,.83-.26Z"/></g><path id="Unión_7" data-name="Unión 7" class="cls-23" d="M139.68,76.1l-.12-.15a1.76,1.76,0,0,1,.21-2.34l0,0a9.21,9.21,0,0,0,1.89-2.41,8.79,8.79,0,0,0,.94-2.81,8.5,8.5,0,0,0-.08-2.89,7.92,7.92,0,0,0-1-2.52h0c-.32-.49-1.2-1.25-1.85-2.12s-1.19-2.17-.14-3.31a12,12,0,0,1,1.86-1.7h0l.06,0,.18.1,0,0,.15.1.09.06.11.07.4.29.12.09.26.2.16.13h0l0,0,.09.07,0,0,.14.12,0,0,.15.13h0l.1.1.19.19c.11.11.23.22.34.34l.08.09.11.12.07.08c.22.24.42.48.62.74.05.07.11.14.16.22s.17.23.25.35l.07.1.07.11h0l.07.12.08.12c0,.07.09.15.14.23l.06.1c.09.15.17.3.25.46h0l0,0a1.37,1.37,0,0,1,.13.31,13.38,13.38,0,0,1,.89,3.68c0,.37.05.73.05,1.09v.3a8.08,8.08,0,0,1-.05.85,10,10,0,0,1-.14,1.1c-.06.37-.14.73-.23,1.09a12.92,12.92,0,0,1-1.83,4c-.12.17-.25.35-.38.51a11.54,11.54,0,0,1-1.18,1.34A12.69,12.69,0,0,1,142,76.31,1.77,1.77,0,0,1,139.68,76.1Z"/><path id="Trazado_3069" data-name="Trazado 3069" class="cls-18" d="M139,53.51a4.57,4.57,0,0,1-9.11.83,3.84,3.84,0,0,1,0-.83,4.87,4.87,0,0,1,0-.66.59.59,0,0,1,0-.14,4.51,4.51,0,0,1,9,0,.59.59,0,0,0,0,.14C139,53.07,139,53.29,139,53.51Z"/><path id="Trazado_3070" data-name="Trazado 3070" class="cls-2" d="M139,52.85a4.52,4.52,0,0,1-9,0,.59.59,0,0,1,0-.14,4.51,4.51,0,0,1,9,0A.68.68,0,0,0,139,52.85Z"/><path id="Trazado_3071" data-name="Trazado 3071" class="cls-29" d="M135.65,56.49a1.55,1.55,0,0,1-.4.57,1.31,1.31,0,0,1-.67.32,1.29,1.29,0,0,1-.39,0,1.43,1.43,0,0,1-.34-.14,1.34,1.34,0,0,1-.47-.53,5.46,5.46,0,0,0,.6.27,1.31,1.31,0,0,0,.56.07,1.89,1.89,0,0,0,.55-.19C135.27,56.74,135.45,56.61,135.65,56.49Z"/><path id="Trazado_3072" data-name="Trazado 3072" class="cls-30" d="M136.28,51.22a8.15,8.15,0,0,1-3.7,1.12l.86-1.34-1.75,1.34s-.31-.89.16-1.34a4.66,4.66,0,0,0-1.59,3.18,4.46,4.46,0,0,1,.56-4.11,6.28,6.28,0,0,0-.56.59c0-1.29,3.75-4.82,7.05-1.71,1.09,0,2.09,2.35,1.69,4.9-.7-.38-2-3.15-2-3.15Z"/><path id="Trazado_3074" data-name="Trazado 3074" class="cls-23" d="M128.91,73.61l0,0a9.6,9.6,0,0,1-1.1-1.2,9.78,9.78,0,0,1-.79-1.22,8.63,8.63,0,0,1-.94-2.81,1.23,1.23,0,0,1,0-.2,8.38,8.38,0,0,1,.1-2.69,8,8,0,0,1,1-2.62.22.22,0,0,1,0-.08h0a13.35,13.35,0,0,0,.9-1.44c2-3.81.07-6.24-1.55-5.09l-.49.37h0l-.1.1a9.83,9.83,0,0,0-.88.83h0l-.2.2a12.18,12.18,0,0,0-1.36,1.68,9.84,9.84,0,0,0-.58,1c-.17.31-.32.65-.47,1a12.59,12.59,0,0,0-.6,1.86,16.68,16.68,0,0,0-.43,3.51h0c0,.1,0,.2,0,.3,0,.37.08.74.14,1.1a10.08,10.08,0,0,0,.24,1.09,12.47,12.47,0,0,0,1.83,4l.37.51a13.17,13.17,0,0,0,2.6,2.56,1.79,1.79,0,0,0,2.35-.22h0A1.76,1.76,0,0,0,128.91,73.61Z"/><g id="Grupo_2322" data-name="Grupo 2322"><path id="Trazado_3075" data-name="Trazado 3075" class="cls-31" d="M140.07,93.37a1.25,1.25,0,0,1-.11.5.52.52,0,0,1-.48.3H137.1a.51.51,0,0,1-.48-.3,1.24,1.24,0,0,1,.2-1.33,2,2,0,0,1,2.83-.11.57.57,0,0,1,.11.11A1.26,1.26,0,0,1,140.07,93.37Z"/><path id="Trazado_3076" data-name="Trazado 3076" class="cls-32" d="M139.76,92.54a1.55,1.55,0,0,1-2.94,0,1.64,1.64,0,0,1,.3-.29,2.07,2.07,0,0,1,2.33,0A1.42,1.42,0,0,1,139.76,92.54Z"/><path id="Trazado_3077" data-name="Trazado 3077" class="cls-33" d="M139.45,92.25a1.54,1.54,0,0,1-2.19.14l-.14-.14A2.07,2.07,0,0,1,139.45,92.25Z"/></g><g id="Grupo_2323" data-name="Grupo 2323"><path id="Trazado_3078" data-name="Trazado 3078" class="cls-31" d="M132.68,93.37a1.25,1.25,0,0,1-.11.5.53.53,0,0,1-.48.3H129.7a.5.5,0,0,1-.47-.3,1.1,1.1,0,0,1-.11-.5,1.26,1.26,0,0,1,.31-.83,2,2,0,0,1,2.83-.11,1.14,1.14,0,0,1,.11.11A1.26,1.26,0,0,1,132.68,93.37Z"/><path id="Trazado_3079" data-name="Trazado 3079" class="cls-32" d="M132.37,92.54a1.55,1.55,0,0,1-2.94,0,1.64,1.64,0,0,1,.3-.29,2.07,2.07,0,0,1,2.33,0A1.42,1.42,0,0,1,132.37,92.54Z"/><path id="Trazado_3080" data-name="Trazado 3080" class="cls-33" d="M132.06,92.25a1.54,1.54,0,0,1-2.19.14,1.85,1.85,0,0,1-.14-.14A2.07,2.07,0,0,1,132.06,92.25Z"/></g><path id="Trazado_3081" data-name="Trazado 3081" class="cls-24" d="M128.86,72a12.22,12.22,0,0,0,1.26.74,13,13,0,0,0,1.33.58,9.5,9.5,0,0,0,1.38.41,8.54,8.54,0,0,0,1.42.21c.12,0,.24,0,.36,0h.71l.36,0a8.29,8.29,0,0,0,1.4-.29,10,10,0,0,0,2.61-1.26,7.52,7.52,0,0,1-2.51,1.56l-.35.12-.09,0-.09,0-.19,0-.18,0-.18,0-.37.07a8.36,8.36,0,0,1-1.5,0,9.44,9.44,0,0,1-1.49-.24,9.71,9.71,0,0,1-2.71-1.2A7.34,7.34,0,0,1,128.86,72Z"/><path id="Trazado_3082" data-name="Trazado 3082" class="cls-24" d="M128.7,71.11l.94.47.92.47.93.46c.31.15.63.3.94.47a3.79,3.79,0,0,1-1.05-.18,6.09,6.09,0,0,1-1-.39,5.71,5.71,0,0,1-.91-.56A3.86,3.86,0,0,1,128.7,71.11Z"/><g id="Grupo_2328" data-name="Grupo 2328"><g id="Grupo_2324" data-name="Grupo 2324"><path id="Trazado_3083" data-name="Trazado 3083" class="cls-34" d="M133.12,54.31h0a.57.57,0,0,1-.18-.32.05.05,0,0,1,0,0s0,0,0,0a.54.54,0,0,0,.15.29,0,0,0,0,1,0,0Z"/></g><g id="Grupo_2325" data-name="Grupo 2325"><path id="Trazado_3084" data-name="Trazado 3084" class="cls-35" d="M133.16,53.89a.3.3,0,0,1,.3-.3.29.29,0,0,1,.3.3.3.3,0,0,1-.3.3.31.31,0,0,1-.3-.3Z"/></g><g id="Grupo_2326" data-name="Grupo 2326"><path id="Trazado_3085" data-name="Trazado 3085" class="cls-34" d="M135.94,54.29a0,0,0,0,1,0,0v0a.48.48,0,0,0,.14-.34,0,0,0,0,1,0,0s0,0,0,0a.58.58,0,0,1-.15.39Z"/></g><g id="Grupo_2327" data-name="Grupo 2327"><path id="Trazado_3086" data-name="Trazado 3086" class="cls-35" d="M135.26,53.89a.29.29,0,0,1,.3-.3.3.3,0,0,1,.3.3.31.31,0,0,1-.3.3h0A.3.3,0,0,1,135.26,53.89Z"/></g></g><g id="Grupo_2329" data-name="Grupo 2329"><path id="Trazado_3087" data-name="Trazado 3087" class="cls-30" d="M133,52.78a.94.94,0,0,0-.57.5.16.16,0,0,0,.07.2.15.15,0,0,0,.2-.08.67.67,0,0,1,.83-.33.16.16,0,0,0,.19-.1.15.15,0,0,0-.1-.19A.94.94,0,0,0,133,52.78Z"/></g><path id="Trazado_3088" data-name="Trazado 3088" class="cls-30" d="M135.86,52.7a.94.94,0,0,0-.64,0,.15.15,0,0,0-.09.19.15.15,0,0,0,.18.09.64.64,0,0,1,.77.36.15.15,0,0,0,.19.08.15.15,0,0,0,.08-.2A.91.91,0,0,0,135.86,52.7Z"/><g id="Grupo_2330" data-name="Grupo 2330"><path id="Trazado_3089" data-name="Trazado 3089" class="cls-36" d="M134.5,56.24a1.32,1.32,0,0,0,1-.35.14.14,0,0,0,.06-.12c0-.06,0-.11-.06-.11h0a16,16,0,0,1-2,0s-.06.05-.06.11a.12.12,0,0,0,.06.12A1.68,1.68,0,0,0,134.5,56.24Z"/></g><g id="Grupo_2331" data-name="Grupo 2331"><path id="Trazado_3090" data-name="Trazado 3090" class="cls-34" d="M134.51,55.21a.6.6,0,0,1-.39-.12h0a.07.07,0,0,1,0-.1.06.06,0,0,1,.1,0h0a.56.56,0,0,0,.64,0,.07.07,0,0,1,.1,0,.08.08,0,0,1,0,.11A.7.7,0,0,1,134.51,55.21Z"/></g><g id="Grupo_2347" data-name="Grupo 2347"><path id="Trazado_2843" data-name="Trazado 2843" class="cls-37" d="M137,66.62c0,.1.14.11.2.12a2,2,0,0,0,.64,0h.07a3.72,3.72,0,0,1,.67,0,3.37,3.37,0,0,0,.55,0,.11.11,0,0,0,.1,0,.05.05,0,0,0,0-.08h0a1,1,0,0,0-.41-.07c-.28,0-.55.08-.83,0a.57.57,0,0,1-.18,0h-.07a1.35,1.35,0,0,0-.35,0l-.18,0a.29.29,0,0,0-.16,0A.08.08,0,0,0,137,66.62Z"/><g id="Grupo_2198" data-name="Grupo 2198"><g id="Grupo_2195" data-name="Grupo 2195"><path id="Trazado_2844" data-name="Trazado 2844" class="cls-38" d="M138.62,65.42a.38.38,0,0,1,0,.1h0s0,.08,0,.12l0,.22c0,.15,0,.3-.08.45l-.05.25s0,.07,0,.07,0,0,.05,0c0-.3.11-.6.15-.9,0,0,0-.1,0-.14s0-.09,0-.14a0,0,0,1,0-.08,0Z"/></g><g id="Grupo_2197" data-name="Grupo 2197"><path id="Trazado_2845" data-name="Trazado 2845" class="cls-38" d="M138.48,66.61l0,0h.23a0,0,0,0,0,0-.06h0a.12.12,0,0,0-.05,0h0a.18.18,0,0,0-.17,0v0s0,0,0,0Z"/><g id="Grupo_2196" data-name="Grupo 2196"><path id="Trazado_2846" data-name="Trazado 2846" class="cls-38" d="M138.46,66.64l.08,0h.17a.12.12,0,0,0,.07-.05.11.11,0,0,0-.06-.13.19.19,0,0,0-.15,0,.18.18,0,0,0-.07,0h0l0,0s0,0,0,0a0,0,0,0,0,0,0h0v0h.16v0h-.22a0,0,0,0,0,0,0s0,0,0,0S138.45,66.64,138.46,66.64Z"/></g></g></g><g id="Grupo_2202" data-name="Grupo 2202"><g id="Grupo_2199" data-name="Grupo 2199"><path id="Trazado_2847" data-name="Trazado 2847" class="cls-38" d="M137.51,65.42v.1h0s0,.07,0,.11l0,.23c0,.15,0,.3.08.45s0,.17.05.25a.08.08,0,0,1,0,.07s0,0-.05,0c0-.3-.11-.6-.15-.91,0,0,0-.09,0-.13a.66.66,0,0,0,0-.14,0,0,0,1,1,.08,0Z"/></g><g id="Grupo_2201" data-name="Grupo 2201"><path id="Trazado_2848" data-name="Trazado 2848" class="cls-38" d="M137.65,66.61l0,0h-.23a0,0,0,0,1,0-.06h0a.12.12,0,0,1,.05,0h0a.18.18,0,0,1,.17,0v0s0,0,0,0Z"/><g id="Grupo_2200" data-name="Grupo 2200"><path id="Trazado_2849" data-name="Trazado 2849" class="cls-38" d="M137.67,66.64l-.08,0h-.17a.08.08,0,0,1-.07,0,.1.1,0,0,1,.06-.13.16.16,0,0,1,.15,0l.07,0h0l0,0a0,0,0,1,1-.06,0v0h.06s0,0,0,0a0,0,0,0,1,0,0Z"/></g></g></g><g id="Grupo_2203" data-name="Grupo 2203"><path id="Trazado_2850" data-name="Trazado 2850" class="cls-39" d="M137.34,61.25a.51.51,0,0,1,.31-.3l.09,0h0a.16.16,0,0,1,.09-.12.1.1,0,0,1,.13,0,.17.17,0,0,1,.06.11h0l.1-.07a.13.13,0,0,1,.13,0,.2.2,0,0,1,0,.11l0,0,.09,0a.11.11,0,0,1,.12.07.19.19,0,0,1,0,.15.72.72,0,0,1,.12.21.36.36,0,0,1,0,.11.62.62,0,0,1,0,.33.18.18,0,0,1-.08.07.24.24,0,0,1-.14,0,.21.21,0,0,1-.13,0l0,0c-.06-.12-.06-.26-.15-.37l0,0a.49.49,0,0,0-.63,0,.27.27,0,0,0-.08.07l0-.06,0,0A.17.17,0,0,1,137.34,61.25Z"/></g><g id="Grupo_2204" data-name="Grupo 2204"><path id="Trazado_2851" data-name="Trazado 2851" class="cls-39" d="M137.34,61.25a.51.51,0,0,1,.31-.3l.09,0h0a.16.16,0,0,1,.09-.12.1.1,0,0,1,.13,0,.17.17,0,0,1,.06.11h0l.1-.07a.13.13,0,0,1,.13,0,.2.2,0,0,1,0,.11l0,0,.09,0a.11.11,0,0,1,.12.07.19.19,0,0,1,0,.15.72.72,0,0,1,.12.21.36.36,0,0,1,0,.11.62.62,0,0,1,0,.33.18.18,0,0,1-.08.07.24.24,0,0,1-.14,0,.21.21,0,0,1-.13,0l0,0c-.06-.12-.06-.26-.15-.37l0,0a.49.49,0,0,0-.63,0,.27.27,0,0,0-.08.07l0-.06,0,0A.17.17,0,0,1,137.34,61.25Z"/></g><g id="Grupo_2205" data-name="Grupo 2205"><path id="Trazado_2852" data-name="Trazado 2852" class="cls-40" d="M139.82,62.24c0-.09.05-.18.08-.28a2.36,2.36,0,0,0,0-.28v-.09a.22.22,0,0,0,0-.08.24.24,0,0,0,0-.08l0,0a.52.52,0,0,0-.3-.16h0a.57.57,0,0,0-.29,0h0a.47.47,0,0,0-.25.25.53.53,0,0,0-.06.1.3.3,0,0,0,0,.08l-.3-.08a2.48,2.48,0,0,0-1,0,1.07,1.07,0,0,0-.09-.27.31.31,0,0,0-.05-.1.8.8,0,0,0-.22-.23l0,0a.48.48,0,0,0-.56.2l0,0a.14.14,0,0,0,0,.12l0,0a2,2,0,0,1,.22.34l.05.09,0,0a1.78,1.78,0,0,0-.65,1,2.75,2.75,0,0,0,.26,2.08,2.71,2.71,0,0,0,.24.35l.12.14a1.65,1.65,0,0,0,1.63.62,1.63,1.63,0,0,0,.83-.7l.14-.18a4.76,4.76,0,0,0,.5-1c0-.06.05-.13.07-.2a2.22,2.22,0,0,0,.07-1.3l0-.1s0-.07-.06-.11l-.06-.11Z"/></g><g id="Grupo_2206" data-name="Grupo 2206"><path id="Trazado_2853" data-name="Trazado 2853" class="cls-40" d="M139.93,62.39l-.11-.15c0-.09.05-.18.08-.28a1.35,1.35,0,0,0,0-.28v-.09a.22.22,0,0,0,0-.08.24.24,0,0,0,0-.08l0,0a.57.57,0,0,0-.3-.15h0a.57.57,0,0,0-.29,0h0l-.06,0a.55.55,0,0,0-.19.21l-.06.11,0,.08-.3-.08a3,3,0,0,0-.67,0,3.33,3.33,0,0,0-.76.87c-.06.09-.11.18-.16.27a2.39,2.39,0,0,0-.13.28,1.53,1.53,0,0,0-.07.29c0,.12,0,.23,0,.35a3.21,3.21,0,0,0,.07.68,1.7,1.7,0,0,0,.1.32,1.43,1.43,0,0,0,.13.28,2.48,2.48,0,0,0,.19.26,1.22,1.22,0,0,0,1.34.44,1.6,1.6,0,0,0,.49-.36l.14-.14a2.66,2.66,0,0,0,.66-.76.61.61,0,0,0,0-.12l.05-.12a2.23,2.23,0,0,0,.09-1.35,1,1,0,0,0,0-.1.6.6,0,0,0-.06-.11Z"/></g><g id="Grupo_2207" data-name="Grupo 2207" class="cls-41"><path id="Trazado_2854" data-name="Trazado 2854" class="cls-42" d="M139.93,62.39l-.11-.15c0-.09.05-.18.08-.28a1.35,1.35,0,0,0,0-.28v-.09a.22.22,0,0,0,0-.08.24.24,0,0,0,0-.08l0,0a.57.57,0,0,0-.3-.15h0a.57.57,0,0,0-.29,0h0l-.06,0a.55.55,0,0,0-.19.21l-.06.11,0,.08-.31-.08a2.89,2.89,0,0,0-.66,0,3,3,0,0,0-.6.63l-.16.24a2.1,2.1,0,0,0-.4,1,2.36,2.36,0,0,0,.2,1.41,1.68,1.68,0,0,0,1.17.83,1,1,0,0,0,.24,0,1,1,0,0,0,.25-.06,1.72,1.72,0,0,0,.48-.37l.15-.14a2.65,2.65,0,0,0,.65-.76.61.61,0,0,0,.05-.12.54.54,0,0,0,.05-.11,2.16,2.16,0,0,0,.09-1.35.3.3,0,0,0,0-.1l0-.12A.6.6,0,0,1,139.93,62.39Z"/></g><path id="Trazado_2855" data-name="Trazado 2855" class="cls-42" d="M140,62.59a1.12,1.12,0,0,0-.18-.2c-.07-.08,0-.17,0-.26a1.07,1.07,0,0,0,.13-.53.28.28,0,0,0,0-.09.19.19,0,0,0,0-.07l0,0a.67.67,0,0,0-.3-.16h0a.7.7,0,0,0-.29,0,.48.48,0,0,0-.24.18c-.06.09-.11.19-.16.28a2.5,2.5,0,0,0-1.12-.08l-.23,0a.5.5,0,0,0,0-.21,1.24,1.24,0,0,0-.1-.2.63.63,0,0,0-.21-.22l-.06,0a.47.47,0,0,0-.55.2s0,0,0,0a.14.14,0,0,0,0,.12s0,0,0,0,.11.16.16.24a1.39,1.39,0,0,1,.12.28,1.91,1.91,0,0,0-.7,1.22l0,.24a3,3,0,0,0,.07.95,2,2,0,0,0,.07.23,1.89,1.89,0,0,0,.09.21,1.59,1.59,0,0,0,.15.29,1.93,1.93,0,0,0,1.77,1,1.38,1.38,0,0,0,.95-.66l.12-.16a5.87,5.87,0,0,0,.6-1.1A.84.84,0,0,0,140,64a2.48,2.48,0,0,0,0-1.24A1.09,1.09,0,0,0,140,62.59Zm-.81,2.33-.11.12a1.29,1.29,0,0,1-.64.51,1.26,1.26,0,0,1-1.35-.58,2.26,2.26,0,0,1-.25-.49l-.07-.22a1.43,1.43,0,0,1,1-1.76l.17,0,.22,0a1.13,1.13,0,0,1,.83.22,1.61,1.61,0,0,1,.6,1,1.93,1.93,0,0,1,0,.24,2.49,2.49,0,0,1-.34.92.18.18,0,0,0,0,.07Z"/><g id="Grupo_2209" data-name="Grupo 2209" class="cls-43"><g id="Grupo_2208" data-name="Grupo 2208"><path id="Trazado_2856" data-name="Trazado 2856" class="cls-44" d="M136.9,65.32a2.4,2.4,0,0,1-.18-.26l-.06-.09a2.75,2.75,0,0,1-.26-2.08,3,3,0,0,1,.23-.56l.05-.07a1.07,1.07,0,0,1,.3-.3.15.15,0,0,0,0-.21h0v0a2,2,0,0,0-.22-.34l0,0a.19.19,0,0,1,0-.13s0,0,0,0A.55.55,0,0,1,137,61a.51.51,0,0,0-.49.22l0,0a.15.15,0,0,0,0,.13l0,0a2,2,0,0,1,.22.34l0,0,0,0s0,0,0,0a2,2,0,0,0-.26.24l-.06.06a2.12,2.12,0,0,0-.32.72,2.7,2.7,0,0,0,.25,2.08l.06.09a.41.41,0,0,0,0,.09l.12.16.13.15a2,2,0,0,0,1.43.66l.14,0,.13,0a1.91,1.91,0,0,0,.7-.59l.14-.19a4.48,4.48,0,0,0,.35-.6c-.13.21-.28.39-.43.59l-.15.17a1.72,1.72,0,0,1-.72.53l-.08,0a.94.94,0,0,1-.29,0,1.92,1.92,0,0,1-1.1-.63S136.92,65.34,136.9,65.32Z"/></g></g><g id="Grupo_2210" data-name="Grupo 2210"><path id="Trazado_2857" data-name="Trazado 2857" class="cls-39" d="M139.7,61.55h.09c.06,0,0-.14-.07-.16a.89.89,0,0,0-.39-.09.06.06,0,0,0-.07.06s0,0,0,0,.08,0,.11.05A1.68,1.68,0,0,0,139.7,61.55Z"/></g><g id="Grupo_2212" data-name="Grupo 2212" class="cls-45"><g id="Grupo_2211" data-name="Grupo 2211"><path id="Trazado_2858" data-name="Trazado 2858" class="cls-46" d="M139.77,61.51h-.05l-.32-.1s-.09,0-.11,0a0,0,0,0,1,0,0s0,.05,0,.08a.31.31,0,0,0,.12.05,1.68,1.68,0,0,0,.32.09h.08s0,0,0-.05Z"/></g></g><g id="Grupo_2213" data-name="Grupo 2213"><path id="Trazado_2859" data-name="Trazado 2859" class="cls-47" d="M138.75,61.55a.2.2,0,0,0,0-.11.72.72,0,0,0-.12-.21.19.19,0,0,0,0-.15.12.12,0,0,0-.12-.07.19.19,0,0,0-.09,0l0,0a.2.2,0,0,0,0-.11.11.11,0,0,0-.13,0,.17.17,0,0,0-.1.06h0a.13.13,0,0,0,0-.11.1.1,0,0,0-.13,0,.17.17,0,0,0-.1.13h0l-.09,0a.46.46,0,0,0-.29.24,1.23,1.23,0,0,1,.12.26l0,0a.48.48,0,0,1,.63.06l0,0c.09.11.09.25.16.37l0,0a.21.21,0,0,0,.13,0,.33.33,0,0,0,.14,0,.16.16,0,0,0,.08-.08A.47.47,0,0,0,138.75,61.55Z"/></g><g id="Grupo_2214" data-name="Grupo 2214"><path id="Trazado_2860" data-name="Trazado 2860" class="cls-44" d="M137.37,61.21l0-.07,0,.06Z"/></g><g id="Grupo_2215" data-name="Grupo 2215" class="cls-48"><path id="Trazado_2861" data-name="Trazado 2861" class="cls-44" d="M138.67,61.92a.32.32,0,0,1-.14,0,.21.21,0,0,1-.13,0l0,0c-.07-.12-.07-.26-.16-.37l0,0a.49.49,0,0,0-.63-.06l-.07.06h0l0,0a.48.48,0,0,1,.63,0l0,0c.09.11.09.25.16.37l0,0a.24.24,0,0,0,.13,0,.32.32,0,0,0,.14,0,.16.16,0,0,0,.08-.08A.1.1,0,0,1,138.67,61.92Z"/></g><g id="Grupo_2216" data-name="Grupo 2216"><path id="Trazado_2862" data-name="Trazado 2862" class="cls-39" d="M136.68,61.15a.7.7,0,0,1,.16-.1h0a.11.11,0,0,1,.14,0c.05.05,0,.12-.07.15h0a.79.79,0,0,1-.22.06h0a0,0,0,0,1,0,0s0,0,0,0,0,0,0,0Z"/></g><g id="Grupo_2218" data-name="Grupo 2218" class="cls-45"><g id="Grupo_2217" data-name="Grupo 2217"><path id="Trazado_2863" data-name="Trazado 2863" class="cls-46" d="M137,61.05s0,0,0,0,0,.1-.08.12h0a.46.46,0,0,1-.22.06h0v0l0,0h0a.59.59,0,0,0,.22-.05l0,0C137,61.17,137.06,61.1,137,61.05Z"/></g></g><g id="Grupo_2220" data-name="Grupo 2220" class="cls-49"><g id="Grupo_2219" data-name="Grupo 2219"><path id="Trazado_2864" data-name="Trazado 2864" class="cls-50" d="M139.73,62.49a.1.1,0,0,0,.07-.13s-.06-.11-.12-.09a.11.11,0,0,0-.07.11s.06.08.11.1Z"/></g></g><g id="Grupo_2222" data-name="Grupo 2222" class="cls-49"><g id="Grupo_2221" data-name="Grupo 2221"><path id="Trazado_2865" data-name="Trazado 2865" class="cls-50" d="M140,62.79a.13.13,0,0,1,0-.06.26.26,0,0,0-.07-.15.1.1,0,0,0-.13,0c-.07,0-.06.11-.06.17s0,.05,0,.07a.25.25,0,0,0,0,.07s.1.13.17.08a.12.12,0,0,0,0-.11Z"/></g></g><g id="Grupo_2224" data-name="Grupo 2224" class="cls-49"><g id="Grupo_2223" data-name="Grupo 2223"><path id="Trazado_2866" data-name="Trazado 2866" class="cls-50" d="M137.18,61.29a.06.06,0,0,0,.09,0h0a.09.09,0,0,0,0-.1s0,0,0,0a.06.06,0,0,0-.06,0h0a0,0,0,0,0,0,0s0,0,0,0v0l0,.05Z"/></g></g><g id="Grupo_2226" data-name="Grupo 2226" class="cls-49"><g id="Grupo_2225" data-name="Grupo 2225"><path id="Trazado_2867" data-name="Trazado 2867" class="cls-50" d="M137.24,61.42v.07a.23.23,0,0,0,.07.1s0,0,0,0h0a.14.14,0,0,0,0-.11v0s0-.08-.07-.08a.06.06,0,0,0,0,.06Z"/></g></g><g id="Grupo_2228" data-name="Grupo 2228" class="cls-49"><g id="Grupo_2227" data-name="Grupo 2227"><path id="Trazado_2868" data-name="Trazado 2868" class="cls-50" d="M139.73,61.79s0,0,0,0a0,0,0,0,0,.06,0v0a.2.2,0,0,0,0-.11.05.05,0,0,0-.07,0,.07.07,0,0,0,0,.08v.07Z"/></g></g><g id="Grupo_2230" data-name="Grupo 2230" class="cls-49"><g id="Grupo_2229" data-name="Grupo 2229"><path id="Trazado_2869" data-name="Trazado 2869" class="cls-50" d="M139.71,61.9a.05.05,0,0,0,0,.05v0a0,0,0,0,1,0,0s0,.08,0,.1.06,0,.08-.06v0h0a0,0,0,0,0,0,0h0a0,0,0,0,0,0,0,0,0,0,0,0,0,0h-.07Z"/></g></g><g id="Grupo_2232" data-name="Grupo 2232" class="cls-51"><g id="Grupo_2231" data-name="Grupo 2231"><path id="Trazado_2870" data-name="Trazado 2870" class="cls-50" d="M137.68,61.17h0a.8.8,0,0,1,.56.15s.05.06.08,0a.13.13,0,0,0,0-.18h0l-.07-.06-.08,0a.58.58,0,0,0-.5,0,0,0,0,0,0,0,0Z"/></g></g><g id="Grupo_2234" data-name="Grupo 2234" class="cls-52"><g id="Grupo_2233" data-name="Grupo 2233"><path id="Trazado_2871" data-name="Trazado 2871" class="cls-44" d="M136.46,63.37a.14.14,0,0,0-.16.1,1.83,1.83,0,0,0,.14,1.2l.08.18c.08.14.16.3.25.44l.09.14.1.14a1.37,1.37,0,0,0,.29.25l.16.1a2,2,0,0,0,.62.16,1.4,1.4,0,0,0,.93-.43l.13-.11a2.09,2.09,0,0,0,.2-.22l.09-.11a1.25,1.25,0,0,0,.2-.4c0-.06-.06-.09-.11-.08s-.14.15-.21.22a.62.62,0,0,1-.08.12,2.11,2.11,0,0,1-.19.23l-.13.14-.12.11a1.24,1.24,0,0,1-.39.25,1.14,1.14,0,0,1-.75-.11l-.16-.1-.14-.1-.13-.14-.12-.15L137,65a3.87,3.87,0,0,1-.25-.55s0-.1,0-.14a2.57,2.57,0,0,1,0-.73.5.5,0,0,0,0-.12C136.57,63.42,136.53,63.37,136.46,63.37Z"/></g></g><path id="Trazado_2872" data-name="Trazado 2872" class="cls-53" d="M136.9,62.27a.38.38,0,0,0-.23.3.17.17,0,0,0,0,.07s0,0,0,.06.21-.06.27-.15l0-.07,0-.08a.1.1,0,0,0-.06-.13h-.1Z"/><path id="Trazado_2873" data-name="Trazado 2873" class="cls-53" d="M136.6,62.8a.23.23,0,0,0-.1.12c0,.06,0,.16.08.17a.2.2,0,0,0,.16-.17.11.11,0,0,0,0-.1A.11.11,0,0,0,136.6,62.8Z"/><path id="Trazado_2874" data-name="Trazado 2874" class="cls-54" d="M137.41,64.37c-.09,0-.17,0-.17.1s.08.1.17.1.16,0,.16-.1S137.5,64.37,137.41,64.37Z"/><path id="Trazado_2875" data-name="Trazado 2875" class="cls-54" d="M138.77,64.38c-.09,0-.16,0-.16.1s.07.1.17.1.16,0,.16-.1S138.87,64.38,138.77,64.38Z"/><g id="Grupo_2240" data-name="Grupo 2240"><g id="Grupo_2235" data-name="Grupo 2235"><path id="Trazado_2876" data-name="Trazado 2876" class="cls-38" d="M139.47,64.68a.36.36,0,0,1,0,.09l0,0v0h0a.71.71,0,0,1-.1.14l0,0h0l0,0-.07.06-.07.05h0l0,0-.09,0h-.09a0,0,0,0,0,0,0s0,0,0,0a1,1,0,0,0,.35-.15,1.33,1.33,0,0,0,.26-.27,1.14,1.14,0,0,0,.1-.19,0,0,0,1,0-.07,0h0Z"/></g><g id="Grupo_2239" data-name="Grupo 2239"><g id="Grupo_2237" data-name="Grupo 2237"><path id="Trazado_2877" data-name="Trazado 2877" class="cls-38" d="M138.79,65.28v.06a.18.18,0,0,1-.11.1h0a.1.1,0,0,1-.11-.09c0-.08.08-.12.16-.11h0l0,0Z"/><g id="Grupo_2236" data-name="Grupo 2236"><path id="Trazado_2878" data-name="Trazado 2878" class="cls-38" d="M138.76,65.28v0h-.14v0h0v0h.14l0,0a0,0,0,0,0,0,0s0,0,0,0h0l0,0h-.12a.18.18,0,0,0-.12.09.11.11,0,0,0,0,.14.14.14,0,0,0,.17,0,.16.16,0,0,0,.08-.17,0,0,0,0,0,0,0,0,0,0,0,0,0,0s0,0,0,0Z"/></g></g><g id="Grupo_2238" data-name="Grupo 2238"><path id="Trazado_2879" data-name="Trazado 2879" class="cls-38" d="M138.7,65.21h0a0,0,0,0,0,0,0h0l0,0,0,0a.18.18,0,0,0-.07-.05h-.08s0,0,0,0l0,0h.06a0,0,0,0,0,0,0h0a0,0,0,0,0,0,0,.18.18,0,0,0-.05-.07.16.16,0,0,0-.08-.05h0a.08.08,0,0,0,0,0,0,0,0,0,0,0,0l0,0a0,0,0,0,0,.05,0h0A0,0,0,0,0,138.7,65.21Z"/></g></g></g><g id="Grupo_2246" data-name="Grupo 2246"><g id="Grupo_2241" data-name="Grupo 2241"><path id="Trazado_2880" data-name="Trazado 2880" class="cls-38" d="M136.66,64.68l0,.09a.05.05,0,0,1,0,0h0l.1.14,0,0h0l0,0,.07.06.07.05h0l0,0,.1,0,0,0h0s0,0,0,0,0,0,0,0a1.06,1.06,0,0,1-.34-.16,1.16,1.16,0,0,1-.26-.28,1.11,1.11,0,0,1-.09-.19,0,0,0,0,1,0,0s0,0,0,0h0Z"/></g><g id="Grupo_2245" data-name="Grupo 2245"><g id="Grupo_2243" data-name="Grupo 2243"><path id="Trazado_2881" data-name="Trazado 2881" class="cls-38" d="M137.33,65.28a0,0,0,0,0,0,0,0,0,0,0,0,0,0,.16.16,0,0,0,.1.11h0a.11.11,0,0,0,.11-.09c0-.08-.08-.12-.16-.11h-.07Z"/><g id="Grupo_2242" data-name="Grupo 2242"><path id="Trazado_2882" data-name="Trazado 2882" class="cls-38" d="M137.36,65.29v0h.13v0h0v0h-.14l0,0s0,0,0,0a0,0,0,0,1,0,0h0l.05,0h.07a.16.16,0,0,1,.12.09.14.14,0,0,1-.05.15.15.15,0,0,1-.17,0,.18.18,0,0,1-.08-.17s0,0,0,0a.05.05,0,0,1,0,0Z"/></g></g><g id="Grupo_2244" data-name="Grupo 2244"><path id="Trazado_2883" data-name="Trazado 2883" class="cls-38" d="M137.41,65.22h0l0,0,0,0a.07.07,0,0,1,.06,0h.08s0,0,0,0,0,0,0,0h-.06a0,0,0,0,1-.05,0,0,0,0,0,1,0,0l.05-.07a.2.2,0,0,1,.08,0h0l0,0a.06.06,0,0,1,0,0,.05.05,0,0,1,0,0,0,0,0,0,1-.05,0s0,0,0,0h0Z"/></g></g></g><g id="Grupo_2247" data-name="Grupo 2247"><path id="Trazado_2884" data-name="Trazado 2884" class="cls-55" d="M138.1,64.55s0,0-.08,0a.24.24,0,0,0-.19.13.69.69,0,0,1,.51,0h0C138.28,64.58,138.21,64.45,138.1,64.55Z"/><path id="Trazado_2885" data-name="Trazado 2885" class="cls-56" d="M138.36,64.52a.36.36,0,0,0-.12-.08.43.43,0,0,0-.38,0l-.07.07a.22.22,0,0,0,0,.08v0s0,0,0,0h0l0,0a.23.23,0,0,1,.18-.13s.06,0,.09,0,.18,0,.24.12.09,0,.09,0A.25.25,0,0,0,138.36,64.52Z"/></g><path id="Trazado_2886" data-name="Trazado 2886" class="cls-56" d="M138.73,64.13a.39.39,0,0,1,.26.21.85.85,0,0,0-.38-.12h-.14l.09-.09.05,0A.46.46,0,0,1,139,64a.66.66,0,0,0-.27.12Z"/><path id="Trazado_2887" data-name="Trazado 2887" class="cls-56" d="M137.45,64.13a.41.41,0,0,0-.26.21.89.89,0,0,1,.39-.12h.13l-.09-.09-.05,0a.45.45,0,0,0-.43-.12.7.7,0,0,1,.28.12Z"/><g id="Grupo_2248" data-name="Grupo 2248"><path id="Trazado_2888" data-name="Trazado 2888" class="cls-57" d="M137,64.24a.34.34,0,0,0-.27.1l0,0a.18.18,0,0,0,.05.24h0a.11.11,0,0,0,.13,0l0,0v0s0,0,0,0,0,0,0,0a1.77,1.77,0,0,1,0-.21S137,64.25,137,64.24Z"/><path id="Trazado_2889" data-name="Trazado 2889" class="cls-58" d="M136.86,64.33a.06.06,0,0,0-.07,0h0c-.06.06-.08.18,0,.2s.11-.07.12-.13v0h0v0s0,0,0,0Z"/></g><g id="Grupo_2249" data-name="Grupo 2249"><path id="Trazado_2890" data-name="Trazado 2890" class="cls-57" d="M139.17,64.28a.3.3,0,0,1,.21.14,0,0,0,0,1,0,0,.14.14,0,0,1-.08.2h0a.11.11,0,0,1-.11,0s0,0,0-.05v-.08a1.24,1.24,0,0,1,0-.18A0,0,0,0,1,139.17,64.28Z"/><path id="Trazado_2891" data-name="Trazado 2891" class="cls-58" d="M139.3,64.38a.07.07,0,0,1,0,0h0s0,.15,0,.16-.08-.08-.08-.13v0h0v0l0,0Z"/></g><g id="Grupo_2250" data-name="Grupo 2250"><path id="Trazado_2892" data-name="Trazado 2892" class="cls-57" d="M139.29,64.1a.27.27,0,0,1,.2-.12h0a.14.14,0,0,1,.12.15h0a.08.08,0,0,1-.07.08h-.11l-.14-.09Z"/><path id="Trazado_2893" data-name="Trazado 2893" class="cls-58" d="M139.42,64l.05,0h0c.06,0,.14,0,.12.1s-.09,0-.13,0l0,0h0s0,0,0,0Z"/></g><g id="Grupo_2252" data-name="Grupo 2252"><path id="Trazado_2894" data-name="Trazado 2894" class="cls-59" d="M140.89,65.1l-.39-.44-.09.16-.32-.27.34.46.1-.18Z"/><g id="Grupo_2251" data-name="Grupo 2251"><path id="Trazado_2895" data-name="Trazado 2895" class="cls-60" d="M140.09,64.55l.34.46,0,0-.22-.3Z"/><path id="Trazado_2896" data-name="Trazado 2896" class="cls-60" d="M140.56,64.79l0,0,.36.27-.16-.18Z"/></g></g><g id="Grupo_2254" data-name="Grupo 2254"><path id="Trazado_2897" data-name="Trazado 2897" class="cls-59" d="M140.88,64.18l-.43,0,0,.13h-.3l.41.08,0-.15Z"/><g id="Grupo_2253" data-name="Grupo 2253"><path id="Trazado_2898" data-name="Trazado 2898" class="cls-60" d="M140.17,64.28l.41.08v0l-.27-.06Z"/><path id="Trazado_2899" data-name="Trazado 2899" class="cls-60" d="M140.55,64.18v0l.33,0-.17,0Z"/></g></g><g id="Grupo_2256" data-name="Grupo 2256"><path id="Trazado_2900" data-name="Trazado 2900" class="cls-59" d="M135.2,65.11l.36-.46.1.15.3-.29-.31.48-.11-.17Z"/><g id="Grupo_2255" data-name="Grupo 2255"><path id="Trazado_2901" data-name="Trazado 2901" class="cls-60" d="M136,64.51l-.3.49,0,0,.2-.33Z"/><path id="Trazado_2902" data-name="Trazado 2902" class="cls-60" d="M135.51,64.78l0,0-.34.3.15-.19Z"/></g></g><g id="Grupo_2258" data-name="Grupo 2258"><path id="Trazado_2903" data-name="Trazado 2903" class="cls-59" d="M135.08,64.09l.43,0,0,.13.31,0-.41.06,0-.15Z"/><g id="Grupo_2257" data-name="Grupo 2257"><path id="Trazado_2904" data-name="Trazado 2904" class="cls-60" d="M135.78,64.22l-.41.06v0l.28,0Z"/><path id="Trazado_2905" data-name="Trazado 2905" class="cls-60" d="M135.42,64.1v0l-.33,0h.18Z"/></g></g><g id="Grupo_2259" data-name="Grupo 2259"><path id="Trazado_2906" data-name="Trazado 2906" class="cls-61" d="M139.91,65.08a1,1,0,0,0,0,.17s0,0,0,0a.24.24,0,0,0,.12,0l.11-.06,0,0v0h0v0h0v0l0,.12a0,0,0,0,0,0,0h0l.1,0,.1-.07h0v0l0,.1s0,0,0,0h0s0,0,0,0h0s0-.07,0-.11a.24.24,0,0,0-.06-.11,0,0,0,0,0,0,0l0,0-.05,0-.09,0,0,0v0h0v0l0-.06a.24.24,0,0,0,0-.12s0,0,0,0h0l-.1.06h-.1l0,0s0,0,0-.08a.11.11,0,0,1,0-.08,0,0,0,0,0,0,0h0s0,0,0,0Z"/></g><g id="Grupo_2260" data-name="Grupo 2260"><path id="Trazado_2907" data-name="Trazado 2907" class="cls-61" d="M135.35,63.48a.9.9,0,0,0,0,.16s0,0,0,0a.21.21,0,0,0,.12,0l.1-.06,0,0h0v0h0v0a.5.5,0,0,0,0,.12,0,0,0,0,0,0,0h0l.09-.06a.31.31,0,0,0,.09-.07h0a0,0,0,0,0,0,0,.38.38,0,0,0,0,.1l0,0s0,0,0,0l0-.11a.21.21,0,0,0-.06-.1h0l0,0,0,0-.09.06,0,0v0h0a.14.14,0,0,1,0-.06.24.24,0,0,0,0-.12s0,0,0,0h0l-.1.06h-.1l0,0a.29.29,0,0,0,0-.09s0-.05,0-.07a0,0,0,0,0,0,0h0a0,0,0,0,0,0,0h0Z"/></g></g></g><g id="Grupo_2358" data-name="Grupo 2358"><circle id="Elipse_28" data-name="Elipse 28" class="cls-62" cx="134.83" cy="58.77" r="0.92"/></g><g id="Grupo_2359" data-name="Grupo 2359"><circle id="Elipse_29" data-name="Elipse 29" class="cls-63" cx="137.73" cy="66.99" r="0.92"/></g><g id="Grupo_2360" data-name="Grupo 2360"><circle id="Elipse_30" data-name="Elipse 30" class="cls-64" cx="131.37" cy="65.61" r="0.92"/></g><g id="Grupo_2361" data-name="Grupo 2361"><circle id="Elipse_31" data-name="Elipse 31" class="cls-65" cx="129.5" cy="69.65" r="0.92"/></g><g id="Grupo_2362" data-name="Grupo 2362"><circle id="Elipse_32" data-name="Elipse 32" class="cls-63" cx="131.36" cy="73.84" r="0.92"/></g><g id="Grupo_2363" data-name="Grupo 2363"><circle id="Elipse_33" data-name="Elipse 33" class="cls-65" cx="137.75" cy="71.37" r="0.92"/></g><g id="Grupo_2364" data-name="Grupo 2364"><circle id="Elipse_34" data-name="Elipse 34" class="cls-64" cx="134.77" cy="76.61" r="0.92"/></g><g id="Grupo_2365" data-name="Grupo 2365"><circle id="Elipse_35" data-name="Elipse 35" class="cls-62" cx="130.45" cy="83.8" r="0.92"/></g><g id="Grupo_2369" data-name="Grupo 2369"><g id="Grupo_2367" data-name="Grupo 2367"><path id="Trazado_3092" data-name="Trazado 3092" class="cls-64" d="M115.67,51.3a7.16,7.16,0,1,1,7.07-6A7.2,7.2,0,0,1,115.67,51.3Zm0-13.84A6.65,6.65,0,1,0,121,40.2h0a6.61,6.61,0,0,0-4.34-2.66,7.42,7.42,0,0,0-1-.08Z"/></g><g id="Grupo_2368" data-name="Grupo 2368"><path id="Trazado_3093" data-name="Trazado 3093" class="cls-64" d="M116.89,41.28c-.64,0-.52,1.1-.61,1.42a.88.88,0,0,1-.32-.62V39.94h-.66v2.14a.88.88,0,0,1-.32.62c-.08-.32,0-1.42-.6-1.42-1.58,0-2.87,3.11-2.85,5l.67-.66a1.55,1.55,0,1,1,.46.46l-1,1a1.47,1.47,0,0,0,.1.22c.39.64.32-.55,1.82-.55,0,0,1.28.11,1.42-.6a9.09,9.09,0,0,0,.09-2.85,1.22,1.22,0,0,0,.36-.27.24.24,0,0,1,.35,0h0a1.31,1.31,0,0,0,.35.27,9.4,9.4,0,0,0,.1,2.85c.14.71,1.41.6,1.41.6,1.51,0,1.44,1.19,1.83.55C120.32,45.93,118.81,41.28,116.89,41.28Z"/><path id="Trazado_3094" data-name="Trazado 3094" class="cls-64" d="M113.66,45.09l.08-1h-.49l.08,1Z"/><path id="Trazado_3095" data-name="Trazado 3095" class="cls-64" d="M113.5,45.22a.19.19,0,0,0-.2.2.19.19,0,0,0,.2.2.19.19,0,0,0,.19-.2h0A.19.19,0,0,0,113.5,45.22Z"/><path id="Trazado_3096" data-name="Trazado 3096" class="cls-64" d="M113.5,46.16a1.4,1.4,0,1,0-1.4-1.4,1.42,1.42,0,0,0,.29.86l-1.57,1.57.25.25,1.58-1.57A1.37,1.37,0,0,0,113.5,46.16Zm-.82-2.22a1.16,1.16,0,1,1,0,1.65,1.16,1.16,0,0,1,0-1.65v0Z"/></g></g><g id="Grupo_2372" data-name="Grupo 2372"><g id="Grupo_2370" data-name="Grupo 2370"><path id="Trazado_3097" data-name="Trazado 3097" class="cls-65" d="M103.94,67.44a7.2,7.2,0,0,1,0-14.4,7.32,7.32,0,0,1,2.23.35h0a7.2,7.2,0,0,1-2.22,14Zm0-13.85a6.66,6.66,0,1,0,2,.33h0a6.47,6.47,0,0,0-2-.33Z"/></g><g id="Grupo_2371" data-name="Grupo 2371"><path id="Trazado_3098" data-name="Trazado 3098" class="cls-65" d="M103.1,59a.46.46,0,0,0-.46-.46.47.47,0,0,0-.46.46.46.46,0,0,0,.46.46A.45.45,0,0,0,103.1,59Zm-.89,0a.43.43,0,1,1,.43.43h0A.43.43,0,0,1,102.21,59Z"/><path id="Trazado_3099" data-name="Trazado 3099" class="cls-65" d="M103,59a.36.36,0,1,0-.36.36h0A.36.36,0,0,0,103,59Zm-.61-.08a.16.16,0,0,1,.16-.17.17.17,0,0,1,.17.17.17.17,0,0,1-.17.16.16.16,0,0,1-.16-.16h0Z"/><path id="Trazado_3100" data-name="Trazado 3100" class="cls-65" d="M103.53,57.54a.45.45,0,0,0,.45-.45.45.45,0,1,0-.9,0A.45.45,0,0,0,103.53,57.54Zm0-.87a.42.42,0,0,1,.42.42.42.42,0,0,1-.84,0h0a.42.42,0,0,1,.42-.42Z"/><path id="Trazado_3101" data-name="Trazado 3101" class="cls-65" d="M103.53,57.44a.35.35,0,0,0,.35-.35.35.35,0,0,0-.7,0,.35.35,0,0,0,.35.35Zm-.09-.6a.16.16,0,1,1,0,.32.16.16,0,0,1-.16-.16.17.17,0,0,1,.16-.16Z"/><path id="Trazado_3102" data-name="Trazado 3102" class="cls-65" d="M104.7,58.79a.35.35,0,1,0,.35.35h0A.35.35,0,0,0,104.7,58.79Zm0,.67a.33.33,0,0,1,0-.65.33.33,0,0,1,.33.32h0A.33.33,0,0,1,104.7,59.46Z"/><path id="Trazado_3103" data-name="Trazado 3103" class="cls-65" d="M104.7,58.86a.27.27,0,1,0,.27.27.27.27,0,0,0-.27-.27Zm.07.46a.12.12,0,1,1,0-.24.12.12,0,0,1,.12.12h0A.12.12,0,0,1,104.77,59.32Z"/><path id="Trazado_3104" data-name="Trazado 3104" class="cls-65" d="M104.78,57.85a.23.23,0,1,0-.22-.22h0A.22.22,0,0,0,104.78,57.85Zm0-.44a.21.21,0,0,1,.21.22.21.21,0,0,1-.21.21.22.22,0,0,1-.21-.21h0a.21.21,0,0,1,.21-.21Z"/><path id="Trazado_3105" data-name="Trazado 3105" class="cls-65" d="M104.78,57.8a.18.18,0,0,0,.18-.17.18.18,0,0,0-.18-.18.17.17,0,0,0-.17.18h0A.17.17,0,0,0,104.78,57.8Zm0-.21a.08.08,0,1,1,0,.16.09.09,0,0,1-.08-.08h0a.09.09,0,0,1,.08-.08Z"/><path id="Trazado_3106" data-name="Trazado 3106" class="cls-65" d="M103.22,59a.24.24,0,1,0,.34,0h0A.25.25,0,0,0,103.22,59Zm.32.33a.23.23,0,0,1-.31,0,.23.23,0,0,1,0-.32.23.23,0,0,1,.31,0h0a.22.22,0,0,1,0,.32Z"/><path id="Trazado_3107" data-name="Trazado 3107" class="cls-65" d="M103.26,59.06a.18.18,0,1,0,.26,0A.19.19,0,0,0,103.26,59.06Zm.19.13a.09.09,0,0,1-.12,0,.07.07,0,0,1,0-.12.08.08,0,0,1,.12,0h0a.08.08,0,0,1,0,.11Z"/><path id="Trazado_3108" data-name="Trazado 3108" class="cls-65" d="M103.3,58.24a.71.71,0,1,0,1.42,0,.7.7,0,0,0-.71-.7h0A.7.7,0,0,0,103.3,58.24Zm.71-.66a.66.66,0,1,1-.66.66h0a.66.66,0,0,1,.66-.65Z"/><path id="Trazado_3109" data-name="Trazado 3109" class="cls-65" d="M104,58.79a.55.55,0,0,0,0-1.09.55.55,0,1,0,0,1.09Zm.13-.93a.25.25,0,1,1-.25.25.25.25,0,0,1,.25-.25Z"/><path id="Trazado_3110" data-name="Trazado 3110" class="cls-65" d="M102.83,58.53a.32.32,0,1,0-.32-.32A.32.32,0,0,0,102.83,58.53Zm0-.61a.3.3,0,1,1-.29.29.29.29,0,0,1,.29-.29Z"/><path id="Trazado_3111" data-name="Trazado 3111" class="cls-65" d="M102.83,58.46a.25.25,0,1,0-.24-.24h0A.24.24,0,0,0,102.83,58.46Zm-.06-.3a.11.11,0,0,1,.12.11.12.12,0,0,1-.12.12.11.11,0,0,1-.11-.12.11.11,0,0,1,.11-.11Z"/><path id="Trazado_3112" data-name="Trazado 3112" class="cls-65" d="M103.68,60.16a2,2,0,1,0-2-2h0A2,2,0,0,0,103.68,60.16Zm0-3.88a1.9,1.9,0,1,1-1.9,1.9h0A1.9,1.9,0,0,1,103.68,56.28Z"/><path id="Trazado_3113" data-name="Trazado 3113" class="cls-65" d="M107.9,58l-2,0a1.48,1.48,0,0,1,0,.21,2.25,2.25,0,0,1-4.49,0h0a1.09,1.09,0,0,1,0-.18h-.13c-3.18.21-1.2,4.42-.67,5.46a3.4,3.4,0,0,1,3.17-2,5.44,5.44,0,0,0,2.42-.46C107.68,59.51,108.45,58,107.9,58Z"/><path id="Trazado_3114" data-name="Trazado 3114" class="cls-65" d="M100.82,63.71a7.92,7.92,0,0,0,4.89-2.25,6.79,6.79,0,0,1-1.9.24A3.12,3.12,0,0,0,100.82,63.71Z"/></g></g><g id="Grupo_2389" data-name="Grupo 2389"><g id="Grupo_2373" data-name="Grupo 2373"><path id="Trazado_3115" data-name="Trazado 3115" class="cls-63" d="M165.3,67.43a7.19,7.19,0,1,1,2.22-.35h0A7.3,7.3,0,0,1,165.3,67.43Zm0-13.84a6.65,6.65,0,1,0,6.65,6.64,6.52,6.52,0,0,0-.33-2A6.62,6.62,0,0,0,165.29,53.59Z"/></g><g id="Grupo_2388" data-name="Grupo 2388"><g id="Grupo_2375" data-name="Grupo 2375"><g id="Grupo_2374" data-name="Grupo 2374"><path id="Trazado_3116" data-name="Trazado 3116" class="cls-63" d="M166.72,56.93v1.22l.4-1.47h-.39l.09-1.14h-.54l.23,1.39Z"/></g></g><g id="Grupo_2377" data-name="Grupo 2377"><g id="Grupo_2376" data-name="Grupo 2376"><path id="Trazado_3117" data-name="Trazado 3117" class="cls-63" d="M170.15,58.46l-1.39.24v.2h-1.23l1.48.4v-.38l1.14.09Z"/></g></g><g id="Grupo_2379" data-name="Grupo 2379"><g id="Grupo_2378" data-name="Grupo 2378"><path id="Trazado_3118" data-name="Trazado 3118" class="cls-63" d="M168.61,57.6l-.28-.28.87-.74-.38-.38L168,57.35l.15.14-.87.87Z"/></g></g><g id="Grupo_2381" data-name="Grupo 2381"><g id="Grupo_2380" data-name="Grupo 2380"><path id="Trazado_3119" data-name="Trazado 3119" class="cls-63" d="M166.17,59.46a1.44,1.44,0,0,1,.51.44,1.85,1.85,0,0,1,.52-.4l-.26-.62A2.09,2.09,0,0,0,166.17,59.46Z"/></g></g><g id="Grupo_2383" data-name="Grupo 2383"><g id="Grupo_2382" data-name="Grupo 2382"><path id="Trazado_3120" data-name="Trazado 3120" class="cls-63" d="M165.29,59.36a1.3,1.3,0,0,1,.78.06,2.4,2.4,0,0,0-1.23-1.35l-.26.63A1.62,1.62,0,0,1,165.29,59.36Z"/></g></g><g id="Grupo_2385" data-name="Grupo 2385"><g id="Grupo_2384" data-name="Grupo 2384"><path id="Trazado_3121" data-name="Trazado 3121" class="cls-63" d="M162.39,59.46a1.3,1.3,0,0,1,.38-.22l.19-.07a1.71,1.71,0,0,1,.84-.06,2.69,2.69,0,0,0-.27-.32,1.15,1.15,0,0,1,.26-.19h0l-.21-.64a1.33,1.33,0,0,0-.53.35,5.91,5.91,0,0,0-1.3-.87l-.29.62a5.22,5.22,0,0,1,1.18.8A2.63,2.63,0,0,0,162.39,59.46Z"/></g></g><g id="Grupo_2387" data-name="Grupo 2387"><g id="Grupo_2386" data-name="Grupo 2386"><path id="Trazado_3122" data-name="Trazado 3122" class="cls-63" d="M166.64,61.33a1.24,1.24,0,0,0-1.53-1.78h0l-.12.06a6.51,6.51,0,0,1,.23,3.78,6.14,6.14,0,0,0-.2-2.66,4.59,4.59,0,0,1-1.5,1.15,4.14,4.14,0,0,0,1.41-1.41,4.38,4.38,0,0,0-.41-.88,1.66,1.66,0,1,0-2.08,2.59,1.18,1.18,0,0,0,.18.13c-.06.84.36,2.06,3,2.57,0,0,1.81.73,1-3.55Z"/></g></g></g></g><g id="Grupo_2396" data-name="Grupo 2396"><g id="Grupo_2390" data-name="Grupo 2390"><path id="Trazado_3123" data-name="Trazado 3123" class="cls-62" d="M115.64,103.5a7.2,7.2,0,0,1-5.81-11.43h0a7.2,7.2,0,1,1,7,11.34A7.3,7.3,0,0,1,115.64,103.5Zm0-13.84a5.35,5.35,0,0,0-1.06.08,6.58,6.58,0,0,0-4.33,2.66h0a6.65,6.65,0,1,0,5.39-2.74Z"/></g><g id="Grupo_2395" data-name="Grupo 2395"><g id="Grupo_2391" data-name="Grupo 2391"><path id="Trazado_3124" data-name="Trazado 3124" class="cls-62" d="M114,95.08l1.12.22-1,.36,0,0,.8.24a2.36,2.36,0,0,0,.51-.12.57.57,0,0,1-.12-.72.62.62,0,0,0,.32.72,1.67,1.67,0,0,0,1.86-.37.87.87,0,0,0,.06-1.19,1.27,1.27,0,0,1-.18-1.23l.35-.89a3.42,3.42,0,0,0-2.19,0s-.36,1.56-.73,1.69a1.46,1.46,0,0,0-.88.79l.56-.27Z"/></g><g id="Grupo_2392" data-name="Grupo 2392"><path id="Trazado_3125" data-name="Trazado 3125" class="cls-62" d="M112.31,95.52l-.13-.79,1.55.58-2-1.48.08.69-1.3-.28Z"/></g><g id="Grupo_2393" data-name="Grupo 2393"><path id="Trazado_3126" data-name="Trazado 3126" class="cls-62" d="M113.83,95.68l-1.19.44.1-.6-1.41,1,1-.22-.06.53Z"/></g><g id="Grupo_2394" data-name="Grupo 2394"><path id="Trazado_3127" data-name="Trazado 3127" class="cls-62" d="M115.57,96h0a1.78,1.78,0,0,1-.71.15,1.43,1.43,0,0,1-.29,0l-.22-.08-.19,0,.21.79-.56-.63,0,.09a1.76,1.76,0,0,0,.15.64c.4,1,.48,0,.89,3.49a2.38,2.38,0,0,0,1.76.05l.16-.05s-.34-2.84.18-3.13a1.92,1.92,0,0,0,.64-1.57A2,2,0,0,1,115.57,96Z"/></g></g></g><g id="Grupo_2415" data-name="Grupo 2415"><g id="Grupo_2397" data-name="Grupo 2397"><path id="Trazado_3128" data-name="Trazado 3128" class="cls-62" d="M153.57,51.3a7.2,7.2,0,1,1,7.21-7.19,7.3,7.3,0,0,1-1.38,4.23A7.16,7.16,0,0,1,153.57,51.3Zm0-13.84a6.65,6.65,0,1,0,3.9,1.27A6.65,6.65,0,0,0,153.58,37.46Z"/></g><g id="Grupo_2414" data-name="Grupo 2414"><g id="Grupo_2406" data-name="Grupo 2406"><g id="Grupo_2399" data-name="Grupo 2399"><g id="Grupo_2398" data-name="Grupo 2398"><path id="Trazado_3129" data-name="Trazado 3129" class="cls-62" d="M150,44.77l-.35.06.13-.33-.32-.21.36-.15-.09-.36.35.15.22-.35.12.22-.11-.39-.26.4-.44-.17.1.45-.43.18.39.27-.18.42.46-.09.19.45.17-.36-.16.19Z"/></g></g><g id="Grupo_2401" data-name="Grupo 2401"><g id="Grupo_2400" data-name="Grupo 2400"><path id="Trazado_3130" data-name="Trazado 3130" class="cls-62" d="M148.91,44.8l-.57.11.21-.54L148,44l.57-.24-.14-.58.57.24.34-.57.2.37-.17-.64-.43.65-.7-.28.15.73-.7.3.63.43-.29.69.75-.15.3.73.27-.6-.25.31Z"/></g></g><g id="Grupo_2403" data-name="Grupo 2403"><g id="Grupo_2402" data-name="Grupo 2402"><path id="Trazado_3131" data-name="Trazado 3131" class="cls-62" d="M154.33,46.55a2.27,2.27,0,0,0,.91-4.07c-3-1.93-3.63.42-3.63.42l-1,.8c-.08.15.3.42.33.42s.05.15,0,.28l1.14.51a1.5,1.5,0,0,1,.9,1.38v2.22a6,6,0,0,0,1.57-.36l-.7-.87S153.86,46.66,154.33,46.55Z"/></g></g><g id="Grupo_2405" data-name="Grupo 2405"><g id="Grupo_2404" data-name="Grupo 2404"><path id="Trazado_3132" data-name="Trazado 3132" class="cls-62" d="M151.81,45.46l-1.17-.52-.08.13c-.22.44.95.76.95.76l-.41,2.41a3.61,3.61,0,0,0,1.25.28V46.29A.9.9,0,0,0,151.81,45.46Z"/></g></g></g><g id="Grupo_2413" data-name="Grupo 2413"><g id="Grupo_2408" data-name="Grupo 2408"><g id="Grupo_2407" data-name="Grupo 2407"><path id="Trazado_3133" data-name="Trazado 3133" class="cls-62" d="M158.07,43.24a.08.08,0,0,0-.08-.08h-.32l.38-.55a.06.06,0,0,0,0,0h0a.08.08,0,0,0-.08-.09h-.45a.08.08,0,0,0-.07.08h0a.08.08,0,0,0,.07.08h.29l-.39.56s0,0,0,0h0a.08.08,0,0,0,.08.08h.5a.08.08,0,0,0,.07-.08Z"/></g></g><g id="Grupo_2410" data-name="Grupo 2410"><g id="Grupo_2409" data-name="Grupo 2409"><path id="Trazado_3134" data-name="Trazado 3134" class="cls-62" d="M158.38,41.29a.11.11,0,0,0-.11-.12h-.47l.56-.81a.14.14,0,0,0,0-.07h0a.13.13,0,0,0-.13-.12h-.66a.12.12,0,0,0-.12.12h0a.12.12,0,0,0,.12.11H158l-.57.82a.14.14,0,0,0,0,.07h0a.11.11,0,0,0,.11.11h.74a.13.13,0,0,0,.12-.11Z"/></g></g><g id="Grupo_2412" data-name="Grupo 2412"><g id="Grupo_2411" data-name="Grupo 2411"><path id="Trazado_3135" data-name="Trazado 3135" class="cls-62" d="M157,42.47a.15.15,0,0,0-.15-.15h-.63l.74-1.07a.16.16,0,0,0,0-.09h0a.17.17,0,0,0-.16-.17H156a.16.16,0,0,0-.15.16h0a.15.15,0,0,0,.15.15h.56l-.76,1.09a.12.12,0,0,0,0,.09h0a.16.16,0,0,0,.16.15h1a.16.16,0,0,0,.16-.16Z"/></g></g></g></g></g><g id="Grupo_2418" data-name="Grupo 2418"><g id="Grupo_2416" data-name="Grupo 2416"><path id="Trazado_3136" data-name="Trazado 3136" class="cls-64" d="M153.59,103.5a7.16,7.16,0,1,1,7.07-6A7.11,7.11,0,0,1,153.59,103.5Zm0-13.85a6.72,6.72,0,1,0,1.05.09,6.2,6.2,0,0,0-1.05-.09Z"/></g><g id="Grupo_2417" data-name="Grupo 2417"><path id="Trazado_3137" data-name="Trazado 3137" class="cls-64" d="M152.8,95.45a.86.86,0,1,0-.86.86h0A.85.85,0,0,0,152.8,95.45Z"/><path id="Trazado_3138" data-name="Trazado 3138" class="cls-64" d="M155.26,94.59a.86.86,0,0,0,0,1.72.86.86,0,0,0,0-1.72Z"/><path id="Trazado_3139" data-name="Trazado 3139" class="cls-64" d="M156.88,93.9a4.08,4.08,0,1,0-.91,5.7h0A4.09,4.09,0,0,0,156.88,93.9Zm-3.83,3.71v.5h-.86v.72h-.49v-.72h-.87v-.5h.87v-.83a1.35,1.35,0,1,1,1.58-1.08,1.37,1.37,0,0,1-1.09,1.08v.83Zm2.46-.83v1.27l.58-.58.35.35-1,1a.25.25,0,0,1-.35,0h0l-1-1,.35-.35.58.58V96.78a1.35,1.35,0,0,1,.5-2.66,1.35,1.35,0,0,1,0,2.66Z"/></g></g><g id="Grupo_2429" data-name="Grupo 2429"><path id="Trazado_3140" data-name="Trazado 3140" class="cls-63" d="M110.78,78a7.2,7.2,0,1,0,.35,2.21A7.19,7.19,0,0,0,110.78,78Zm-.93,5.24a6.65,6.65,0,1,1,.4-5.07,6.63,6.63,0,0,1-.4,5.07Z"/><g id="Grupo_2428" data-name="Grupo 2428"><g id="Grupo_2420" data-name="Grupo 2420"><g id="Grupo_2419" data-name="Grupo 2419"><path id="Trazado_3141" data-name="Trazado 3141" class="cls-63" d="M109,77.41h-1.22a2.8,2.8,0,0,0,.1-1.08.16.16,0,0,0-.19-.12.15.15,0,0,0-.13.16,2.43,2.43,0,0,1-.15,1.13s0,0,0,0a2.38,2.38,0,0,1-.53.8l0,0s0-.07,0-.11v0a1.5,1.5,0,0,0-1.43-1.56,1.52,1.52,0,0,0-1,.3l-.87.28a1.12,1.12,0,0,0-.58.37l0,.06-.31.1a1.86,1.86,0,0,0-.87.55l-.14.19-.28.07a2,2,0,0,0-1,.62,1.67,1.67,0,0,0-.31.66,2.5,2.5,0,0,1,3.15.15,1.22,1.22,0,0,0,.32-.24,1.74,1.74,0,0,0,.41-.74l.1-.32.16-.13a1.18,1.18,0,0,0,.28-.5l.29-.91a1.17,1.17,0,0,1,1.62.34,1.15,1.15,0,0,1,.19.69v0a1.2,1.2,0,0,1-.33.78l-1.38,1.37a.17.17,0,0,0,0,.23.16.16,0,0,0,.23,0h0l1.37-1.37h0l.69-.69a2.77,2.77,0,0,0,.56-.82H109a.16.16,0,0,0,.17-.14.17.17,0,0,0-.15-.18Z"/></g></g><g id="Grupo_2427" data-name="Grupo 2427"><g id="Grupo_2421" data-name="Grupo 2421"><path id="Trazado_3142" data-name="Trazado 3142" class="cls-63" d="M101.47,84.21a2.3,2.3,0,1,1,2.3-2.3h0A2.32,2.32,0,0,1,101.47,84.21Zm0-4.5a2.19,2.19,0,1,0,2.19,2.19h0a2.2,2.2,0,0,0-2.19-2.19Z"/></g><g id="Grupo_2422" data-name="Grupo 2422"><path id="Trazado_3143" data-name="Trazado 3143" class="cls-63" d="M100.72,81.54h-.28l-.13.24.13.23h.27l.14-.23Z"/></g><g id="Grupo_2423" data-name="Grupo 2423"><path id="Trazado_3144" data-name="Trazado 3144" class="cls-63" d="M100.41,80.65h-.35l-.17.3.17.3h.35l.17-.3Z"/></g><g id="Grupo_2424" data-name="Grupo 2424"><path id="Trazado_3145" data-name="Trazado 3145" class="cls-63" d="M102.87,81h-.23l-.11.2.11.2h.23l.11-.2Z"/></g><path id="Trazado_3146" data-name="Trazado 3146" class="cls-63" d="M102.28,81.18h-.77l-.39.67.39.67h.77l.39-.67Zm-.39.66.29-.49.28.49Z"/><path id="Trazado_3147" data-name="Trazado 3147" class="cls-63" d="M100.53,82.31h-.44l-.22.38.22.39h.44l.23-.39Zm-.22.38.16-.28.16.28Z"/><g id="Grupo_2426" data-name="Grupo 2426"><g id="Grupo_2425" data-name="Grupo 2425"><path id="Trazado_3148" data-name="Trazado 3148" class="cls-63" d="M101.3,82.74h-.2l-.1.18.1.18h.2l.1-.18Z"/></g></g><path id="Trazado_3149" data-name="Trazado 3149" class="cls-63" d="M102,83.21h-.3l-.15.26.15.26h.3l.15-.26Zm-.15.25.11-.19.11.19Z"/><path id="Trazado_3150" data-name="Trazado 3150" class="cls-63" d="M102.84,82.54h-.35l-.17.3.17.3h.35l.17-.3Zm-.17.3.12-.22.13.22Z"/><path id="Trazado_3151" data-name="Trazado 3151" class="cls-63" d="M101.63,80.17h-.45l-.22.39.22.39h.45l.22-.39Zm-.22.38.16-.28.16.28Z"/></g></g></g><g id="Grupo_2443" data-name="Grupo 2443"><path id="Trazado_3157" data-name="Trazado 3157" class="cls-62" d="M149.25,58.94H134.83v-.33h14.29l4.29-4.29V51h.33v3.42Z"/></g><g id="Grupo_2444" data-name="Grupo 2444"><path id="Trazado_3158" data-name="Trazado 3158" class="cls-63" d="M146.81,67.15h-9.06v-.33h8.92l7.11-7.11h4.59V60h-4.45Z"/></g><g id="Grupo_2445" data-name="Grupo 2445"><path id="Trazado_3159" data-name="Trazado 3159" class="cls-64" d="M153.76,89.38h-.33v-7.5l-5.11-5.11H134.77v-.33h13.7l5.3,5.3Z"/></g><g id="Grupo_2446" data-name="Grupo 2446"><path id="Trazado_3160" data-name="Trazado 3160" class="cls-65" d="M160.12,75.37l-3.82-3.83H137.75v-.33h18.69l3.92,3.92Z"/></g><g id="Grupo_2737" data-name="Grupo 2737"><g id="Grupo_2366" data-name="Grupo 2366"><circle id="Elipse_36" data-name="Elipse 36" class="cls-24" cx="138.04" cy="90.1" r="0.92"/></g><g id="Grupo_2442" data-name="Grupo 2442"><g id="Grupo_2430" data-name="Grupo 2430"><path id="Trazado_3152" data-name="Trazado 3152" class="cls-24" d="M134.61,110.75a7.2,7.2,0,1,1,7.2-7.2A7.21,7.21,0,0,1,134.61,110.75Zm0-13.84a6.64,6.64,0,1,0,6.65,6.64,6.64,6.64,0,0,0-6.65-6.64Z"/></g><g id="Grupo_2441" data-name="Grupo 2441"><g id="Grupo_2431" data-name="Grupo 2431"><path id="Trazado_3153" data-name="Trazado 3153" class="cls-24" d="M138.93,105.35a3.35,3.35,0,0,1-.7-.22,1.65,1.65,0,0,0-.64-.2,10,10,0,0,1-1.75-.74c-.87-.28-1.72-.76-1.86-1.37a9.19,9.19,0,0,1-.1-2h-2.65a14.77,14.77,0,0,1,.19,2.1,9.79,9.79,0,0,1-.16,2.16.75.75,0,0,0,.06,1.06.78.78,0,0,0,.59.19,24.7,24.7,0,0,0,3.21-.29,10,10,0,0,0,2.51,0C138.63,106.35,139.19,105.68,138.93,105.35Z"/></g><g id="Grupo_2434" data-name="Grupo 2434"><g id="Grupo_2433" data-name="Grupo 2433"><g id="Grupo_2432" data-name="Grupo 2432"><path id="Trazado_3154" data-name="Trazado 3154" class="cls-24" d="M137.69,103.55l.14,0-.3.81.63-.87-.26-.1.34-.72-.35-.14Z"/></g></g></g><g id="Grupo_2437" data-name="Grupo 2437"><g id="Grupo_2436" data-name="Grupo 2436"><g id="Grupo_2435" data-name="Grupo 2435"><path id="Trazado_3155" data-name="Trazado 3155" class="cls-24" d="M136.94,103.33l-.24.11-.27-.75-.35.15.55.82.13-.06.35.78Z"/></g></g></g><g id="Grupo_2440" data-name="Grupo 2440"><g id="Grupo_2439" data-name="Grupo 2439"><g id="Grupo_2438" data-name="Grupo 2438"><path id="Trazado_3156" data-name="Trazado 3156" class="cls-24" d="M138.63,104.31l-.79.35,1.06-.17-.11-.25.75-.26-.15-.35-.82.55Z"/></g></g></g></g></g><g id="Grupo_2447" data-name="Grupo 2447"><path id="Trazado_3161" data-name="Trazado 3161" class="cls-24" d="M143.16,103.71h-1.62v-.33h1.29V99.21l-5-4.95V90.1h.33v4l4.95,4.94Z"/></g></g><g id="Grupo_2448" data-name="Grupo 2448"><path id="Trazado_3162" data-name="Trazado 3162" class="cls-62" d="M120.67,91.52l-.24-.23,2.1-2.1V83.64h7.92V84h-7.59v5.36Z"/></g><g id="Grupo_2449" data-name="Grupo 2449"><path id="Trazado_3163" data-name="Trazado 3163" class="cls-63" d="M125.22,80.21H110.86v-.34h14.23l6.15-6.15.24.23Z"/></g><g id="Grupo_2450" data-name="Grupo 2450"><path id="Trazado_3164" data-name="Trazado 3164" class="cls-65" d="M129.5,69.82H113.05l-4.48-4.48.24-.24,4.38,4.39H129.5Z"/></g><g id="Grupo_2451" data-name="Grupo 2451"><path id="Trazado_3165" data-name="Trazado 3165" class="cls-64" d="M131.26,65.73l-6.44-6.44h-9.33V51h.33V59H125l6.53,6.53Z"/></g><g id="Grupo_2455" data-name="Grupo 2455"><g id="Grupo_2453" data-name="Grupo 2453"><path id="Trazado_3167" data-name="Trazado 3167" class="cls-65" d="M165.29,87.38a7.2,7.2,0,1,1,7.2-7.2,7.3,7.3,0,0,1-.35,2.22A7.2,7.2,0,0,1,165.29,87.38Zm0-13.85a6.66,6.66,0,1,0,2,.33,6.52,6.52,0,0,0-2-.33Z"/></g><g id="Grupo_2454" data-name="Grupo 2454"><path id="Trazado_3168" data-name="Trazado 3168" class="cls-65" d="M170.33,78.78a3.12,3.12,0,0,0-1.78.67c-2.2,1.39-3.4-.78-5.1-.68h0a1.91,1.91,0,1,0,1.49,3.1c3.17,1,5.13-1.91,5.62-2.74a.23.23,0,0,0-.08-.31Zm-6.93,3.47a1.54,1.54,0,1,1,1.53-1.54,1.54,1.54,0,0,1-1.53,1.54Z"/><path id="Trazado_3169" data-name="Trazado 3169" class="cls-65" d="M163.38,81.37a.63.63,0,0,0,.63-.63.63.63,0,0,0-1.26,0h0A.63.63,0,0,0,163.38,81.37Zm0-1.22a.59.59,0,0,1,.59.59.6.6,0,0,1-.59.59.58.58,0,0,1-.59-.59h0A.58.58,0,0,1,163.38,80.15Z"/><path id="Trazado_3170" data-name="Trazado 3170" class="cls-65" d="M162.79,79.93a.22.22,0,0,0,.22-.23.22.22,0,0,0-.22-.22.22.22,0,0,0-.23.22h0A.23.23,0,0,0,162.79,79.93Zm0-.42a.2.2,0,0,1,.19.19.19.19,0,0,1-.19.19.18.18,0,0,1-.19-.19h0A.19.19,0,0,1,162.79,79.51Z"/><path id="Trazado_3171" data-name="Trazado 3171" class="cls-65" d="M163.38,79.93a.22.22,0,0,0,.22-.23.22.22,0,0,0-.22-.22.22.22,0,0,0-.23.22h0A.23.23,0,0,0,163.38,79.93Zm0-.42a.2.2,0,0,1,.19.19.19.19,0,0,1-.19.19.18.18,0,0,1-.19-.19h0A.19.19,0,0,1,163.38,79.51Z"/><path id="Trazado_3172" data-name="Trazado 3172" class="cls-65" d="M164,79.93a.22.22,0,0,0,.22-.23.22.22,0,0,0-.22-.22.22.22,0,0,0-.23.22h0A.23.23,0,0,0,164,79.93Zm0-.42a.2.2,0,0,1,.19.19.19.19,0,0,1-.19.19.18.18,0,0,1-.19-.19h0A.19.19,0,0,1,164,79.51Z"/><path id="Trazado_3173" data-name="Trazado 3173" class="cls-65" d="M162.49,80.44a.22.22,0,0,0,.22-.23.22.22,0,0,0-.44,0h0A.22.22,0,0,0,162.49,80.44Zm0-.42a.19.19,0,0,1,.19.19.19.19,0,1,1-.38,0h0a.19.19,0,0,1,.19-.19Z"/><path id="Trazado_3174" data-name="Trazado 3174" class="cls-65" d="M162.86,80.21a.19.19,0,0,0,0,.08v0h0a.13.13,0,0,1,0-.06.2.2,0,0,1,.19-.19.21.21,0,0,1,.15.07h0a.22.22,0,0,0-.4.14Z"/><path id="Trazado_3175" data-name="Trazado 3175" class="cls-65" d="M163.5,80.07v0h0a.2.2,0,0,1,.27,0,.18.18,0,0,1,.07.15.13.13,0,0,1,0,.06h0a.24.24,0,0,0,0-.08.23.23,0,0,0-.23-.22.21.21,0,0,0-.17.08Z"/><path id="Trazado_3176" data-name="Trazado 3176" class="cls-65" d="M164.26,80a.22.22,0,0,0-.22.22.23.23,0,1,0,.22-.22Zm0,.41a.19.19,0,0,1-.19-.19.2.2,0,0,1,.19-.19.19.19,0,0,1,.19.19h0A.18.18,0,0,1,164.26,80.4Z"/><path id="Trazado_3177" data-name="Trazado 3177" class="cls-65" d="M162.79,81.55a.23.23,0,1,0,.22.22h0A.22.22,0,0,0,162.79,81.55Zm0,.41a.19.19,0,1,1,.19-.19h0A.19.19,0,0,1,162.79,82Z"/><path id="Trazado_3178" data-name="Trazado 3178" class="cls-65" d="M163.38,81.55a.23.23,0,1,0,.22.22h0A.22.22,0,0,0,163.38,81.55Zm0,.41a.18.18,0,0,1-.19-.19.19.19,0,0,1,.19-.19.2.2,0,0,1,.19.19h0A.19.19,0,0,1,163.38,82Z"/><path id="Trazado_3179" data-name="Trazado 3179" class="cls-65" d="M164,81.55a.22.22,0,0,0-.23.22A.24.24,0,0,0,164,82a.22.22,0,0,0,.22-.23A.22.22,0,0,0,164,81.55Zm0,.41a.18.18,0,0,1-.19-.19.19.19,0,0,1,.19-.19.2.2,0,0,1,.19.19h0A.19.19,0,0,1,164,82Z"/><path id="Trazado_3180" data-name="Trazado 3180" class="cls-65" d="M162.42,80.77a.22.22,0,0,0-.23-.22.22.22,0,0,0-.22.22.22.22,0,0,0,.22.23h0A.23.23,0,0,0,162.42,80.77Zm-.23.19a.19.19,0,0,1-.19-.19.2.2,0,0,1,.19-.19.2.2,0,0,1,.2.19h0a.19.19,0,0,1-.19.19Z"/><path id="Trazado_3181" data-name="Trazado 3181" class="cls-65" d="M162.73,80.59h0s0,0,0,0v0h0a.23.23,0,0,0-.16.27.21.21,0,0,0,.18.17h0v0h0a.19.19,0,0,1-.16-.22.21.21,0,0,1,.14-.15Z"/><path id="Trazado_3182" data-name="Trazado 3182" class="cls-65" d="M164.19,80.77a.23.23,0,0,0-.17-.22h0v0h0a.2.2,0,0,1,.13.24A.18.18,0,0,1,164,81h0v0h0A.23.23,0,0,0,164.19,80.77Z"/><path id="Trazado_3183" data-name="Trazado 3183" class="cls-65" d="M162.71,81.29a.22.22,0,1,0-.44,0,.22.22,0,0,0,.22.22h0A.22.22,0,0,0,162.71,81.29Zm-.22.19a.19.19,0,0,1-.19-.2.2.2,0,0,1,.19-.19.19.19,0,0,1,.19.2.19.19,0,0,1-.19.18Z"/><path id="Trazado_3184" data-name="Trazado 3184" class="cls-65" d="M163.27,81.4h0a.18.18,0,0,1-.26,0,.2.2,0,0,1-.09-.16.19.19,0,0,1,0-.07h0a.3.3,0,0,0,0,.1.22.22,0,0,0,.23.22.26.26,0,0,0,.19-.1Z"/><path id="Trazado_3185" data-name="Trazado 3185" class="cls-65" d="M163.9,81.28a.29.29,0,0,0,0-.09h0a.19.19,0,0,1-.1.25.18.18,0,0,1-.23-.07h0v0a.22.22,0,0,0,.41-.12Z"/><path id="Trazado_3186" data-name="Trazado 3186" class="cls-65" d="M164.26,81.06a.22.22,0,0,0-.22.22.21.21,0,0,0,.22.22.22.22,0,1,0,0-.44Zm0,.41a.19.19,0,0,1-.19-.19.2.2,0,0,1,.19-.19.19.19,0,0,1,.19.19h0A.18.18,0,0,1,164.26,81.47Z"/><path id="Trazado_3187" data-name="Trazado 3187" class="cls-65" d="M164.34,80.77a.22.22,0,1,0,.22-.22h0A.22.22,0,0,0,164.34,80.77Zm.22-.19a.2.2,0,0,1,.19.19.19.19,0,0,1-.19.19.18.18,0,0,1-.19-.19h0a.2.2,0,0,1,.19-.19Z"/><path id="Trazado_3188" data-name="Trazado 3188" class="cls-65" d="M163.49,81a.23.23,0,0,0,.22-.22.22.22,0,0,0-.44,0h0A.22.22,0,0,0,163.49,81Z"/><path id="Trazado_3189" data-name="Trazado 3189" class="cls-65" d="M163.07,80.69a.15.15,0,0,0,.14-.15.14.14,0,0,0-.14-.14.15.15,0,0,0-.15.14.15.15,0,0,0,.15.15Z"/><path id="Trazado_3190" data-name="Trazado 3190" class="cls-65" d="M163.07,81.06a.1.1,0,0,0,.1.1.11.11,0,0,0,.1-.1.1.1,0,0,0-.1-.1h0A.09.09,0,0,0,163.07,81.06Z"/><path id="Trazado_3191" data-name="Trazado 3191" class="cls-65" d="M163.6,81.06a.06.06,0,0,0-.06.06.06.06,0,0,0,.06.06s.06,0,.06-.06a.06.06,0,0,0-.06-.06Z"/><path id="Trazado_3192" data-name="Trazado 3192" class="cls-65" d="M163.82,80.82a.06.06,0,0,0,0-.12.06.06,0,0,0,0,.12Z"/><path id="Trazado_3193" data-name="Trazado 3193" class="cls-65" d="M163.49,80.46a.11.11,0,0,0,.1-.1.1.1,0,0,0-.1-.1.09.09,0,0,0-.1.1h0A.1.1,0,0,0,163.49,80.46Z"/><path id="Trazado_3194" data-name="Trazado 3194" class="cls-65" d="M161.06,79.14l-.59-.4.65-.28-.14-.75.7.29.38-.62.29.7.79-.2-.14.5.4-.71-.93.19-.38-.85-.5.77-.86-.35.17.92-.85.34.78.52-.38.9.76-.27-.49,0Z"/></g></g><g id="Grupo_2738" data-name="Grupo 2738"><g id="Grupo_2357" data-name="Grupo 2357"><circle id="Elipse_27" data-name="Elipse 27" class="cls-24" cx="134.8" cy="50.88" r="0.92"/></g><g id="Grupo_2452" data-name="Grupo 2452"><path id="Trazado_3166" data-name="Trazado 3166" class="cls-24" d="M133.88,51.05h-6.62V43.43l2.34-2.34.24.24-2.25,2.24v7.15h6.29Z"/></g><g id="Grupo_2457" data-name="Grupo 2457"><g id="Grupo_2456" data-name="Grupo 2456"><path id="Trazado_3195" data-name="Trazado 3195" class="cls-24" d="M134.61,43.51a7.2,7.2,0,1,1,7.2-7.2A7.2,7.2,0,0,1,134.61,43.51Zm0-13.84a6.65,6.65,0,1,0,6.65,6.64A6.64,6.64,0,0,0,134.61,29.67Z"/></g><path id="Trazado_3196" data-name="Trazado 3196" class="cls-24" d="M138.59,35.17l0-.08a1.24,1.24,0,0,0-.72-.84h0a2.39,2.39,0,0,0-.13-.21,1.67,1.67,0,0,0-.5-.37l-.26-.1-.18,0h0a.68.68,0,0,0-.17-.21,1.23,1.23,0,0,0-.4-.23.85.85,0,0,0-.38-.09h-.09l-.13-.06a1.77,1.77,0,0,0-1.24-.1l-.06,0,0,0a1.39,1.39,0,0,0-.28-.12,1.14,1.14,0,0,0-.87,0l-.08,0h-.19a1.94,1.94,0,0,0-1.07.37h-.05a1.36,1.36,0,0,0-.94.76v0l-.13.1a.93.93,0,0,0-.33.91l0,.08a.35.35,0,0,1,0,.06v.25s0,1.55,3.6,1.55a2,2,0,0,0,1.51,1.65c.05.2.55,1.69.56,1.71l.74-.12,0,0,0-.09a2.07,2.07,0,0,1-.05-.61.13.13,0,0,1,0-.06.9.9,0,0,1,.09-.32.41.41,0,0,1,0-.09.58.58,0,0,1,.17-.18h0l.06,0h.06l0,0a2.85,2.85,0,0,0,1.6-2c0-.09,0-.15,0-.15a.31.31,0,0,0,.1-.15A1,1,0,0,0,138.59,35.17Zm-5-1.39L133,33.7l.25.54-.44.34.52.19-.11.63.36-.13-.52.35.11-.75-.69-.25.59-.42-.31-.67.72.1.24-.68.44.58.68-.32-.17.61v-.4l-.56.3-.35-.48Zm.23.84a.36.36,0,0,1,.71,0,.36.36,0,1,1-.71,0Zm2.25,1.47a1,1,0,0,1-1.31.66h0a1.23,1.23,0,0,1-.77-1.56.11.11,0,1,1,.21.06h0a1,1,0,0,0,.63,1.28.81.81,0,0,0,1-.51.66.66,0,0,0-.41-.84h0a.53.53,0,0,0-.67.34.11.11,0,0,1-.14.08.11.11,0,0,1-.08-.13v0a.76.76,0,0,1,.95-.48.89.89,0,0,1,.56,1.13Zm.77.15a.11.11,0,0,1-.11.08h0a.11.11,0,0,1-.08-.13h0a1.38,1.38,0,0,0-.88-1.7,1.18,1.18,0,0,0-.94.07.12.12,0,0,1-.15,0,.1.1,0,0,1,.05-.15h0a1.39,1.39,0,0,1,1.11-.08,1.59,1.59,0,0,1,1,2Z"/></g></g></g><g id="Grupo_2306" data-name="Grupo 2306"><path id="Trazado_3048" data-name="Trazado 3048" class="cls-1" d="M238.44,243.6a3.62,3.62,0,1,0,1.3-5,3.62,3.62,0,0,0-1.3,5Zm4-2.35a.61.61,0,0,1,.22-.85.62.62,0,0,1,.62,1.08h0a.63.63,0,0,1-.85-.22Zm-2.86,1.67a.62.62,0,1,1,.85.22h0A.63.63,0,0,1,239.6,242.92Z"/></g><g id="Grupo_2307" data-name="Grupo 2307"><path id="Trazado_3049" data-name="Trazado 3049" class="cls-4" d="M238.57,243.31a3.48,3.48,0,1,0,1.25-4.76,3.47,3.47,0,0,0-1.25,4.76Zm3.86-2.25a.6.6,0,1,1,.82.21h0a.59.59,0,0,1-.81-.21Zm-2.75,1.6a.6.6,0,1,1,1-.61.61.61,0,0,1-.22.82h0a.6.6,0,0,1-.82-.21Z"/></g></g><g id="Grupo_2489" data-name="Grupo 2489"><g id="Grupo_2059" data-name="Grupo 2059"><path id="Trazado_2329" data-name="Trazado 2329" class="cls-66" d="M106,243.42a3,3,0,0,1-1.32-.67l-.12-.11.56-.63.12.11a2,2,0,0,0,.92.48h0l.28,0a1,1,0,0,0,.43-.09.52.52,0,0,0,.33-.46.39.39,0,0,0-.22-.34,2,2,0,0,0-.59-.2,3.94,3.94,0,0,1-1-.31,1.38,1.38,0,0,1-.46-.44,1.2,1.2,0,0,1-.15-.61,1.26,1.26,0,0,1,.22-.7,1.4,1.4,0,0,1,.55-.44,1.79,1.79,0,0,1,.75-.17c.12,0,.23,0,.34,0a2.54,2.54,0,0,1,1.19.57l.12.1-.54.65-.12-.1a1.52,1.52,0,0,0-1-.41.85.85,0,0,0-.39.08.43.43,0,0,0-.29.38.33.33,0,0,0,.17.31,1.55,1.55,0,0,0,.59.21l.14,0a3.19,3.19,0,0,1,.86.27,1.31,1.31,0,0,1,.5.46,1.23,1.23,0,0,1,.17.62,1.33,1.33,0,0,1-.23.75,1.42,1.42,0,0,1-.59.47,1.58,1.58,0,0,1-.77.17A2.31,2.31,0,0,1,106,243.42Z"/><path id="Trazado_2330" data-name="Trazado 2330" class="cls-66" d="M108.93,243.06a1.51,1.51,0,0,1,0-2.14,1.47,1.47,0,0,1,1.07-.43,1,1,0,0,1,.71.28l0,0v-.26h.77v2.9h-.77v-.23l0,0a.93.93,0,0,1-.71.25A1.53,1.53,0,0,1,108.93,243.06Zm.32-1.07a.75.75,0,1,0,.75-.76.75.75,0,0,0-.75.76Z"/><path id="Trazado_2331" data-name="Trazado 2331" class="cls-66" d="M112.31,243.43V238.8h.83v4.63Z"/><path id="Trazado_2332" data-name="Trazado 2332" class="cls-66" d="M114.32,243.13a1.3,1.3,0,0,1-.4-.94v-1.65h.8v1.65a.54.54,0,0,0,.55.53h0a.55.55,0,0,0,.56-.53v-1.65h.8v1.65a1.34,1.34,0,0,1-.4.94,1.4,1.4,0,0,1-1.91,0Z"/><path id="Trazado_2333" data-name="Trazado 2333" class="cls-66" d="M117.66,243.05a1.5,1.5,0,0,1,0-2.13h0a1.49,1.49,0,0,1,1.07-.43,1,1,0,0,1,.71.28l0,0v-2h.76v4.63h-.76v-.23l0,0a1,1,0,0,1-.71.25A1.54,1.54,0,0,1,117.66,243.05ZM118,242a.74.74,0,0,0,.76.72.75.75,0,0,0,.73-.76.76.76,0,0,0-.75-.73.77.77,0,0,0-.75.77Z"/><path id="Trazado_2334" data-name="Trazado 2334" class="cls-66" d="M123.68,243.32a2.52,2.52,0,0,1-.75-.5,2.1,2.1,0,0,1-.5-.75,2.4,2.4,0,0,1-.19-.92,2.35,2.35,0,0,1,2.35-2.35,2.34,2.34,0,0,1,1.89.95l.1.12-.68.5-.09-.12a1.52,1.52,0,1,0-1.21,2.42,1.53,1.53,0,0,0,1.21-.6l.09-.12.67.49-.1.13a2.33,2.33,0,0,1-1.87.94A2.4,2.4,0,0,1,123.68,243.32Z"/><path id="Trazado_2335" data-name="Trazado 2335" class="cls-66" d="M127.46,243.06a1.51,1.51,0,0,1,0-2.14,1.45,1.45,0,0,1,1.06-.43,1.07,1.07,0,0,1,.72.28l0,0v-.26H130v2.9h-.76v-.23l0,0a1,1,0,0,1-.72.25A1.49,1.49,0,0,1,127.46,243.06Zm.32-1.07a.73.73,0,0,0,.76.72.74.74,0,1,0-.76-.72Z"/><path id="Trazado_2336" data-name="Trazado 2336" class="cls-66" d="M130.83,243.43v-2.89h.8v.24a1.12,1.12,0,0,1,.8-.3h.19l-.19.79h-.12a.66.66,0,0,0-.68.63v1.53Z"/><path id="Trazado_2337" data-name="Trazado 2337" class="cls-66" d="M133.29,243.05a1.5,1.5,0,0,1,0-2.13,1.47,1.47,0,0,1,1.07-.43,1,1,0,0,1,.71.28l0,0v-2h.77v4.63h-.77v-.23l0,0a1,1,0,0,1-.71.25A1.52,1.52,0,0,1,133.29,243.05Zm.32-1.06a.75.75,0,0,0,1.49,0,.75.75,0,0,0-.74-.73.77.77,0,0,0-.75.77Z"/><path id="Trazado_2338" data-name="Trazado 2338" class="cls-66" d="M136.8,239.71a.48.48,0,0,1,.14-.34.53.53,0,0,1,.35-.15.5.5,0,0,1,.48.5.49.49,0,1,1-1,0Zm.08,3.72v-2.89h.82v2.9Z"/><path id="Trazado_2339" data-name="Trazado 2339" class="cls-66" d="M138.84,243.06a1.54,1.54,0,0,1-.44-1.07,1.49,1.49,0,0,1,1.49-1.51h0a1.44,1.44,0,0,1,1.07.44,1.51,1.51,0,0,1-1.07,2.58A1.54,1.54,0,0,1,138.84,243.06Zm.3-1.07a.77.77,0,0,0,.79.76.78.78,0,1,0-.79-.77Z"/><path id="Trazado_2340" data-name="Trazado 2340" class="cls-66" d="M146,243.44v-1.55a.65.65,0,0,0-.62-.63.61.61,0,0,0-.61.63v1.55H144v-1.55a.62.62,0,0,0-.59-.64.62.62,0,0,0-.64.59v1.6h-.79v-2.9h.79v.21a.83.83,0,0,1,.61-.26,1.5,1.5,0,0,1,.55.11,1.76,1.76,0,0,1,.45.32,0,0,0,0,1,0,0h0a1.6,1.6,0,0,1,.45-.32,1.45,1.45,0,0,1,.54-.11,1.38,1.38,0,0,1,1.4,1.38v1.57Z"/><path id="Trazado_2341" data-name="Trazado 2341" class="cls-66" d="M148.64,243.5a1.33,1.33,0,0,1-.55-.12,1.45,1.45,0,0,1-.45-.33,1.72,1.72,0,0,1-.4-1.06,1.74,1.74,0,0,1,0-.39,1.29,1.29,0,0,1,.35-.66,1.49,1.49,0,0,1,.45-.34,1.38,1.38,0,0,1,.56-.12,1.36,1.36,0,0,1,1,.46,1.54,1.54,0,0,1,.4,1.05v.14h-2.12v.05a.78.78,0,0,0,.71.67h0a.94.94,0,0,0,.51-.22l.07-.06.52.45-.09.09a1.74,1.74,0,0,1-.26.19h0a1.53,1.53,0,0,1-.75.2Zm-.62-1.93,0,.05h1.31l0-.05a.74.74,0,0,0-.63-.43.73.73,0,0,0-.62.43Z"/><path id="Trazado_2342" data-name="Trazado 2342" class="cls-66" d="M151.75,243.43a1,1,0,0,1-.73-.3,1,1,0,0,1-.3-.72v-1.2h-.4v-.65h.4v-1.14h.75v1.14h.84v.65h-.84v1.18a.3.3,0,0,0,.28.3h.55l.2.74Z"/><path id="Trazado_2343" data-name="Trazado 2343" class="cls-66" d="M153.17,243.06a1.51,1.51,0,0,1,0-2.14,1.45,1.45,0,0,1,1.06-.43,1.07,1.07,0,0,1,.72.28l0,0v-.26h.76v2.9H155v-.23l0,0a1,1,0,0,1-.72.25A1.49,1.49,0,0,1,153.17,243.06Zm.32-1.07a.73.73,0,0,0,.76.72.74.74,0,1,0-.76-.72Z"/><path id="Trazado_2344" data-name="Trazado 2344" class="cls-66" d="M157.28,243.24l0,0v.22h-.76V238.8h.76v2l0,0a1.07,1.07,0,0,1,.72-.28,1.45,1.45,0,0,1,1.06.43,1.5,1.5,0,0,1-1.06,2.57A1,1,0,0,1,157.28,243.24Zm.72-.49a.76.76,0,1,0-.75-.78v0A.76.76,0,0,0,158,242.75Z"/><path id="Trazado_2345" data-name="Trazado 2345" class="cls-66" d="M160.37,243.06a1.6,1.6,0,0,1-.45-1.07,1.5,1.5,0,0,1,1.49-1.51h0a1.46,1.46,0,0,1,1.07.44,1.51,1.51,0,0,1-2.14,2.14Zm.3-1.07a.77.77,0,0,0,.78.76.78.78,0,1,0-.78-.76Zm1.71-2.73-.68.88h-.43l.43-.88Z"/><path id="Trazado_2346" data-name="Trazado 2346" class="cls-66" d="M163.52,243.43V238.8h.82v4.63Z"/><path id="Trazado_2347" data-name="Trazado 2347" class="cls-66" d="M165.22,239.71a.45.45,0,0,1,.15-.34.49.49,0,0,1,.35-.15.49.49,0,1,1,0,1A.5.5,0,0,1,165.22,239.71Zm.08,3.72v-2.89h.83v2.9Z"/><path id="Trazado_2348" data-name="Trazado 2348" class="cls-66" d="M167.19,243.06h0a1.51,1.51,0,0,1,1.07-2.58,1.44,1.44,0,0,1,1.07.44l.16.17.07.12-.62.46-.09-.12a.75.75,0,0,0-1-.12.76.76,0,0,0-.12,1,.77.77,0,0,0,.58.28.75.75,0,0,0,.59-.34l.09-.11.64.46-.09.12-.05.05a1.31,1.31,0,0,1-.11.12,1.52,1.52,0,0,1-2.14,0Z"/><path id="Trazado_2349" data-name="Trazado 2349" class="cls-66" d="M170.26,243.06a1.51,1.51,0,0,1,0-2.14,1.47,1.47,0,0,1,1.07-.43,1,1,0,0,1,.71.28l0,0v-.26h.77v2.9h-.77v-.23l0,0a.93.93,0,0,1-.71.25A1.51,1.51,0,0,1,170.26,243.06Zm.32-1.07a.75.75,0,1,0,.75-.76.75.75,0,0,0-.75.76Z"/></g><path id="Trazado_2350" data-name="Trazado 2350" class="cls-24" d="M143.89,205.18h0a4,4,0,0,0-5,.81,7.21,7.21,0,0,0-1.59-3.37,2.65,2.65,0,0,0-1.94-.88h0a3.38,3.38,0,0,0-1,.17h0a3.74,3.74,0,0,0-2.19,2.48c-.38,1.42-.05,3.26,1,5.47a20,20,0,0,0,1.65,2.88.13.13,0,0,0,.18,0,.14.14,0,0,0,0-.15s-1.9-5-.9-7.13a1.48,1.48,0,0,1,.87-.81,1.5,1.5,0,0,1,.47-.08c1.63,0,2.72,2.87,2.73,2.9a.14.14,0,0,0,.17.08l0,0a6.29,6.29,0,0,1,3.13-1.35,1.73,1.73,0,0,1,.95.25c1.6,1,.9,3.27.67,4a2.29,2.29,0,0,0-.07.28.21.21,0,0,0,.05.13.17.17,0,0,0,.12.05c.35,0,1.5-1.31,1.88-2.61A2.6,2.6,0,0,0,143.89,205.18Z"/><path id="Trazado_2351" data-name="Trazado 2351" class="cls-65" d="M132.88,219.62a.14.14,0,0,0-.13-.09h0a22.88,22.88,0,0,1-3.21.23c-2,0-4.38-.32-4.56-1.86-.09-.81.44-1.49,1.6-2a8.36,8.36,0,0,1,1.83-.54.12.12,0,0,0,.11-.14s0,0,0-.05-1.47-2.94-.23-4.21a2.11,2.11,0,0,1,1.57-.65,5.57,5.57,0,0,1,2.5.82.85.85,0,0,0,.25.13h0a.18.18,0,0,0,.17-.17h0a3.57,3.57,0,0,0-1.08-1.52,3.78,3.78,0,0,0-2.5-1.2h0a2.67,2.67,0,0,0-1.9.87h0c-1.67,2.14-1,3.66-.24,5.1-.62,0-3.25.25-4.42,1.63a2.26,2.26,0,0,0-.52,1.94h0a3.73,3.73,0,0,0,1.76,2.54,5.61,5.61,0,0,0,2.9.67,17.94,17.94,0,0,0,6-1.37A.13.13,0,0,0,132.88,219.62Zm-.25-8.48Z"/><path id="Trazado_2352" data-name="Trazado 2352" class="cls-62" d="M137.79,226.82h0a.13.13,0,0,0-.12.08,25.13,25.13,0,0,1-1.61,2.92c-1.23,1.87-2.4,2.87-3.36,2.87a1.35,1.35,0,0,1-.62-.15c-1.78-.89-.29-4.22-.28-4.26a.13.13,0,0,0-.06-.17h0a7.67,7.67,0,0,1-1.7-.41c-.78-.28-1.75-.8-1.95-1.7-.42-1.84,1.67-2.95,2.36-3.31l.24-.14a.16.16,0,0,0,0-.19c0-.05-.07-.18-.65-.18a6.05,6.05,0,0,0-1.75.29,3.71,3.71,0,0,0-1.76,1.12,2.6,2.6,0,0,0-.45,2.27v0c.88,2.55,2.52,2.82,4.13,3a6.54,6.54,0,0,0-1.18,3.92,2.81,2.81,0,0,0,1.5,2.16h0a4.29,4.29,0,0,0,1.5.28c1.84,0,3.44-1.43,4.63-4.14a20.36,20.36,0,0,0,1.23-4.1A.13.13,0,0,0,137.79,226.82ZM132,235.08h0Zm5.73-8.11v0Z"/><path id="Trazado_2353" data-name="Trazado 2353" class="cls-64" d="M152.05,227c-1.22-3.27-6.72-5.23-7-5.31h0a.13.13,0,0,0-.13.13.14.14,0,0,0,.06.11s4.45,3,4.85,5.3a1.45,1.45,0,0,1-.24,1.16,1.55,1.55,0,0,1-1.33.62,6.38,6.38,0,0,1-2.92-1.07l-.07,0a.12.12,0,0,0-.12.09s-.92,3.16-2.7,3.25h-.13c-1.8,0-2.5-2.18-2.74-2.89a1,1,0,0,0-.1-.27.16.16,0,0,0-.14-.08h0a.21.21,0,0,0-.17.12,5.06,5.06,0,0,0,.32,3.74,2.48,2.48,0,0,0,2.31,1.28H142c2.67-.43,3.21-2,3.64-3.56a6.77,6.77,0,0,0,3.88,1.88,2.56,2.56,0,0,0,2.17-1.16h0A3.74,3.74,0,0,0,152.05,227Zm-12.62,1.3.06.2Zm2.38,4.72Z"/><path id="Trazado_2354" data-name="Trazado 2354" class="cls-63" d="M155.07,210.44l0,0a3.87,3.87,0,0,0-3.48-2,9.88,9.88,0,0,0-5,1.8,19.06,19.06,0,0,0-2.42,1.78.25.25,0,0,0,0,.36.26.26,0,0,0,.31.06s3.55-1.8,5.9-1.8c1,0,1.55.28,1.81.86s0,1.44-.86,2.25a7.8,7.8,0,0,1-1.54,1.06.26.26,0,0,0-.11.35l0,.07s2.24,2.27,1.5,3.78a2.33,2.33,0,0,1-2.33,1.2,7.08,7.08,0,0,1-1.45-.16,1.35,1.35,0,0,0-.29-.05h0a.29.29,0,0,0-.27.31c0,.39,1,1,1.17,1.07a5.11,5.11,0,0,0,2.37.71,2.67,2.67,0,0,0,2.49-1.62l0,0a4.13,4.13,0,0,0-1.23-4.9,6.61,6.61,0,0,0,3.32-2.37A2.78,2.78,0,0,0,155.07,210.44ZM144.65,212l.24-.11Zm.56-.25.35-.16-.35.15Z"/><g id="Grupo_2060" data-name="Grupo 2060"><path id="Trazado_2355" data-name="Trazado 2355" class="cls-67" d="M118.37,247a1.47,1.47,0,0,1-.66-.33l.18-.21a1.22,1.22,0,0,0,.54.28.67.67,0,0,0,.42,0,.33.33,0,0,0,.22-.32c0-.23-.24-.32-.49-.36a2,2,0,0,1-.51-.16.55.55,0,0,1-.28-.48.51.51,0,0,1,.1-.32.75.75,0,0,1,.26-.21.87.87,0,0,1,.53-.06,1.21,1.21,0,0,1,.58.28l-.17.21a.8.8,0,0,0-.82-.18.29.29,0,0,0-.2.28c0,.21.18.29.46.35a2.15,2.15,0,0,1,.51.15.57.57,0,0,1,.31.5.61.61,0,0,1-.11.35.64.64,0,0,1-.27.22.9.9,0,0,1-.6.05Z"/><path id="Trazado_2356" data-name="Trazado 2356" class="cls-67" d="M121.56,246.32h-1.1a.44.44,0,0,0,.41.42.58.58,0,0,0,.35-.15l.22.13a.58.58,0,0,1-.19.16.8.8,0,0,1-.37.11.66.66,0,0,1-.49-.22.73.73,0,0,1-.19-.45v-.06a1,1,0,0,1,0-.17.7.7,0,0,1,.18-.34.63.63,0,0,1,1,0,.7.7,0,0,1,.18.34A.9.9,0,0,1,121.56,246.32Zm-.28-.23h0a.44.44,0,0,0-.4-.31.43.43,0,0,0-.39.31h.79Z"/><path id="Trazado_2357" data-name="Trazado 2357" class="cls-67" d="M124.9,246.2V247h-.27v-.76a.42.42,0,1,0-.84,0h0V247h-.27v-.76a.42.42,0,0,0-.42-.42.42.42,0,0,0-.42.42h0V247h-.26v-1.42h.26v.14a.74.74,0,0,1,.42-.17.69.69,0,0,1,.49.21l.07.08.07-.08a.67.67,0,0,1,.48-.21.69.69,0,0,1,.69.68Z"/><path id="Trazado_2358" data-name="Trazado 2358" class="cls-67" d="M127.36,246.25a.75.75,0,0,1-.74.75h0a.79.79,0,0,1-.48-.2V247h-.26v-2.28h.26v1a.79.79,0,0,1,.48-.2.75.75,0,0,1,.75.74Zm-.27,0a.48.48,0,0,0-.48-.47.47.47,0,0,0-.47.48.48.48,0,0,0,.47.48.49.49,0,0,0,.48-.49Z"/><path id="Trazado_2359" data-name="Trazado 2359" class="cls-67" d="M128.55,245.69a.82.82,0,0,1,.52-.18l-.07.27a.43.43,0,0,0-.45.42h0V247h-.27v-1.42h.27Z"/><path id="Trazado_2360" data-name="Trazado 2360" class="cls-67" d="M131,245.54h.26V247H131v-.16a.77.77,0,0,1-.48.2.74.74,0,1,1,0-1.48.67.67,0,0,1,.48.2Zm0,.71a.48.48,0,1,0-.48.48A.48.48,0,0,0,131,246.25Z"/><path id="Trazado_2361" data-name="Trazado 2361" class="cls-67" d="M133.65,246.2V247h-.26v-.76a.42.42,0,0,0-.42-.42.42.42,0,0,0-.42.42V247h-.27v-1.42h.27v.14a.69.69,0,0,1,.42-.17.67.67,0,0,1,.48.2A.7.7,0,0,1,133.65,246.2Z"/><path id="Trazado_2362" data-name="Trazado 2362" class="cls-67" d="M135.75,244.69H136V247h-.27v-.17a.77.77,0,0,1-.48.2.74.74,0,1,1,0-1.48.77.77,0,0,1,.48.2Zm0,1.56a.48.48,0,0,0-1,0,.48.48,0,1,0,1,0Z"/><path id="Trazado_2363" data-name="Trazado 2363" class="cls-67" d="M138.39,246.25a.75.75,0,1,1-1.49,0,.76.76,0,0,1,.75-.75.74.74,0,0,1,.74.74Zm-.27,0a.48.48,0,1,0-.47.48h0a.48.48,0,0,0,.48-.47h0Z"/><path id="Trazado_2364" data-name="Trazado 2364" class="cls-67" d="M141.91,246.32h-1.1a.45.45,0,0,0,.42.42.53.53,0,0,0,.34-.15l.23.13a.7.7,0,0,1-.19.16.84.84,0,0,1-.38.11.64.64,0,0,1-.48-.22.73.73,0,0,1-.19-.45v-.06a1,1,0,0,1,0-.17.7.7,0,0,1,.18-.34.62.62,0,0,1,.48-.22.64.64,0,0,1,.48.22.7.7,0,0,1,.18.34A.89.89,0,0,1,141.91,246.32Zm-.28-.23h0a.43.43,0,0,0-.39-.31.45.45,0,0,0-.4.31h.79Z"/><path id="Trazado_2365" data-name="Trazado 2365" class="cls-67" d="M142.8,247v-2.28h.27V247Z"/><path id="Trazado_2366" data-name="Trazado 2366" class="cls-67" d="M146.68,246.69l-.08.09a.75.75,0,1,1,0-1.05.27.27,0,0,1,.07.08l-.21.16a.48.48,0,1,0-.77.57.47.47,0,0,0,.38.19.46.46,0,0,0,.39-.2Z"/><path id="Trazado_2367" data-name="Trazado 2367" class="cls-67" d="M148.64,245.54h.26V247h-.26v-.16a.77.77,0,0,1-.48.2.74.74,0,1,1,0-1.48.67.67,0,0,1,.48.2Zm0,.71a.48.48,0,1,0-.48.48A.48.48,0,0,0,148.64,246.25Z"/><path id="Trazado_2368" data-name="Trazado 2368" class="cls-67" d="M152.36,246.2V247h-.27v-.76a.42.42,0,0,0-.42-.42.41.41,0,0,0-.42.42h0V247H151v-.76a.42.42,0,0,0-.84,0V247h-.27v-1.42h.27v.14a.74.74,0,0,1,.42-.17.71.71,0,0,1,.49.21l.06.08.07-.08a.69.69,0,0,1,.49-.21.68.68,0,0,1,.68.68h0Z"/><path id="Trazado_2369" data-name="Trazado 2369" class="cls-67" d="M153.32,245.14a.18.18,0,0,1,.17-.18.18.18,0,0,1,.18.18.18.18,0,0,1-.18.17A.18.18,0,0,1,153.32,245.14Zm0,.4h.27V247h-.27Z"/><path id="Trazado_2370" data-name="Trazado 2370" class="cls-67" d="M156.1,246.2V247h-.27v-.76a.42.42,0,0,0-.84,0V247h-.27v-1.42H155v.14a.74.74,0,0,1,.42-.17.68.68,0,0,1,.69.69Z"/><path id="Trazado_2371" data-name="Trazado 2371" class="cls-67" d="M158.43,246.25a.75.75,0,1,1-1.49,0,.76.76,0,0,1,.75-.75.74.74,0,0,1,.74.74Zm-.27,0a.48.48,0,1,0-.47.48.47.47,0,0,0,.47-.48Z"/></g></g></g></g></svg>