<svg xmlns="http://www.w3.org/2000/svg" viewBox="0 0 163.69 29"><defs><style>.cls-1{fill:#fff;}.cls-2{isolation:isolate;}</style></defs><title>logoHeader</title><g id="Capa_2" data-name="Capa 2"><g id="Capa_1-2" data-name="Capa 1"><g id="Grupo_761" data-name="Grupo 761"><g id="Grupo_760" data-name="Grupo 760"><g id="Grupo_759" data-name="Grupo 759"><g id="Grupo_758" data-name="Grupo 758"><g id="Grupo_757" data-name="Grupo 757"><path id="Trazado_1221" data-name="Trazado 1221" class="cls-1" d="M0,24.13H6V19H9.15a6.3,6.3,0,0,0,3-.68,5.13,5.13,0,0,0,2-2,6.42,6.42,0,0,0,.68-3,6.6,6.6,0,0,0-.54-2.74,5.34,5.34,0,0,0-1.46-2,6.86,6.86,0,0,0-2.2-1.17,9.81,9.81,0,0,0-2.74-.39H0ZM6,11.75h.58a4.14,4.14,0,0,1,.79.05l.73.15a1.16,1.16,0,0,1,.54.44,1.25,1.25,0,0,1,.2.78,1.42,1.42,0,0,1-.2.83,1.69,1.69,0,0,1-.54.49,1.57,1.57,0,0,1-.73.2,4.68,4.68,0,0,1-.83.05H5.92v-3Z"/><path id="Trazado_1222" data-name="Trazado 1222" class="cls-1" d="M16.43,24.13h11.4V18.65H22.65V7.11H16.43Z"/><path id="Trazado_1223" data-name="Trazado 1223" class="cls-1" d="M28.81,24.13h6l.73-7.29c.05-.34.05-.69.1-1a7,7,0,0,0,0-1h.2A6.41,6.41,0,0,0,36,15.86a10.46,10.46,0,0,0,.24,1.08l2.2,7.19h3.62l2.45-7.63c.1-.3.14-.54.24-.83s.15-.59.2-.84h.1l.83,9.35h6l-2.8-17H42.8l-1.91,6.7A7.33,7.33,0,0,0,40.65,15c0,.39-.15.78-.2,1.12H40.3L38,7.15H31.6Z"/><path id="Trazado_1224" data-name="Trazado 1224" class="cls-1" d="M53,10.58V7.11h1.81a1,1,0,0,1,.88.48.88.88,0,0,1,.15.49,1,1,0,0,1-.93,1,1,1,0,0,1,.24.15l.25.24c0,.05.1.2.24.44l.39.69h-.88L54.88,10a1.92,1.92,0,0,0-.49-.73.84.84,0,0,0-.49-.15h-.2v1.42H53Zm.69-2H54a2.57,2.57,0,0,0,.78,0A.89.89,0,0,0,55,8.43c0-.1.1-.15.1-.25a.4.4,0,0,0-.1-.24.26.26,0,0,0-.25-.15,2.57,2.57,0,0,0-.73,0h-.29v.88Z"/><path id="Trazado_1225" data-name="Trazado 1225" class="cls-1" d="M54.49,5.54A3.38,3.38,0,0,1,56.1,6,3,3,0,0,1,57.33,7.2a3.58,3.58,0,0,1,.44,1.67,3.14,3.14,0,0,1-.44,1.61A3,3,0,0,1,56.1,11.7a3.27,3.27,0,0,1-1.61.44,3,3,0,0,1-1.62-.44,2.93,2.93,0,0,1-1.22-1.22,3.28,3.28,0,0,1,0-3.28A3,3,0,0,1,52.87,6,3.42,3.42,0,0,1,54.49,5.54Zm0,.64a2.35,2.35,0,0,0-1.27.34,2.67,2.67,0,0,0-1,3.62,2.32,2.32,0,0,0,1,1,2.5,2.5,0,0,0,1.32.34,2.62,2.62,0,0,0,2.3-1.32,2.46,2.46,0,0,0,.34-1.32,2.62,2.62,0,0,0-1.32-2.3,3.85,3.85,0,0,0-1.37-.35Z"/></g></g></g></g></g><g id="CT_Salud_Cardiometabólica" data-name="CT Salud Cardiometabólica" class="cls-2"><g class="cls-2"><path class="cls-1" d="M77.06,11.42l.84.62a4.42,4.42,0,0,1-3.56,1.79,4.47,4.47,0,1,1,0-8.94,4.43,4.43,0,0,1,3.57,1.8l-.85.62a3.41,3.41,0,1,0-2.72,5.46A3.42,3.42,0,0,0,77.06,11.42Z"/><path class="cls-1" d="M80.94,6.21H78.68V5.15h5.59V6.21H82v7.48H80.94Z"/><path class="cls-1" d="M90.27,13.68a5.64,5.64,0,0,1-2.54-1.29l.71-.81a4.52,4.52,0,0,0,2,1.07,2.67,2.67,0,0,0,1.65-.13A1.38,1.38,0,0,0,93,11.28c0-.9-1-1.22-1.89-1.4a8.93,8.93,0,0,1-2-.6A2.1,2.1,0,0,1,88,7.41a2.24,2.24,0,0,1,.39-1.24,2.76,2.76,0,0,1,1-.8,3.38,3.38,0,0,1,2-.25A4.86,4.86,0,0,1,93.73,6.2L93,7a3,3,0,0,0-3.15-.71,1.24,1.24,0,0,0-.78,1.08c0,.81.69,1.12,1.8,1.36a8.25,8.25,0,0,1,2,.59,2.13,2.13,0,0,1,1.19,1.93,2.31,2.31,0,0,1-.41,1.35,2.81,2.81,0,0,1-1.06.85,3.12,3.12,0,0,1-1.45.3A4.3,4.3,0,0,1,90.27,13.68Z"/><path class="cls-1" d="M99.68,8.2h1v5.49h-1v-.63a3,3,0,0,1-1.85.75,2.87,2.87,0,0,1-2-.82,2.84,2.84,0,0,1,3.89-4.15Zm0,2.75a1.85,1.85,0,1,0-1.85,1.86A1.86,1.86,0,0,0,99.68,11Z"/><path class="cls-1" d="M102.24,13.69V4.89h1v8.8Z"/><path class="cls-1" d="M104.77,11.34V8.2h1v3.14a1.51,1.51,0,0,0,3,0V8.2h1v3.14a2.47,2.47,0,0,1-.75,1.77,2.65,2.65,0,0,1-3.59,0A2.46,2.46,0,0,1,104.77,11.34Z"/><path class="cls-1" d="M115.69,4.89h1v8.8h-1v-.63a3,3,0,0,1-1.85.75,2.87,2.87,0,0,1-2-.82,2.84,2.84,0,0,1,3.89-4.15Zm0,6.06a1.85,1.85,0,1,0-1.85,1.86A1.86,1.86,0,0,0,115.69,11Z"/></g><g class="cls-2"><path class="cls-1" d="M77.06,22.42l.84.62a4.42,4.42,0,0,1-3.56,1.79,4.47,4.47,0,1,1,0-8.94,4.43,4.43,0,0,1,3.57,1.8l-.85.62a3.41,3.41,0,1,0-2.72,5.46A3.42,3.42,0,0,0,77.06,22.42Z"/><path class="cls-1" d="M83.47,19.2h1v5.49h-1v-.63a3,3,0,0,1-1.85.75,2.87,2.87,0,0,1-2-.82,2.84,2.84,0,0,1,3.89-4.15Zm0,2.75a1.85,1.85,0,1,0-1.85,1.86A1.86,1.86,0,0,0,83.47,22Z"/><path class="cls-1" d="M87,19.76a3.39,3.39,0,0,1,2-.68l-.26,1A1.7,1.7,0,0,0,87,21.77v2.92H86V19.2h1Z"/><path class="cls-1" d="M94.21,15.89h1v8.8h-1v-.63a3,3,0,0,1-1.85.75,2.87,2.87,0,0,1-2-.82,2.84,2.84,0,0,1,3.89-4.15Zm0,6.06a1.85,1.85,0,1,0-1.85,1.86A1.86,1.86,0,0,0,94.21,22Z"/><path class="cls-1" d="M97,17.63a.68.68,0,0,1,1.35,0,.68.68,0,1,1-1.35,0Zm.16,1.57h1v5.49h-1Z"/><path class="cls-1" d="M105.29,22a2.88,2.88,0,0,1-.85,2,2.85,2.85,0,0,1-2,.84,2.88,2.88,0,1,1,0-5.75A2.87,2.87,0,0,1,105.29,22Zm-1,0a1.85,1.85,0,1,0-1.84,1.84A1.84,1.84,0,0,0,104.26,22Z"/><path class="cls-1" d="M115.85,21.74v3h-1v-3a1.63,1.63,0,1,0-3.25,0v3h-1v-3a1.62,1.62,0,1,0-3.24,0v3h-1V19.2h1v.53a2.74,2.74,0,0,1,1.62-.64,2.65,2.65,0,0,1,1.88.82,1.42,1.42,0,0,1,.25.3,2.61,2.61,0,0,1,.27-.3,2.65,2.65,0,0,1,1.88-.82,2.65,2.65,0,0,1,2.65,2.65Z"/><path class="cls-1" d="M122,22.2h-4.24v0a1.75,1.75,0,0,0,1.6,1.61,2,2,0,0,0,1.34-.58l.86.52a2.95,2.95,0,0,1-2.18,1,2.46,2.46,0,0,1-1.86-.84,2.86,2.86,0,0,1-.74-1.73,2.09,2.09,0,0,1,0-.25,3,3,0,0,1,.75-2,2.51,2.51,0,0,1,3.73,0,2.79,2.79,0,0,1,.69,1.33A3.64,3.64,0,0,1,122,22.2Zm-1.08-.86,0,0a1.66,1.66,0,0,0-1.52-1.19,1.68,1.68,0,0,0-1.52,1.19v0Z"/><path class="cls-1" d="M123.27,22.87V20.18h-.81v-1h.81V17.08h1V19.2H126v1h-1.7v2.67a.88.88,0,0,0,.82.86H126l.27,1H125.1A1.82,1.82,0,0,1,123.27,22.87Z"/><path class="cls-1" d="M131.37,19.2h1v5.49h-1v-.63a3,3,0,0,1-1.85.75,2.87,2.87,0,1,1,1.85-5Zm0,2.75a1.85,1.85,0,1,0-1.85,1.86A1.86,1.86,0,0,0,131.37,22Z"/><path class="cls-1" d="M139.53,22a2.88,2.88,0,0,1-.85,2,2.83,2.83,0,0,1-2,.82,3,3,0,0,1-1.85-.75v.63h-1v-8.8h1v3.95a2.94,2.94,0,0,1,1.85-.76A2.87,2.87,0,0,1,139.53,22Zm-1,0a1.85,1.85,0,1,0-1.85,1.86A1.86,1.86,0,0,0,138.5,22Z"/><path class="cls-1" d="M146.09,22a2.88,2.88,0,0,1-.85,2,2.85,2.85,0,0,1-2,.84,2.88,2.88,0,1,1,0-5.75A2.87,2.87,0,0,1,146.09,22Zm-1,0a1.85,1.85,0,1,0-1.84,1.84A1.84,1.84,0,0,0,145.06,22Zm-1.39-4.87h.82l-1,1.28h-.43Z"/><path class="cls-1" d="M147.18,24.69v-8.8h1v8.8Z"/><path class="cls-1" d="M149.89,17.63a.68.68,0,1,1,.68.68A.68.68,0,0,1,149.89,17.63Zm.17,1.57h1v5.49h-1Z"/><path class="cls-1" d="M157.48,23.64a3.27,3.27,0,0,1-.3.35,2.83,2.83,0,0,1-2,.82,2.86,2.86,0,0,1-2-.82,2.9,2.9,0,0,1,0-4.08,2.87,2.87,0,0,1,2-.83,2.84,2.84,0,0,1,2,.83,2.21,2.21,0,0,1,.29.33l-.83.62a1.83,1.83,0,0,0-1.48-.77,1.86,1.86,0,0,0,0,3.72,1.84,1.84,0,0,0,1.48-.78Z"/><path class="cls-1" d="M162.65,19.2h1v5.49h-1v-.63a2.93,2.93,0,0,1-1.84.75,2.87,2.87,0,0,1-2-.82,2.84,2.84,0,0,1,3.88-4.15Zm0,2.75a1.85,1.85,0,1,0-1.84,1.86A1.85,1.85,0,0,0,162.65,22Z"/></g></g><rect class="cls-1" x="62.83" width="2" height="29"/></g></g></svg>