<svg xmlns="http://www.w3.org/2000/svg" viewBox="0 0 300 300"><defs><style>.cls-1{fill:none;}.cls-2{fill:#2a85a6;}.cls-3{fill:#ffcb0e;}.cls-4{fill:#fa9607;}.cls-5{fill:#ef172f;}.cls-6{fill:#fff;}.cls-7{fill:#592f30;}.cls-8{fill:#35c567;}</style></defs><title>iconoHome</title><g id="Capa_2" data-name="Capa 2"><g id="Capa_1-2" data-name="Capa 1"><g id="iconoHome"><rect class="cls-1" width="300" height="300"/><g id="Grupo_3008" data-name="Grupo 3008"><g id="Grupo_2793" data-name="Grupo 2793"><g id="Grupo_2770" data-name="Grupo 2770"><g id="Grupo_2767" data-name="Grupo 2767"><g id="Grupo_2766" data-name="Grupo 2766"><path id="Trazado_3348" data-name="Trazado 3348" class="cls-2" d="M95,260.37V185.52l76.9-77,76.9,77v74.84Z"/></g></g><g id="Grupo_2769" data-name="Grupo 2769"><g id="Grupo_2768" data-name="Grupo 2768"><path id="Trazado_3349" data-name="Trazado 3349" class="cls-2" d="M171.85,109.86l75.94,76.07v73.49H95.91V185.93l76-76.07Zm0-2.68L94,185.14v76.18H249.69V185.14l-77.82-78Z"/></g></g></g><g id="Grupo_2772" data-name="Grupo 2772"><g id="Grupo_2771" data-name="Grupo 2771"><rect id="Rectángulo_962" data-name="Rectángulo 962" class="cls-3" x="150.68" y="196.71" width="42.33" height="64.61"/></g></g><g id="Grupo_2774" data-name="Grupo 2774"><g id="Grupo_2773" data-name="Grupo 2773"><path id="Trazado_3350" data-name="Trazado 3350" class="cls-4" d="M194.92,261.32H148.79V194.81h46.13Zm-42.27,0h38.59l-.12-62.71H152.58Z"/></g></g><path id="Trazado_3353" data-name="Trazado 3353" class="cls-5" d="M283.49,176.45,170.72,63.68,149.21,85.2l.17.17L58.85,175.9,81,198l90.53-90.53L262,198Z"/><g id="Grupo_2781" data-name="Grupo 2781"><g id="Grupo_2780" data-name="Grupo 2780"><path id="Trazado_3354" data-name="Trazado 3354" class="cls-6" d="M180.51,233.26h-9.18a1.9,1.9,0,0,1,0-3.8h9.18a1.9,1.9,0,1,1,0,3.8Z"/></g></g><g id="Grupo_2783" data-name="Grupo 2783"><g id="Grupo_2782" data-name="Grupo 2782"><circle id="Elipse_46" data-name="Elipse 46" class="cls-6" cx="171.17" cy="162.24" r="21.84"/></g></g><g id="Grupo_2785" data-name="Grupo 2785"><g id="Grupo_2784" data-name="Grupo 2784"><path id="Trazado_3355" data-name="Trazado 3355" class="cls-4" d="M180.51,230.92h-9.18a1.9,1.9,0,0,1,0-3.8h9.18a1.9,1.9,0,1,1,0,3.8Z"/></g></g><g id="Grupo_2787" data-name="Grupo 2787"><g id="Grupo_2786" data-name="Grupo 2786"><circle id="Elipse_47" data-name="Elipse 47" class="cls-7" cx="171.18" cy="162.25" r="18.57"/></g></g><g id="Grupo_2792" data-name="Grupo 2792"><g id="Grupo_2789" data-name="Grupo 2789"><g id="Grupo_2788" data-name="Grupo 2788"><rect id="Rectángulo_963" data-name="Rectángulo 963" class="cls-6" x="169.49" y="142.79" width="3.8" height="38.95"/></g></g><g id="Grupo_2791" data-name="Grupo 2791"><g id="Grupo_2790" data-name="Grupo 2790"><rect id="Rectángulo_964" data-name="Rectángulo 964" class="cls-6" x="151.86" y="160.34" width="39.07" height="3.8"/></g></g></g><g id="Grupo_2779" data-name="Grupo 2779"><g id="Grupo_2776" data-name="Grupo 2776"><g id="Grupo_2775" data-name="Grupo 2775"><path id="Trazado_3351" data-name="Trazado 3351" class="cls-2" d="M100.54,83.48H125.1v28.36l-24.56,24.5Z"/></g></g><g id="Grupo_2778" data-name="Grupo 2778"><g id="Grupo_2777" data-name="Grupo 2777"><path id="Trazado_3352" data-name="Trazado 3352" class="cls-2" d="M124.15,84.43v27L101.49,134V84.41Zm1.9-1.9H99.58v56.12l26.47-26.39V82.53Z"/></g></g></g></g><path id="Trazado_3201" data-name="Trazado 3201" class="cls-8" d="M139.51,89c2.15,4.53,18.3-46.63-18.07-50.36C95.5,39.05,88.62,53.11,81.63,69,80.88,67.42,53,29,25.13,51.87-10.52,96.74,75.9,142.1,75.9,142.1S20.72,91.9,40.78,71.53C55.36,56.75,82.65,81.9,82.65,81.9s13.49-29.84,31.83-28.12C136.91,55.89,138.59,87.11,139.51,89Z"/></g></g></g></g></svg>