<svg xmlns="http://www.w3.org/2000/svg" viewBox="0 0 300 300"><defs><style>.cls-1{fill:#009fd0;}.cls-2{fill:#cccbca;}.cls-3{fill:#fff;stroke:#cccbca;stroke-width:3.17px;}.cls-4{fill:#e6e5e5;}.cls-5{fill:#ef172f;}.cls-6{fill:#343b43;}.cls-7{fill:none;}</style></defs><title>iconoNovedades</title><g id="Capa_2" data-name="Capa 2"><g id="Capa_1-2" data-name="Capa 1"><g id="iconoNovedades"><g id="Grupo_2481" data-name="Grupo 2481"><path id="Trazado_3202" data-name="Trazado 3202" class="cls-1" d="M186.64,77.19c2.59,5.46,22.06-56.22-21.79-60.71-31.29.44-39.57,17.41-48,36.56C116,51.11,82.32,4.8,48.76,32.37,5.78,86.46,110,141.14,110,141.14S43.44,80.63,67.62,56.08c17.57-17.81,50.47,12.5,50.47,12.5s16.27-36,38.37-33.91C183.49,37.22,185.53,74.86,186.64,77.19Z"/><g id="Grupo_2354" data-name="Grupo 2354"><path id="Trazado_2497" data-name="Trazado 2497" class="cls-2" d="M94.14,192.5a13.84,13.84,0,0,0-13.85,13.83h0v63.33a13.85,13.85,0,1,0,27.69,0V192.5Z"/><path id="Unión_3" data-name="Unión 3" class="cls-3" d="M91.71,283.52a13.84,13.84,0,0,0,13.85-13.84h0V99.74h0L115.32,90l9.75,9.75h0L134.82,90l9.76,9.75h0L154.34,90l9.76,9.75L173.85,90l9.75,9.75h0L193.37,90l9.75,9.75h0L212.88,90l9.75,9.75h0L232.39,90l9.75,9.75L251.89,90l9.74,9.75h0V269.67a13.85,13.85,0,0,1-13.84,13.85Z"/><g id="Grupo_2089" data-name="Grupo 2089"><g id="Grupo_2087" data-name="Grupo 2087"><rect id="Rectángulo_762" data-name="Rectángulo 762" class="cls-4" x="123.19" y="257.3" width="56.44" height="7.2"/><rect id="Rectángulo_763" data-name="Rectángulo 763" class="cls-4" x="123.19" y="242.89" width="56.44" height="7.2"/><rect id="Rectángulo_764" data-name="Rectángulo 764" class="cls-4" x="123.19" y="228.49" width="56.44" height="7.2"/><rect id="Rectángulo_765" data-name="Rectángulo 765" class="cls-4" x="123.19" y="214.09" width="56.44" height="7.2"/><rect id="Rectángulo_766" data-name="Rectángulo 766" class="cls-4" x="123.19" y="199.7" width="56.44" height="7.2"/><rect id="Rectángulo_767" data-name="Rectángulo 767" class="cls-2" x="123.19" y="156.5" width="56.44" height="36"/></g><g id="Grupo_2088" data-name="Grupo 2088"><rect id="Rectángulo_768" data-name="Rectángulo 768" class="cls-4" x="187.6" y="257.3" width="56.43" height="7.2"/><rect id="Rectángulo_769" data-name="Rectángulo 769" class="cls-5" x="187.6" y="214.09" width="56.43" height="36.01"/><rect id="Rectángulo_770" data-name="Rectángulo 770" class="cls-4" x="187.6" y="199.7" width="56.43" height="7.2"/><rect id="Rectángulo_771" data-name="Rectángulo 771" class="cls-4" x="187.6" y="185.3" width="56.43" height="7.21"/><rect id="Rectángulo_772" data-name="Rectángulo 772" class="cls-4" x="187.6" y="170.9" width="56.43" height="7.2"/><rect id="Rectángulo_773" data-name="Rectángulo 773" class="cls-4" x="187.6" y="156.5" width="56.43" height="7.2"/></g><rect id="Rectángulo_774" data-name="Rectángulo 774" class="cls-5" x="123.19" y="118.76" width="120.85" height="14.4"/><rect id="Rectángulo_775" data-name="Rectángulo 775" class="cls-6" x="123.19" y="142.1" width="120.85" height="7.2"/></g></g></g><rect class="cls-7" width="300" height="300"/></g></g></g></svg>