<svg xmlns="http://www.w3.org/2000/svg" viewBox="0 0 300 300"><defs><style>.cls-1{fill:#009fd0;}.cls-10,.cls-2{fill:#fff;}.cls-2{stroke:#cccbca;stroke-width:3.35px;}.cls-3{fill:#424448;}.cls-4{fill:#ef172f;}.cls-5{fill:#cccbca;}.cls-6{fill:#f07400;}.cls-7{fill:#002891;}.cls-8{fill:#58b4d9;}.cls-9{fill:#8fdef6;}.cls-11{fill:none;}</style></defs><title>iconoCriteriosTratamiento</title><g id="Capa_2" data-name="Capa 2"><g id="Capa_1-2" data-name="Capa 1"><g id="Grupo_2484" data-name="Grupo 2484"><path id="Trazado_2435" data-name="Trazado 2435" class="cls-1" d="M171.88,80.72c2.75,5.77,23.34-59.49-23-64.24C115.72,17,107,34.9,98.06,55.16c-1-2-36.56-51-72.06-21.87C-19.48,90.53,90.76,148.37,90.76,148.37s-70.39-64-44.81-90c18.6-18.85,53.4,13.22,53.4,13.22s17.22-38,40.6-35.87C168.55,38.43,170.71,78.25,171.88,80.72Z"/><g id="Grupo_2097" data-name="Grupo 2097"><path id="Trazado_2499" data-name="Trazado 2499" class="cls-2" d="M96.57,87.58H207.73l30.2,29.72V279.7H96.57Z"/><g id="Grupo_1286" data-name="Grupo 1286"><path id="Trazado_1556" data-name="Trazado 1556" class="cls-3" d="M285,266.35H254.65v-7.23h23.11v-69.3H285Z"/><path id="Trazado_1557" data-name="Trazado 1557" class="cls-3" d="M274,282.09H251V115.43L262.52,104,274,115.43Zm-15.72-7.24h8.48V118.44l-4.24-4.24-4.24,4.24Z"/><rect id="Rectángulo_385" data-name="Rectángulo 385" class="cls-3" x="254.66" y="186.21" width="15.72" height="7.24"/><rect id="Rectángulo_386" data-name="Rectángulo 386" class="cls-3" x="258.9" y="101.19" width="7.24" height="7.87"/></g><rect id="Rectángulo_387" data-name="Rectángulo 387" class="cls-3" x="121.02" y="113.31" width="47.17" height="7.24"/><g id="Grupo_1288" data-name="Grupo 1288"><rect id="Rectángulo_388" data-name="Rectángulo 388" class="cls-3" x="121.02" y="188.37" width="94.33" height="7.24"/><rect id="Rectángulo_389" data-name="Rectángulo 389" class="cls-3" x="121.02" y="204.09" width="94.33" height="7.24"/><rect id="Rectángulo_390" data-name="Rectángulo 390" class="cls-3" x="168.19" y="219.81" width="47.16" height="7.24"/></g><rect id="Rectángulo_776" data-name="Rectángulo 776" class="cls-4" x="122.56" y="130.66" width="93.58" height="48.52"/><path id="Trazado_2498" data-name="Trazado 2498" class="cls-5" d="M207.92,87.55l30.22,29.9H207.92Z"/><rect id="Rectángulo_778" data-name="Rectángulo 778" class="cls-6" x="250.81" y="262.37" width="24.26" height="20.8"/><path id="Trazado_2500" data-name="Trazado 2500" class="cls-7" d="M251,191.63h23.74V115.36l-10.11-8.09h-5.2L251,115.36Z"/><rect id="Rectángulo_777" data-name="Rectángulo 777" class="cls-4" x="250.81" y="189.59" width="24.26" height="72.79"/><g id="Grupo_2096" data-name="Grupo 2096"><path id="Unión_4" data-name="Unión 4" class="cls-3" d="M141.65,278.2a25,25,0,0,1-9.06-14.44h-13a25.06,25.06,0,0,1-49,0H56.71V254H70.39a25.06,25.06,0,0,1,49.31,0h12.73a25.06,25.06,0,0,1,49.31,0h13.73v9.79h-13.9a25.05,25.05,0,0,1-39.92,14.44Z"/><path id="Trazado_1651" data-name="Trazado 1651" class="cls-8" d="M110.85,270.81a20.05,20.05,0,1,1-3.45-28.15,20,20,0,0,1,3.45,28.15Z"/><path id="Trazado_1652" data-name="Trazado 1652" class="cls-9" d="M107.7,268.35a16,16,0,1,1-2.76-22.54,16.05,16.05,0,0,1,2.76,22.54Z"/><path id="Trazado_1653" data-name="Trazado 1653" class="cls-10" d="M96.77,256.25a2.8,2.8,0,1,1-3.92.49h0a2.79,2.79,0,0,1,3.91-.48Z"/><path id="Trazado_1654" data-name="Trazado 1654" class="cls-10" d="M86.93,255a6.28,6.28,0,1,1-8.82,1.08A6.28,6.28,0,0,1,86.93,255Z"/><path id="Trazado_1651-2" data-name="Trazado 1651-2" class="cls-8" d="M172.88,270.81a20.05,20.05,0,1,1-3.45-28.15,20,20,0,0,1,3.45,28.15Z"/><path id="Trazado_1652-2" data-name="Trazado 1652-2" class="cls-9" d="M169.73,268.35A16,16,0,1,1,167,245.81a16.05,16.05,0,0,1,2.76,22.54Z"/><path id="Trazado_1653-2" data-name="Trazado 1653-2" class="cls-10" d="M158.8,256.25a2.8,2.8,0,1,1-3.93.49h0a2.78,2.78,0,0,1,3.91-.48Z"/><path id="Trazado_1654-2" data-name="Trazado 1654-2" class="cls-10" d="M149,255a6.28,6.28,0,1,1-8.82,1.08A6.28,6.28,0,0,1,149,255Z"/></g></g></g><rect class="cls-11" width="300" height="300"/></g></g></svg>