<svg xmlns="http://www.w3.org/2000/svg" viewBox="0 0 300 300"><defs><style>.cls-1{fill:none;}.cls-2{fill:#cccbca;}.cls-3{fill:#e6e5e5;}.cls-4{fill:#3f4a5a;}.cls-5{fill:#fff;}.cls-6{fill:#f67656;}.cls-7{fill:#e66847;}.cls-8{fill:#d9d8d7;}.cls-9{fill:#fad97f;}.cls-10{fill:#f5b947;}</style></defs><title>iconoEcommerce</title><g id="Capa_2" data-name="Capa 2"><g id="Capa_1-2" data-name="Capa 1"><g id="iconoEcommerce"><rect class="cls-1" width="300" height="300"/><g id="Grupo_2908" data-name="Grupo 2908"><g id="Grupo_2868" data-name="Grupo 2868"><g id="Grupo_2863" data-name="Grupo 2863"><rect id="Rectángulo_1029" data-name="Rectángulo 1029" class="cls-2" x="110.46" y="234.15" width="78.52" height="34.55"/><rect id="Rectángulo_1030" data-name="Rectángulo 1030" class="cls-3" x="91.62" y="268.7" width="116.22" height="9.42"/><path id="Trazado_3401" data-name="Trazado 3401" class="cls-4" d="M16.24,202.75V31.3a9.41,9.41,0,0,1,9.41-9.42H273.8a9.44,9.44,0,0,1,9.42,9.42V202.75Z"/><rect id="Rectángulo_1031" data-name="Rectángulo 1031" class="cls-5" x="33.52" y="39.16" width="232.43" height="146.3"/><path id="Trazado_3402" data-name="Trazado 3402" class="cls-3" d="M283.22,224.73a9.44,9.44,0,0,1-9.42,9.42H25.65a9.41,9.41,0,0,1-9.41-9.42v-22h267Z"/></g><g id="Grupo_2867" data-name="Grupo 2867"><g id="Grupo_2864" data-name="Grupo 2864"><rect id="Rectángulo_1032" data-name="Rectángulo 1032" class="cls-6" x="56.76" y="97.56" width="69.73" height="69.73"/><rect id="Rectángulo_1033" data-name="Rectángulo 1033" class="cls-7" x="70.7" y="111.5" width="41.84" height="41.84"/></g><g id="Grupo_2865" data-name="Grupo 2865"><rect id="Rectángulo_1034" data-name="Rectángulo 1034" class="cls-4" x="149.72" y="97.56" width="46.49" height="6.97"/><rect id="Rectángulo_1035" data-name="Rectángulo 1035" class="cls-8" x="149.72" y="111.5" width="92.98" height="6.97"/><rect id="Rectángulo_1036" data-name="Rectángulo 1036" class="cls-8" x="149.72" y="125.45" width="92.98" height="6.97"/><rect id="Rectángulo_1037" data-name="Rectángulo 1037" class="cls-8" x="149.72" y="139.4" width="92.98" height="6.97"/></g><rect id="Rectángulo_1038" data-name="Rectángulo 1038" class="cls-6" x="172.97" y="153.35" width="46.49" height="13.94"/><g id="Grupo_2866" data-name="Grupo 2866"><path id="Trazado_3403" data-name="Trazado 3403" class="cls-9" d="M33.52,39.16v28.6a11.62,11.62,0,0,0,23.24,0V39.16Z"/><path id="Trazado_3404" data-name="Trazado 3404" class="cls-10" d="M56.76,39.16v28.6a11.62,11.62,0,0,0,23.24,0V39.16Z"/><path id="Trazado_3405" data-name="Trazado 3405" class="cls-9" d="M80,39.16v28.6a11.63,11.63,0,0,0,23.25,0V39.16Z"/><path id="Trazado_3406" data-name="Trazado 3406" class="cls-10" d="M103.25,39.16v28.6a11.62,11.62,0,1,0,23.23,0V39.16Z"/><path id="Trazado_3407" data-name="Trazado 3407" class="cls-9" d="M126.48,39.16v28.6a11.62,11.62,0,0,0,23.24,0V39.16Z"/><path id="Trazado_3408" data-name="Trazado 3408" class="cls-10" d="M149.72,39.16v28.6a11.63,11.63,0,0,0,23.26,0V39.16Z"/><path id="Trazado_3409" data-name="Trazado 3409" class="cls-9" d="M173,39.16v28.6a11.62,11.62,0,0,0,23.24,0V39.16Z"/><path id="Trazado_3410" data-name="Trazado 3410" class="cls-10" d="M196.22,39.16v28.6a11.62,11.62,0,0,0,23.24,0V39.16Z"/><path id="Trazado_3411" data-name="Trazado 3411" class="cls-10" d="M242.7,39.16v28.6a11.62,11.62,0,0,0,23.24,0V39.16Z"/><path id="Trazado_3412" data-name="Trazado 3412" class="cls-9" d="M219.46,39.16v28.6a11.63,11.63,0,0,0,23.25.36v-29Z"/></g></g></g><g id="Grupo_2869" data-name="Grupo 2869"><path id="Trazado_3413" data-name="Trazado 3413" class="cls-4" d="M122.5,194l-18.45-45.69,45.68,18.43L132,176.21Z"/><rect id="Rectángulo_1039" data-name="Rectángulo 1039" class="cls-4" x="134.13" y="171.28" width="7.25" height="21.51" transform="translate(-88.41 151.03) rotate(-45.08)"/></g></g></g></g></g></svg>