<svg xmlns="http://www.w3.org/2000/svg" viewBox="0 0 101.64 23"><defs><style>.cls-1,.cls-2{fill:#fff;}.cls-2{fill-rule:evenodd;}</style></defs><title>logoHeaderAlpharma</title><g id="Capa_2" data-name="Capa 2"><g id="Capa_1-2" data-name="Capa 1"><g id="Grupo_2058" data-name="Grupo 2058"><g id="Grupo_2056" data-name="Grupo 2056"><path id="Trazado_2301" data-name="Trazado 2301" class="cls-1" d="M15.49,17.61c-.32-.9-.65-1.81-1-2.71a76.17,76.17,0,0,1-3-9.3A39.45,39.45,0,0,1,7.17,12L5.41,10.62C7.55,8,9.88,4.76,10.91,1.17l2.21.2c.45,4.4,2,8.64,3.51,12.75.34.92.67,1.83,1,2.75Z"/><path id="Trazado_2302" data-name="Trazado 2302" class="cls-1" d="M2.25,16.79H1.46L0,16.73l.41-1.4A98.07,98.07,0,0,1,6.37,0l2,1A98.14,98.14,0,0,0,3,14.52a38.91,38.91,0,0,0,8.1-1.25l.53,2.2A39.17,39.17,0,0,1,2.25,16.79Z"/><path id="Trazado_2303" data-name="Trazado 2303" class="cls-1" d="M0,19.51a1.13,1.13,0,1,0,1.12-1.17A1.16,1.16,0,0,0,0,19.51Z"/><path id="Trazado_2304" data-name="Trazado 2304" class="cls-1" d="M3.69,19.51a1.14,1.14,0,1,0,1.13-1.17A1.16,1.16,0,0,0,3.69,19.51Z"/><path id="Trazado_2305" data-name="Trazado 2305" class="cls-1" d="M7.25,19.51a1.14,1.14,0,0,0,2.27-.08,1.14,1.14,0,0,0-1.14-1.09A1.16,1.16,0,0,0,7.25,19.51Z"/><path id="Trazado_2306" data-name="Trazado 2306" class="cls-1" d="M11,19.51a1.14,1.14,0,1,0,1.13-1.17A1.16,1.16,0,0,0,11,19.51Z"/><path id="Trazado_2307" data-name="Trazado 2307" class="cls-1" d="M14.49,19.51a1.13,1.13,0,1,0,1.13-1.17A1.15,1.15,0,0,0,14.49,19.51Z"/><path id="Trazado_2308" data-name="Trazado 2308" class="cls-2" d="M22.38,14.9h4.07l.22,2.27h2.5l-1.54-11H25l-6.27,11h2.42l1.25-2.27Zm3.36-6.26h0L26.21,13H23.4l2.34-4.36Z"/><path id="Trazado_2309" data-name="Trazado 2309" class="cls-1" d="M34.68,6.15h-2.3L30,17.17h7.78l.42-2H32.77l1.92-9Z"/><path id="Trazado_2310" data-name="Trazado 2310" class="cls-2" d="M42,13.19H44.6a4.37,4.37,0,0,0,4.26-3.51c.45-2.16-.54-3.53-2.68-3.53h-5l-2.34,11h2.3l.84-4Zm.41-1.9.69-3.23h1.82c1.43,0,1.93.44,1.7,1.52a1.9,1.9,0,0,1-2.06,1.72H42.36Z"/><path id="Trazado_2311" data-name="Trazado 2311" class="cls-1" d="M56,12.23l-1,4.94h2.3l2.34-11H57.3l-.88,4.18h-4.3L53,6.15h-2.3l-2.34,11h2.3l1-4.94Z"/><path id="Trazado_2312" data-name="Trazado 2312" class="cls-2" d="M61.73,14.9H65.8L66,17.17h2.5L67,6.15H64.33l-6.27,11h2.42l1.25-2.27Zm3.36-6.26h0L65.56,13H62.75l2.34-4.36Z"/><path id="Trazado_2313" data-name="Trazado 2313" class="cls-2" d="M69.39,17.17h2.25l.92-4.31h2.38c1.7,0,1.67.59,1.35,2.09a6.91,6.91,0,0,0-.22,2.22h2.54l.06-.29c-.45-.18-.36-.58,0-2.19.43-2.06,0-2.4-.8-2.79a3.46,3.46,0,0,0,2.26-2.63c.2-.95.12-3.11-2.81-3.11H71.73ZM73,11l.63-2.95h2.87c1.35,0,1.43.86,1.3,1.44-.23,1.09-.9,1.5-2.1,1.5Z"/><path id="Trazado_2314" data-name="Trazado 2314" class="cls-1" d="M92.77,6.15H89.44l-3.81,8.68h0l-.14-8.68H82.1l-2.35,11H81.9l2-9.2h0l0,9.2H86.2l4-9.2h0l-1.95,9.2h2.14l2.34-11Z"/><path id="Trazado_2315" data-name="Trazado 2315" class="cls-2" d="M94.85,14.9h4.07l.22,2.27h2.5l-1.54-11H97.44l-6.26,11H93.6l1.25-2.27Zm3.36-6.26h0L98.68,13H95.87Z"/><path id="Trazado_2316" data-name="Trazado 2316" class="cls-1" d="M71.1,19.07h-.81v3.85H73v-.7H71.1V19.07Z"/><path id="Trazado_2317" data-name="Trazado 2317" class="cls-2" d="M75.67,20.82c0-.7-.73-.83-1.13-.83-.59,0-1.19.13-1.28,1H74a.42.42,0,0,1,.42-.4h0c.19,0,.49,0,.49.33,0,.16-.14.21-.26.22l-.68.11a.87.87,0,0,0-.83.91h0a.8.8,0,0,0,.77.83H74a1.15,1.15,0,0,0,.92-.42,1.28,1.28,0,0,0,.07.34h.81v-.11c-.09,0-.17-.11-.17-.45V20.82Zm-.73,1.07a.62.62,0,0,1-.67.57.33.33,0,0,1-.35-.3v0c0-.31.23-.38.51-.43a1,1,0,0,0,.51-.16v.37Z"/><path id="Trazado_2318" data-name="Trazado 2318" class="cls-2" d="M78.18,21.52c0,.33-.14.86-.62.86s-.67-.4-.67-.82.13-.92.65-.92.64.42.64.88Zm-1.25-2.45h-.75v3.85h.73v-.36h0a.93.93,0,0,0,.83.44c.85,0,1.2-.76,1.2-1.54,0-1-.56-1.47-1.19-1.47a.9.9,0,0,0-.82.45h0V19.07Z"/><path id="Trazado_2319" data-name="Trazado 2319" class="cls-2" d="M82.08,21.49A1.46,1.46,0,1,0,80.62,23a1.37,1.37,0,0,0,1.46-1.31A.6.6,0,0,0,82.08,21.49Zm-.77,0c0,.37-.11.87-.69.87s-.69-.5-.69-.87.1-.87.69-.87S81.31,21.13,81.31,21.49Z"/><path id="Trazado_2320" data-name="Trazado 2320" class="cls-1" d="M82.45,22.92h.75V21.43a.61.61,0,0,1,.52-.68.48.48,0,0,1,.17,0l.22,0V20H84a.83.83,0,0,0-.79.57h0v-.49h-.72v2.85Z"/><path id="Trazado_2321" data-name="Trazado 2321" class="cls-2" d="M86.71,20.82c0-.7-.74-.83-1.14-.83-.58,0-1.19.13-1.28,1H85a.4.4,0,0,1,.4-.4h.06c.19,0,.5,0,.5.33,0,.16-.15.21-.27.22l-.67.11a.87.87,0,0,0-.83.91A.79.79,0,0,0,85,23h.11a1.15,1.15,0,0,0,.92-.42,1.28,1.28,0,0,0,.07.34h.81v-.11c-.09,0-.16-.11-.16-.45V20.82ZM86,21.89a.62.62,0,0,1-.67.57.33.33,0,0,1-.35-.3v0c0-.31.23-.38.51-.43a1.09,1.09,0,0,0,.52-.16v.37Z"/><path id="Trazado_2322" data-name="Trazado 2322" class="cls-1" d="M88.07,19.29h-.75v.78h-.39v.53h.39v1.74c0,.37.12.61.77.61h.45v-.56h-.16c-.3,0-.3-.07-.3-.23V20.6h.46v-.53h-.46V19.3Z"/><path id="Trazado_2323" data-name="Trazado 2323" class="cls-2" d="M91.62,21.49a1.46,1.46,0,0,0-2.92.08A1.45,1.45,0,0,0,90.16,23a1.37,1.37,0,0,0,1.46-1.31Zm-.77,0c0,.37-.11.87-.69.87s-.69-.5-.69-.87.11-.87.69-.87S90.85,21.13,90.85,21.49Z"/><path id="Trazado_2324" data-name="Trazado 2324" class="cls-1" d="M92,22.92h.75V21.43a.61.61,0,0,1,.52-.68.48.48,0,0,1,.17,0l.22,0V20H93.5a.85.85,0,0,0-.78.57h0v-.49H92v2.85Z"/><path id="Trazado_2325" data-name="Trazado 2325" class="cls-2" d="M94,20.07v2.85h.75V20.07Zm.75-1H94v.7h.75Z"/><path id="Trazado_2326" data-name="Trazado 2326" class="cls-2" d="M98,21.49A1.46,1.46,0,1,0,96.57,23,1.37,1.37,0,0,0,98,21.68.6.6,0,0,0,98,21.49Zm-.77,0c0,.37-.11.87-.69.87s-.68-.5-.68-.87.1-.87.68-.87S97.26,21.13,97.26,21.49Z"/><path id="Trazado_2327" data-name="Trazado 2327" class="cls-1" d="M100.76,20.93c-.06-.8-.73-.94-1.28-.94-.9,0-1.16.54-1.16,1,0,1.08,1.77.71,1.77,1.19,0,.11-.09.3-.47.3S99,22.25,99,22h-.77c0,.77.72,1,1.37,1,.45,0,1.25-.15,1.25-1,0-1.06-1.78-.73-1.78-1.18,0-.12,0-.28.46-.28s.47.19.5.38Z"/><g id="Grupo_2055" data-name="Grupo 2055"><path id="Trazado_2328" data-name="Trazado 2328" class="cls-1" d="M16,.28a1.38,1.38,0,0,1,1.4,1.38,1.39,1.39,0,0,1-2.78,0h0A1.37,1.37,0,0,1,16,.28Zm0,.21a1.18,1.18,0,0,0,0,2.36A1.13,1.13,0,0,0,17.11,1.7v0A1.14,1.14,0,0,0,16,.49Zm-.26,2h-.25V.93a2.18,2.18,0,0,1,.44,0,.8.8,0,0,1,.48.12.35.35,0,0,1,.14.32.38.38,0,0,1-.3.38h0c.14,0,.23.15.26.37a1.18,1.18,0,0,0,.1.38h-.26a1.24,1.24,0,0,1-.1-.39.28.28,0,0,0-.3-.27h-.2Zm0-.86h.18c.2,0,.38-.08.38-.27s-.1-.27-.38-.27h-.18Z"/></g></g></g></g></g></svg>